if (_typeface_js && _typeface_js.loadFace) _typeface_js.loadFace({"glyphs":{"0":{"ha":896,"x_min":0,"x_max":856,"o":"m 856 464 q 679 93 856 246 q 317 -49 515 -49 q 74 32 157 -49 q 0 224 0 103 q 182 632 0 428 q 514 831 358 831 q 565 823 546 831 q 597 800 583 815 q 784 673 713 767 q 856 464 856 579 m 738 611 q 700 667 718 647 q 610 732 682 686 q 589 729 596 729 q 540 746 564 729 l 451 736 l 390 711 q 246 589 332 688 q 124 418 168 499 q 80 314 93 363 q 67 224 67 265 q 85 132 67 172 q 119 78 97 103 q 218 19 157 36 q 314 8 260 8 q 483 46 403 8 q 629 146 551 78 q 781 447 781 278 q 738 611 781 533 z "},"1":{"ha":417,"x_min":61,"x_max":410,"o":"m 410 811 q 385 733 410 790 q 339 624 361 676 q 235 340 299 528 q 147 32 153 104 q 140 -7 147 7 q 99 -29 129 -29 q 70 -17 79 -29 q 61 14 61 -6 q 63 37 61 26 q 69 60 65 47 q 164 368 133 278 q 275 656 218 501 q 157 575 200 597 q 101 558 125 558 q 72 568 79 558 q 64 593 64 578 q 104 628 64 610 q 194 675 169 657 q 294 760 268 728 q 335 832 314 796 q 369 850 350 850 q 399 841 388 850 q 410 811 410 832 z "},"2":{"ha":883,"x_min":18,"x_max":919,"o":"m 911 643 q 789 444 888 554 q 618 285 719 367 q 498 196 569 244 q 363 108 426 147 q 558 85 482 108 q 633 26 633 63 q 626 -3 633 10 q 604 -17 619 -17 q 571 -8 582 -17 q 549 17 560 1 q 517 40 539 33 q 432 47 496 47 q 275 32 358 47 q 125 -7 192 17 q 92 -17 111 -11 q 57 -22 72 -22 q 28 -16 38 -22 q 18 10 18 -10 q 78 61 18 42 q 183 89 131 75 q 305 146 228 104 q 440 228 382 188 q 643 385 554 306 q 832 613 781 508 q 856 701 856 660 q 799 794 856 763 q 649 825 742 825 q 581 821 618 825 q 507 810 543 817 q 303 734 394 788 q 165 618 211 681 q 129 521 129 568 q 169 440 129 471 q 276 410 210 410 l 336 413 q 369 408 361 413 q 378 390 378 403 q 333 360 378 364 q 263 356 288 356 q 113 402 164 356 q 61 518 61 449 q 94 629 61 575 q 257 776 146 713 q 481 863 358 835 q 647 882 565 882 q 846 835 772 882 q 919 703 919 789 q 911 643 919 675 z "},"3":{"ha":1013,"x_min":0,"x_max":958,"o":"m 958 753 q 840 574 958 664 q 647 464 765 515 q 850 388 782 444 q 910 268 910 338 q 875 165 910 215 q 687 35 819 85 q 401 -14 554 -14 q 263 -1 329 -14 q 54 86 124 24 q 0 194 0 135 q 33 274 0 236 q 103 311 67 311 q 135 288 135 311 q 122 263 135 278 q 90 235 101 246 q 68 190 68 214 q 114 116 68 153 q 250 58 160 79 q 379 46 308 46 q 642 89 519 46 q 824 214 776 136 q 840 267 840 242 q 762 364 840 325 q 560 403 683 403 q 524 403 543 403 q 467 397 504 403 q 405 391 424 393 q 381 389 386 389 q 328 399 347 389 q 308 433 308 408 q 324 458 308 451 q 358 467 339 465 q 389 466 374 467 q 419 465 404 465 q 461 467 444 465 q 506 475 478 468 q 710 565 589 493 q 876 710 844 646 q 890 761 890 738 q 828 843 890 815 q 668 871 765 871 q 617 869 644 871 q 556 861 589 867 q 365 800 454 844 q 244 701 276 756 q 231 660 231 678 q 308 604 231 624 q 385 568 385 585 q 375 547 385 556 q 338 539 365 539 q 213 575 268 539 q 158 668 158 611 q 187 746 158 704 q 282 826 215 788 q 450 894 354 869 q 544 915 499 907 q 632 922 590 922 q 771 916 714 922 q 879 881 828 910 q 958 753 958 836 z "},"4":{"ha":921,"x_min":0,"x_max":863,"o":"m 863 232 q 847 208 863 214 q 811 203 832 203 l 747 204 q 664 203 706 204 q 578 197 622 203 q 551 129 565 165 q 538 68 538 93 l 539 42 q 546 10 546 14 q 533 -12 546 -1 q 507 -24 519 -24 q 469 -10 483 -24 q 454 40 454 4 q 482 142 454 68 q 504 196 494 174 q 333 190 414 196 q 244 183 251 183 q 79 193 121 183 q 0 275 0 211 q 57 385 0 318 q 331 633 138 478 q 572 807 440 721 q 782 913 735 913 q 815 901 804 913 q 826 875 826 890 q 781 710 826 836 q 601 260 728 567 q 811 271 768 271 q 856 256 843 271 q 863 232 863 247 m 751 826 l 749 835 q 724 830 736 835 q 686 808 713 825 q 469 656 607 760 q 204 439 310 535 q 74 278 74 319 q 94 252 74 261 q 172 243 114 243 l 203 243 q 341 247 258 243 q 529 256 424 250 q 704 681 668 588 q 751 826 751 800 z "},"5":{"ha":911,"x_min":-36,"x_max":821,"o":"m 821 883 q 810 860 821 869 q 772 851 799 851 q 653 844 740 851 q 517 838 567 838 l 311 838 q 226 674 261 757 q 181 540 200 611 q 347 563 257 563 q 472 554 419 563 q 586 521 524 546 q 749 407 696 479 q 792 286 792 349 q 667 85 792 168 q 276 -10 525 -10 q 45 28 126 -10 q -36 114 -36 67 q -28 137 -36 125 q -11 149 -21 149 q 30 122 19 149 q 53 86 40 96 q 142 56 78 68 q 279 43 206 43 q 615 124 488 43 q 729 293 729 196 q 706 364 729 328 q 628 435 682 400 q 503 490 574 469 q 364 510 433 510 q 261 499 311 510 q 163 456 211 488 q 145 447 156 451 q 122 442 135 442 q 90 482 90 442 q 149 647 90 510 q 226 821 197 764 l 242 850 q 216 860 224 850 q 208 882 208 869 q 215 897 208 892 q 256 908 228 908 q 285 906 272 908 q 333 896 331 896 q 354 895 339 896 q 394 894 369 894 q 465 896 428 894 q 561 903 501 897 q 658 910 588 903 q 761 918 728 918 q 797 915 789 918 q 821 883 821 907 z "},"6":{"ha":879,"x_min":31,"x_max":824,"o":"m 824 328 q 696 94 824 203 q 356 -24 556 -24 q 106 61 193 -24 q 31 240 31 133 q 45 328 31 285 q 85 413 60 372 q 67 444 67 426 q 83 476 67 461 q 121 492 99 490 q 358 776 219 647 q 640 932 525 932 q 689 903 689 932 q 678 879 689 889 q 653 866 668 869 q 612 858 639 863 q 553 838 585 854 q 489 797 521 821 q 374 700 431 756 q 226 525 289 618 q 492 565 356 565 q 757 478 668 565 q 824 328 824 413 m 761 317 q 697 443 761 392 q 481 504 621 504 q 318 486 401 504 q 167 436 235 468 q 128 360 146 406 q 100 221 100 289 q 176 74 100 125 q 347 28 244 28 q 637 119 513 28 q 761 317 761 210 z "},"7":{"ha":757,"x_min":14,"x_max":785,"o":"m 776 788 q 703 699 763 757 q 621 619 651 650 q 397 399 494 497 q 274 269 321 321 q 226 215 243 236 q 138 107 163 139 q 107 54 114 75 q 93 10 100 33 q 51 -14 82 -14 q 14 33 14 -14 q 72 151 14 75 q 215 313 117 211 q 390 490 303 401 q 600 693 394 494 q 706 815 706 794 q 693 828 706 824 q 664 833 681 833 q 582 826 660 833 q 460 819 504 819 q 309 813 383 819 q 154 800 235 807 q 38 822 71 800 q 17 860 17 836 q 31 882 17 872 q 65 892 44 892 q 157 871 99 892 q 306 880 235 876 q 472 883 376 883 q 592 888 525 883 q 679 892 658 892 q 755 874 725 892 q 785 822 785 856 q 776 788 785 807 z "},"8":{"ha":924,"x_min":0,"x_max":938,"o":"m 938 710 q 840 579 938 636 q 493 439 751 528 q 708 275 653 340 q 757 157 757 217 q 632 10 757 63 q 385 -36 524 -36 q 94 29 200 -36 q 0 169 0 88 q 68 301 0 238 q 338 454 151 381 q 206 569 250 519 q 146 700 146 638 q 313 860 146 804 q 617 904 444 904 q 886 828 806 904 q 938 710 938 779 m 861 721 q 821 801 861 769 q 613 851 758 851 q 353 815 463 851 q 222 697 222 772 q 290 572 222 640 q 411 482 346 517 q 861 721 861 625 m 690 157 q 629 263 690 206 q 406 404 556 332 q 183 300 279 364 q 72 164 72 225 q 154 65 72 108 q 388 17 246 17 q 618 63 536 17 q 690 157 690 103 z "},"9":{"ha":861,"x_min":18,"x_max":861,"o":"m 861 600 q 836 503 861 540 q 758 392 797 447 q 581 59 585 94 q 574 1 576 24 q 538 -28 565 -28 q 515 -18 524 -28 q 503 24 503 -4 q 568 204 503 72 q 635 329 592 251 q 479 273 558 293 q 325 253 400 253 q 103 311 188 253 q 18 469 18 369 q 178 757 18 621 q 526 893 338 893 q 765 811 669 893 q 861 600 861 729 m 772 532 q 782 569 778 546 q 786 606 786 592 q 708 767 786 699 q 526 836 629 836 q 241 721 388 836 q 94 481 94 606 q 150 361 94 406 q 326 311 213 311 q 481 335 399 311 q 585 373 535 350 q 665 418 636 396 q 712 474 693 440 q 733 513 731 508 q 772 532 746 528 z "}," ":{"ha":324,"x_min":0,"x_max":0,"o":""},"!":{"ha":511,"x_min":61,"x_max":453,"o":"m 453 883 q 442 829 453 863 q 401 719 432 796 q 331 551 371 643 q 232 290 251 369 q 223 235 229 278 q 206 181 217 193 q 176 169 194 169 q 149 179 157 169 q 140 213 140 189 q 142 241 140 231 q 151 279 143 251 q 221 488 181 392 q 293 653 269 596 q 350 821 317 711 q 393 913 372 894 q 417 924 407 924 q 441 916 429 924 q 453 883 453 908 m 196 31 q 124 -50 196 -50 q 77 -33 93 -50 q 61 7 61 -15 q 85 66 61 39 q 138 93 110 93 q 177 77 158 93 q 196 31 196 61 z "},"\"":{"ha":558,"x_min":194,"x_max":440,"o":"m 433 875 q 426 790 428 842 q 424 721 424 738 l 424 703 q 425 685 425 694 q 425 671 425 675 q 418 631 425 643 q 381 611 407 611 q 344 651 351 611 q 343 672 343 658 q 344 707 344 696 q 347 788 344 735 q 351 888 349 842 q 353 926 351 913 q 368 950 356 940 q 393 960 381 960 q 425 953 417 960 q 440 918 440 939 q 437 892 440 906 q 433 875 433 879 m 279 864 q 273 813 275 836 q 271 761 271 789 q 272 731 271 744 q 274 700 272 717 q 276 671 276 683 q 268 635 276 647 q 235 624 260 624 q 202 642 210 624 q 194 689 194 661 l 194 704 l 197 794 q 196 850 197 815 q 194 896 194 885 q 206 948 194 938 q 243 958 218 958 q 267 953 257 958 q 280 937 276 947 q 283 910 283 926 q 282 887 283 899 q 279 864 281 875 z "},"#":{"ha":881,"x_min":58,"x_max":839,"o":"m 839 536 q 831 518 839 526 q 813 510 822 510 l 783 514 q 744 519 767 518 q 718 521 721 521 q 682 520 700 521 q 646 519 664 519 l 596 349 l 644 346 q 717 341 692 346 q 760 318 743 336 q 770 302 765 311 q 775 283 775 293 q 761 257 775 267 q 743 251 753 251 q 681 269 715 261 q 576 276 646 276 l 557 186 q 547 146 550 161 q 544 113 544 131 l 544 81 q 540 35 544 51 q 526 15 535 19 q 494 10 517 10 q 471 19 479 10 q 457 69 457 35 q 463 121 457 94 q 501 282 483 201 q 409 281 453 282 q 313 275 365 281 l 281 133 q 278 104 278 124 q 282 68 278 90 q 286 38 286 46 q 274 8 286 21 q 240 -6 263 -6 q 208 9 221 -6 q 194 54 194 24 q 210 149 194 78 q 239 272 225 219 l 119 269 q 79 276 93 269 q 58 313 58 288 q 65 338 58 328 q 78 351 71 347 q 118 360 92 360 q 181 356 126 360 q 260 353 235 353 l 310 510 l 251 508 q 213 507 228 507 q 156 518 176 507 q 126 571 126 533 q 137 603 126 593 q 163 614 147 614 q 226 600 185 614 q 281 592 251 592 l 335 594 l 399 785 q 419 840 413 828 q 460 872 436 872 q 481 865 472 872 q 490 840 490 858 q 485 814 490 829 l 411 594 l 599 596 l 649 732 q 682 824 665 778 q 738 882 708 882 q 762 872 751 882 q 772 842 772 861 q 763 804 772 824 q 713 703 738 753 q 672 596 690 651 q 715 596 694 596 q 756 597 736 596 q 811 587 792 597 q 835 565 831 576 q 839 536 839 554 m 571 521 l 385 514 l 332 351 l 521 354 l 571 521 z "},"$":{"ha":564,"x_min":36,"x_max":514,"o":"m 500 631 q 514 574 514 601 q 511 547 514 561 q 499 503 503 518 q 472 450 488 465 q 439 435 457 435 q 415 444 424 435 q 406 468 406 453 q 410 492 406 479 q 419 514 415 504 q 436 583 436 544 q 403 645 436 618 q 322 672 371 672 q 206 624 261 672 q 150 521 150 575 q 178 454 150 485 q 290 372 188 443 q 376 308 358 324 q 428 228 428 264 q 381 158 428 190 q 263 125 333 125 q 239 126 247 126 q 221 42 222 97 q 175 -12 219 -12 q 158 -3 164 -12 q 153 29 153 6 q 172 133 153 81 q 99 163 131 143 q 49 210 67 182 q 36 244 36 228 q 47 269 36 261 q 76 283 65 283 q 102 264 89 283 q 128 226 115 244 q 168 197 142 207 q 219 183 194 186 l 264 183 q 330 194 300 183 q 360 226 360 206 q 349 247 360 233 q 300 290 333 268 q 249 324 283 301 q 186 365 206 351 q 126 419 157 388 q 92 470 103 444 q 82 522 82 496 q 99 589 82 554 q 129 636 110 613 q 196 693 156 668 q 276 724 236 718 l 338 732 q 375 828 343 744 q 405 889 394 879 q 431 899 415 899 q 457 869 457 899 q 451 843 457 860 q 404 718 429 788 q 500 631 472 689 z "},"%":{"ha":892,"x_min":44,"x_max":807,"o":"m 771 754 q 781 735 781 746 q 772 711 781 724 q 764 700 769 707 q 725 657 746 678 q 685 617 704 636 l 628 551 q 486 381 496 392 q 375 242 415 294 q 281 112 304 146 q 251 61 257 78 q 233 11 238 21 q 197 -22 218 -22 q 169 -9 183 -22 q 154 21 154 4 q 161 47 154 33 q 179 76 168 61 q 260 192 219 133 q 597 613 310 257 q 550 596 572 603 q 504 583 528 589 q 367 419 450 479 q 207 358 285 358 q 126 378 163 358 q 69 435 90 399 q 44 529 44 476 q 69 636 44 583 q 149 722 93 689 q 188 794 164 765 q 250 850 211 824 q 399 900 324 900 q 475 882 446 900 q 532 796 515 857 q 538 757 538 768 q 539 733 539 746 q 526 647 539 688 q 638 692 592 663 q 699 736 653 701 q 725 753 711 746 q 751 761 739 761 q 771 754 764 761 m 807 233 q 765 78 807 157 q 656 -43 724 0 q 543 -76 603 -76 q 436 -36 478 -76 q 390 90 390 8 q 410 194 390 149 q 469 281 429 239 q 572 363 515 329 q 679 400 635 400 q 775 356 743 400 q 807 233 807 311 m 478 735 q 449 828 478 799 q 396 850 426 850 q 335 836 365 850 q 272 790 304 822 q 233 736 246 764 q 219 685 219 708 q 251 629 219 646 q 331 613 283 613 q 397 615 372 613 q 453 631 421 618 q 472 681 465 653 q 478 735 478 708 m 421 568 q 324 553 375 553 q 219 574 264 553 q 151 640 174 594 q 115 585 125 615 q 106 526 106 556 q 138 443 106 474 q 217 413 169 413 q 244 416 231 413 q 267 422 258 419 q 356 478 315 439 q 421 568 396 518 m 747 247 q 730 319 747 297 q 681 340 713 340 q 581 294 642 340 q 494 214 526 254 q 460 151 472 185 q 447 89 447 118 q 473 13 447 43 q 542 -17 499 -17 q 640 20 592 -17 q 717 121 688 57 q 740 191 733 158 q 747 247 747 224 z "},"&":{"ha":1146,"x_min":68,"x_max":1078,"o":"m 1078 319 q 1050 289 1078 289 q 1034 294 1044 289 q 1018 301 1024 299 q 974 312 1000 310 q 936 314 947 314 q 871 313 900 314 q 785 306 842 313 q 845 265 822 293 q 868 208 868 236 q 840 132 868 169 q 790 83 822 108 q 610 -6 711 25 q 410 -36 510 -36 q 162 24 256 -36 q 68 185 68 85 q 174 371 68 292 q 426 490 260 436 q 292 560 346 510 q 239 665 239 611 q 373 824 239 754 q 690 894 507 894 q 865 861 804 894 q 926 769 926 828 q 843 626 926 693 q 700 565 767 565 q 667 574 676 565 q 657 593 657 582 q 678 615 657 607 q 760 642 718 628 q 832 696 800 661 q 864 764 864 731 q 829 815 864 796 q 686 839 786 839 q 422 786 536 839 q 308 667 308 733 q 344 594 308 625 q 511 531 396 550 q 586 517 544 525 q 638 496 628 510 q 643 471 643 489 q 638 447 643 451 q 622 442 633 442 q 594 444 617 442 q 554 447 572 447 q 352 401 469 447 q 178 293 235 354 q 140 238 151 265 q 128 185 128 211 q 140 132 128 158 q 165 96 149 114 q 293 38 204 54 q 418 28 346 28 q 676 83 551 28 q 800 206 800 139 q 754 263 800 246 q 640 279 708 279 q 597 278 618 279 q 529 272 576 276 q 472 265 497 272 q 432 256 446 258 q 406 253 418 253 q 372 267 382 253 q 363 294 363 281 q 380 327 363 319 q 424 335 397 335 l 436 335 q 592 344 504 335 q 726 359 679 354 q 853 367 774 364 q 981 371 932 371 q 1046 356 1014 371 q 1078 319 1078 342 z "},"'":{"ha":353,"x_min":150,"x_max":244,"o":"m 244 924 q 240 869 244 897 q 229 793 231 803 q 227 771 228 783 q 226 754 226 758 q 230 704 226 732 q 233 672 233 676 q 221 635 233 646 q 190 624 208 624 q 158 639 167 624 q 150 667 150 654 q 154 703 150 672 q 158 772 158 733 l 158 789 q 158 828 158 808 q 157 869 157 849 l 157 886 q 160 924 157 904 q 176 955 164 944 q 201 965 189 965 l 219 964 q 240 950 235 960 q 244 924 244 940 z "},"(":{"ha":508,"x_min":36,"x_max":465,"o":"m 465 971 q 381 851 465 951 q 279 704 325 786 q 150 413 193 554 q 107 140 107 271 q 126 8 107 56 q 188 -69 146 -40 q 235 -86 200 -78 q 271 -117 271 -94 q 256 -134 271 -128 q 219 -140 242 -140 q 165 -126 193 -140 q 108 -79 138 -111 q 52 25 68 -33 q 36 146 36 83 q 103 486 36 297 q 278 831 169 675 q 349 932 296 871 q 439 1004 410 1004 q 465 971 465 1004 z "},")":{"ha":535,"x_min":67,"x_max":503,"o":"m 503 665 q 419 293 503 499 q 219 -29 335 88 q 155 -85 188 -61 q 107 -110 122 -110 q 76 -100 83 -110 q 81 -71 67 -85 q 100 -56 83 -68 q 340 289 240 47 q 429 665 429 503 q 385 833 429 765 q 286 956 335 894 q 288 968 286 965 q 315 985 294 985 q 432 901 372 985 q 503 665 503 803 z "},"*":{"ha":788,"x_min":188,"x_max":699,"o":"m 689 1022 q 664 1004 681 1011 q 540 919 614 982 l 494 881 l 568 886 q 593 888 582 888 q 611 889 604 889 q 654 875 640 889 q 664 849 664 865 q 653 823 664 831 q 625 815 643 815 q 553 822 588 819 q 474 825 519 825 q 508 778 486 799 q 551 749 529 758 q 597 738 582 742 q 613 715 613 733 q 608 701 613 707 q 563 683 596 683 q 474 717 515 683 q 414 800 433 751 q 356 736 379 764 q 306 669 321 694 q 296 651 300 660 q 261 633 283 633 q 233 643 242 633 q 224 665 224 653 q 276 740 224 688 q 349 817 315 779 l 321 817 q 229 824 256 817 q 188 868 188 835 q 210 905 188 896 q 269 914 233 914 q 298 897 292 914 q 308 876 304 881 q 329 872 313 872 l 374 874 q 340 972 347 936 q 332 1035 332 1008 q 346 1068 332 1057 q 376 1079 360 1079 q 411 1065 403 1079 q 419 1024 419 1051 l 419 1000 q 422 947 419 964 q 433 903 424 929 l 489 954 q 568 1025 538 1000 q 622 1063 599 1050 q 663 1075 644 1075 q 699 1047 699 1075 q 689 1022 699 1033 z "},"+":{"ha":614,"x_min":36,"x_max":524,"o":"m 524 265 q 517 242 524 250 q 476 226 504 226 l 428 229 q 397 231 410 231 q 374 232 383 232 q 340 231 357 232 q 304 231 322 231 q 259 71 274 111 q 233 15 244 31 q 210 -6 221 0 q 190 -11 200 -11 q 175 -6 181 -11 q 169 11 169 -1 q 172 29 169 21 q 179 50 174 38 q 210 131 193 83 q 222 167 221 161 l 239 228 q 176 225 208 228 q 124 222 144 222 l 99 222 q 54 228 72 222 q 36 254 36 235 q 51 284 36 276 q 93 292 67 292 q 113 291 101 292 q 140 289 125 290 q 160 288 150 288 q 183 288 171 288 q 222 288 203 288 q 257 290 247 290 q 281 378 267 328 q 308 459 296 429 q 335 508 319 489 q 367 526 351 526 q 388 508 388 526 q 368 438 388 497 q 322 293 340 353 l 361 293 l 389 293 l 408 293 q 447 293 428 293 q 483 294 465 293 q 515 287 506 294 q 524 265 524 279 z "},",":{"ha":329,"x_min":-54,"x_max":207,"o":"m 207 64 q 183 26 207 49 q 151 1 174 17 l 81 -83 q 53 -122 71 -94 q 28 -163 36 -150 q 17 -187 21 -176 q -25 -208 4 -208 q -47 -201 -40 -208 q -54 -187 -54 -194 q -40 -156 -54 -181 q 58 0 18 -54 q 174 94 129 94 q 192 90 178 94 q 207 64 207 85 z "},"-":{"ha":422,"x_min":61,"x_max":328,"o":"m 319 276 q 289 264 310 264 q 268 265 275 265 q 246 267 260 267 q 211 265 224 265 q 147 264 172 265 q 100 261 122 263 q 71 270 81 261 q 61 293 61 279 q 68 315 61 304 q 88 328 75 325 q 121 332 101 332 l 176 332 q 235 335 207 332 q 269 339 263 339 l 296 335 q 328 299 328 325 q 319 276 328 285 z "},".":{"ha":325,"x_min":43,"x_max":176,"o":"m 174 3 q 158 -17 171 -4 q 130 -37 144 -31 q 97 -43 115 -43 q 56 -30 69 -43 q 43 0 43 -17 q 54 28 43 15 q 117 56 76 56 q 160 42 143 56 q 176 15 176 29 q 174 3 176 11 z "},"/":{"ha":793,"x_min":18,"x_max":703,"o":"m 681 847 q 485 496 582 671 q 285 113 365 281 q 122 -279 179 -108 q 108 -326 115 -303 q 85 -370 97 -358 q 54 -382 74 -382 q 28 -372 38 -382 q 18 -346 18 -361 q 26 -312 18 -332 q 92 -143 58 -228 q 151 1 125 -58 q 243 188 178 60 q 447 569 349 396 q 560 765 503 667 q 607 877 599 836 q 621 928 615 918 q 667 956 635 956 q 703 917 703 956 q 681 847 703 890 z "},":":{"ha":326,"x_min":22,"x_max":200,"o":"m 200 224 q 186 188 200 203 q 133 167 167 167 q 84 180 100 167 q 68 210 68 193 q 86 247 68 231 q 140 264 104 264 q 186 251 172 264 q 200 224 200 239 m 149 28 q 129 -11 149 6 q 81 -28 110 -28 q 38 -14 54 -28 q 22 19 22 0 q 42 59 22 46 q 89 72 61 72 q 133 58 118 72 q 149 28 149 44 z "},";":{"ha":329,"x_min":-72,"x_max":226,"o":"m 226 240 q 208 202 226 218 q 160 186 189 186 q 113 199 126 186 q 99 228 99 211 q 117 267 99 249 q 165 286 136 286 q 210 273 194 286 q 226 240 226 260 m 143 61 q 157 40 157 51 q 153 26 157 32 q 136 6 150 19 q 42 -97 71 -57 q -8 -186 6 -146 q -21 -211 -15 -204 q -44 -218 -26 -218 q -67 -208 -61 -218 q -72 -179 -72 -197 q -65 -142 -72 -160 q -42 -98 -58 -124 q 18 -17 -25 -72 q 82 57 67 46 q 122 68 97 68 q 143 61 132 68 z "},"<":{"ha":549,"x_min":76,"x_max":429,"o":"m 429 414 q 415 381 429 396 q 389 361 408 374 q 251 265 286 290 q 156 188 190 221 q 186 121 178 136 q 251 15 218 56 q 265 -6 257 8 q 272 -31 272 -21 q 257 -57 272 -46 q 239 -62 247 -62 q 216 -53 226 -62 q 193 -29 206 -44 q 132 60 154 22 q 81 169 100 113 l 76 188 q 83 210 76 199 q 101 229 86 214 q 256 351 132 260 q 344 417 318 397 q 406 444 383 444 q 429 414 429 444 z "},"=":{"ha":618,"x_min":29,"x_max":510,"o":"m 510 324 q 494 293 510 300 q 456 286 479 286 q 374 284 444 286 q 281 282 303 282 l 153 274 l 117 274 q 85 285 94 275 q 76 308 76 294 q 90 338 76 328 q 125 347 104 347 q 160 344 136 347 q 210 342 183 342 q 258 343 229 342 q 331 349 288 344 q 399 352 356 349 q 450 356 443 356 q 490 351 471 356 q 510 324 510 347 m 464 193 q 453 169 464 179 q 428 158 443 158 l 401 160 l 346 160 q 258 151 303 154 q 107 147 214 147 l 69 147 q 38 160 47 150 q 29 181 29 169 q 45 212 29 201 q 89 222 61 222 q 135 219 92 222 q 193 217 178 217 q 280 224 215 217 q 375 232 344 232 l 417 232 q 451 219 439 229 q 464 193 464 210 z "},">":{"ha":549,"x_min":76,"x_max":429,"o":"m 429 194 q 424 176 429 183 q 404 153 419 168 q 250 31 374 122 q 161 -35 188 -15 q 100 -62 122 -62 q 76 -32 76 -62 q 90 1 76 -14 q 117 21 97 8 q 283 140 222 93 q 351 199 326 174 q 301 294 332 246 q 254 363 288 317 q 240 385 247 371 q 233 411 233 400 q 249 439 233 428 q 267 444 258 444 q 292 433 279 444 q 313 411 300 426 q 374 322 351 360 q 425 213 406 269 l 429 194 z "},"?":{"ha":832,"x_min":90,"x_max":818,"o":"m 818 658 q 715 499 818 564 q 523 411 681 476 q 308 306 365 346 q 274 265 274 282 l 278 240 q 246 210 278 210 q 214 226 228 210 q 200 263 200 243 q 286 371 200 318 q 435 440 326 394 q 643 532 624 521 q 740 667 740 589 q 667 776 740 729 q 450 829 585 829 q 242 786 324 829 q 169 704 169 749 q 182 671 169 686 q 198 656 186 667 q 210 636 210 644 q 175 608 210 608 q 116 635 142 608 q 90 704 90 663 q 176 828 90 774 q 449 892 278 892 q 735 814 633 892 q 818 658 818 750 m 254 90 q 229 39 254 53 q 188 31 214 31 q 135 47 151 31 q 124 72 124 58 q 153 116 124 96 q 213 136 183 136 q 244 123 233 136 q 254 90 254 110 z "},"@":{"ha":933,"x_min":29,"x_max":885,"o":"m 885 700 q 801 369 885 500 q 625 250 725 250 q 556 276 579 250 q 532 342 532 303 q 536 372 532 357 q 460 296 497 326 q 358 246 399 246 q 296 274 324 246 q 263 363 263 307 q 288 499 263 422 q 356 640 314 575 q 471 769 410 724 q 583 815 532 815 q 654 778 625 815 q 683 679 683 742 q 674 606 683 643 q 676 582 676 586 q 660 539 676 565 q 603 367 618 475 q 600 342 600 353 q 624 311 600 311 q 757 435 694 311 q 819 717 819 560 q 750 893 819 831 q 593 949 688 949 q 258 723 418 949 q 97 279 97 497 q 166 85 97 150 q 356 19 235 19 q 588 75 478 19 q 728 171 650 107 q 779 214 753 192 q 799 221 790 221 q 829 185 829 221 q 807 142 829 165 q 761 103 794 129 q 604 4 669 33 q 349 -44 493 -44 q 114 38 199 -44 q 29 269 29 119 q 101 571 29 401 q 301 875 181 756 q 597 1014 442 1014 q 799 942 724 1014 q 885 700 885 860 m 619 656 q 622 690 622 678 q 618 717 622 697 q 600 747 614 736 q 569 758 586 758 q 476 704 531 758 q 403 615 432 660 q 352 503 375 569 q 326 409 329 438 q 322 365 322 381 q 336 314 322 329 q 363 303 346 303 q 483 408 400 303 q 579 547 549 492 q 583 578 576 569 q 619 656 613 611 z "},"A":{"ha":768,"x_min":-62,"x_max":746,"o":"m 746 465 q 729 431 746 446 q 651 401 706 410 q 618 192 635 318 q 601 -12 601 65 l 604 -99 q 574 -133 604 -133 q 538 -112 553 -133 q 518 -36 518 -86 q 538 160 518 31 q 576 382 557 289 q 117 264 351 332 l 111 246 l 32 40 q 2 -12 17 3 q -35 -26 -12 -26 q -53 -18 -43 -26 q -62 0 -62 -10 q -32 99 -62 28 q 38 247 -31 103 q 7 242 22 242 q -26 253 -12 242 q -40 281 -40 264 q -4 315 -40 306 q 68 332 32 324 q 388 908 229 690 q 619 1111 535 1111 q 694 1026 674 1111 q 708 889 708 971 q 697 690 708 793 q 668 478 694 663 q 714 486 693 486 q 728 485 719 486 q 740 479 735 485 q 746 465 746 474 m 642 900 q 630 995 642 968 q 600 1022 618 1022 q 375 764 535 1022 q 156 347 233 536 q 589 456 392 411 q 624 690 606 550 q 642 900 642 831 z "},"B":{"ha":1106,"x_min":14,"x_max":1092,"o":"m 1092 835 q 972 655 1092 740 q 654 535 853 569 q 769 496 714 518 q 875 444 825 474 q 958 383 925 415 q 1021 281 1007 335 q 1024 260 1022 269 q 1026 235 1026 250 q 1004 149 1026 188 q 915 59 978 101 q 760 -6 851 17 q 567 -29 669 -29 q 332 13 435 -29 q 269 52 288 31 q 250 100 250 74 q 251 119 250 111 q 263 150 253 128 l 392 485 l 328 485 q 282 492 296 485 q 268 515 268 499 q 315 553 268 543 q 425 564 363 564 l 519 818 q 545 865 533 853 q 578 876 557 876 q 617 843 607 876 q 606 786 622 822 q 586 746 596 765 l 508 572 q 640 588 574 572 q 800 638 707 603 q 976 739 915 679 q 1028 835 1028 789 q 929 932 1028 894 q 624 974 821 974 q 442 956 532 974 q 275 907 353 939 q 121 808 171 865 q 78 706 78 760 q 113 632 78 657 q 138 614 135 617 q 149 583 149 603 q 141 572 149 576 q 115 568 133 568 q 44 610 75 568 q 14 714 14 651 q 60 835 14 778 q 236 956 117 906 q 444 1012 325 993 q 669 1031 563 1031 q 797 1024 739 1031 q 979 978 904 1011 q 1053 929 1025 958 q 1092 835 1092 889 m 953 221 q 900 336 953 279 q 675 458 828 414 q 578 479 626 472 q 474 486 531 486 l 424 365 q 386 268 393 288 q 342 139 361 201 q 336 108 336 119 q 365 66 336 85 q 469 36 393 47 q 571 29 521 29 q 722 43 649 29 q 899 122 836 68 q 953 221 953 169 z "},"C":{"ha":829,"x_min":29,"x_max":797,"o":"m 776 793 q 797 757 797 774 q 788 726 797 746 q 768 684 774 697 q 752 629 763 671 q 738 561 742 588 q 729 500 733 535 q 700 425 722 461 q 670 391 688 404 q 640 378 653 378 q 600 440 600 378 q 657 600 600 478 q 697 697 689 671 q 704 757 704 722 q 672 886 704 833 q 565 949 635 949 q 253 717 410 949 q 97 251 97 486 q 160 46 97 111 q 300 -8 213 -8 q 506 57 406 -8 q 676 210 576 103 q 703 239 689 224 q 743 263 726 263 q 774 226 774 263 q 703 135 774 200 q 544 7 606 46 q 293 -72 418 -72 q 110 -1 179 -72 q 29 242 29 82 q 205 760 29 507 q 569 1014 381 1014 q 713 958 663 1014 q 776 793 764 901 z "},"D":{"ha":1146,"x_min":13,"x_max":1132,"o":"m 1122 647 q 1132 551 1132 600 q 1126 470 1132 508 q 1099 376 1121 432 q 906 119 1042 228 q 642 -8 783 22 q 583 -18 613 -15 q 528 -21 553 -21 q 398 5 449 -21 q 347 64 347 31 q 356 99 347 75 q 375 163 371 142 q 436 365 399 263 q 501 524 458 428 q 568 671 550 631 q 610 780 597 735 q 631 840 622 825 q 679 871 647 871 q 710 855 700 871 q 721 822 721 839 q 694 769 721 808 q 667 721 679 747 q 553 461 613 607 q 456 190 488 300 q 441 132 446 157 q 436 90 436 107 q 451 57 436 65 q 533 43 475 43 q 679 68 608 43 q 874 182 782 104 q 1036 408 992 281 q 1061 553 1061 482 q 953 819 1061 713 q 651 933 838 933 q 273 810 458 933 q 88 557 88 688 q 93 514 88 532 q 135 456 104 478 q 203 426 161 438 q 238 413 224 422 q 251 383 251 404 q 247 375 251 379 q 214 364 236 364 l 192 367 q 60 435 108 386 q 13 550 13 485 q 60 690 13 617 q 229 858 118 782 q 478 972 346 939 q 658 996 568 996 q 731 993 697 996 q 796 982 765 990 q 994 876 910 954 q 1122 647 1093 785 z "},"E":{"ha":793,"x_min":-18,"x_max":878,"o":"m 849 768 q 771 664 822 717 q 661 589 711 603 q 639 586 653 586 q 607 593 619 586 q 594 613 594 600 q 631 661 594 654 q 717 696 692 674 q 770 758 749 725 q 801 826 792 790 q 807 867 807 847 q 774 935 807 911 q 683 960 742 960 q 571 941 636 960 q 426 879 506 922 q 289 781 336 831 q 253 729 264 754 q 242 682 242 704 q 385 590 242 613 q 522 571 453 581 q 559 555 547 567 q 571 524 571 543 q 543 493 571 504 q 500 482 532 489 q 215 390 328 451 q 65 257 101 329 q 47 189 47 222 q 60 140 47 163 q 96 94 72 117 q 192 45 131 64 q 311 26 254 26 q 453 43 381 26 q 579 96 526 60 q 642 147 593 106 q 693 175 674 175 q 721 136 721 175 q 674 76 721 113 q 599 31 639 50 q 492 -10 550 6 q 339 -31 415 -31 q 172 -13 238 -31 q 67 32 107 4 q 1 105 19 64 q -18 183 -18 146 q -6 250 -18 217 q 174 435 35 357 q 276 483 221 461 q 389 521 331 504 q 246 565 307 531 q 165 682 165 611 q 196 774 165 722 q 365 922 244 851 q 596 1013 486 992 q 717 1022 653 1022 q 835 983 793 1022 q 878 878 878 943 q 849 768 878 826 z "},"F":{"ha":792,"x_min":65,"x_max":960,"o":"m 960 851 q 951 833 960 843 q 933 824 943 824 q 872 831 901 824 q 808 842 842 839 q 719 844 775 844 l 682 844 q 549 838 667 844 q 442 835 501 835 q 361 647 419 789 q 269 424 290 476 q 465 435 360 435 l 503 435 q 602 426 568 435 q 636 385 636 417 q 625 358 636 371 q 599 346 614 346 q 564 364 582 346 q 540 368 553 367 q 500 369 528 369 q 372 363 439 369 q 246 344 356 361 q 167 126 190 213 q 150 32 150 67 q 153 14 150 17 q 160 -18 160 0 q 150 -44 160 -35 q 114 -54 140 -54 q 76 -37 88 -54 q 65 6 65 -19 q 79 93 65 39 q 159 337 101 179 q 356 832 217 494 q 283 828 335 832 q 213 824 232 824 q 179 822 192 822 q 136 831 154 822 q 118 863 118 839 q 124 889 118 881 q 171 908 136 908 q 207 901 186 908 q 297 903 253 901 q 386 906 342 904 q 425 924 408 924 q 440 922 435 924 q 457 907 444 919 q 558 910 472 907 q 710 913 644 913 l 778 913 q 908 901 857 913 q 960 851 960 889 z "},"G":{"ha":853,"x_min":0,"x_max":844,"o":"m 844 713 q 840 694 844 704 q 812 640 825 667 q 774 553 799 614 q 743 497 757 513 q 696 475 722 475 q 663 490 674 475 q 651 519 651 504 q 676 583 651 546 q 697 613 693 607 q 740 681 722 646 q 763 749 757 717 q 768 801 768 782 q 731 898 768 864 q 636 932 694 932 q 494 893 572 932 q 256 682 369 829 q 99 389 147 542 q 71 228 71 306 q 93 119 71 165 q 157 46 115 74 q 282 13 207 13 q 440 46 361 13 q 572 132 518 79 q 642 221 608 168 q 694 322 671 268 l 644 319 l 292 308 q 200 317 224 308 q 176 342 176 326 q 191 360 176 356 q 226 365 206 365 l 718 383 q 756 381 746 383 q 783 349 783 372 q 775 319 783 339 q 697 183 735 251 q 606 4 647 94 q 569 -104 569 -74 q 572 -144 572 -129 q 560 -180 572 -168 q 529 -192 549 -192 q 494 -178 507 -192 q 482 -144 482 -165 q 486 -117 482 -129 q 500 -86 490 -104 q 535 -10 518 -47 q 574 64 553 28 q 430 -19 513 14 q 268 -53 347 -53 q 114 -7 179 -53 q 31 91 63 29 q 0 233 0 153 q 8 321 0 281 q 32 408 17 361 q 192 713 86 574 q 393 907 283 832 q 493 961 443 940 q 642 994 572 994 q 771 950 718 994 q 838 788 838 894 q 840 740 838 751 q 844 713 842 728 z "},"H":{"ha":1235,"x_min":-54,"x_max":1372,"o":"m 1372 919 q 1351 868 1372 901 q 1292 763 1315 811 q 1193 553 1229 633 q 1092 303 1128 408 q 1044 96 1044 165 q 1043 71 1043 75 q 1047 36 1043 56 q 1050 13 1050 17 q 1039 -16 1050 -1 q 1004 -31 1028 -31 q 976 -20 986 -31 q 963 6 965 -10 q 960 25 960 22 q 964 57 960 39 q 971 89 968 75 l 994 190 q 890 197 933 196 q 807 199 846 199 q 628 190 710 199 l 596 101 q 586 66 589 82 q 582 43 583 50 q 586 26 582 36 q 590 6 590 17 q 572 -26 590 -12 q 532 -40 554 -40 q 506 -31 517 -40 q 490 11 490 -17 q 500 58 490 31 q 542 186 524 121 l 497 186 q 465 197 475 186 q 454 221 454 207 q 467 251 454 244 q 501 257 481 257 l 568 257 q 660 489 644 443 q 708 725 708 631 q 668 864 708 821 q 576 900 635 900 q 531 895 553 900 q 482 881 510 890 q 251 726 368 840 q 82 504 143 621 q 46 418 60 461 q 32 336 32 375 q 57 261 32 289 q 169 222 92 222 q 270 236 214 222 q 367 272 326 250 q 403 288 386 282 q 433 294 419 294 q 445 288 438 294 q 453 268 453 282 q 418 224 453 246 q 347 191 394 208 q 249 165 300 174 q 151 156 199 156 q -1 202 53 156 q -54 331 -54 249 q -35 431 -54 375 q 174 746 22 590 q 471 951 325 901 q 576 971 529 971 q 724 910 669 971 q 779 739 779 850 q 757 571 779 663 q 704 403 742 506 l 650 254 q 857 264 743 264 q 1015 257 925 264 l 1094 486 q 1190 717 1119 560 q 1292 924 1260 874 q 1320 950 1306 946 q 1354 954 1335 954 q 1367 943 1361 954 q 1372 919 1372 932 z "},"I":{"ha":471,"x_min":-90,"x_max":536,"o":"m 536 947 q 506 907 536 919 q 438 893 486 899 q 335 594 368 690 q 244 346 279 435 q 118 32 204 240 l 163 31 q 194 19 183 31 q 206 -4 206 8 q 190 -26 206 -15 q 143 -37 174 -37 q 104 -37 122 -37 q 69 -39 86 -37 q -56 -27 -22 -39 q -90 7 -90 -15 q -72 32 -90 24 q -25 40 -54 40 l 35 36 q 203 445 96 161 q 357 886 310 729 q 283 894 304 886 q 263 924 263 903 q 286 954 263 946 q 335 963 310 963 l 465 971 q 499 972 489 972 q 526 967 517 972 q 536 947 536 963 z "},"J":{"ha":918,"x_min":-58,"x_max":1071,"o":"m 1071 860 q 1061 839 1071 847 q 1028 831 1051 831 q 1011 832 1015 832 q 988 835 994 835 q 952 823 967 835 q 921 775 938 811 q 825 521 881 690 q 732 275 769 351 q 588 85 674 153 q 451 11 531 39 q 289 -17 372 -17 q 154 3 215 -17 q 47 58 93 24 q -37 160 -11 101 q -58 251 -58 204 q -33 353 -58 306 q 38 438 -8 401 q 127 481 76 467 q 225 494 178 494 q 274 488 247 494 q 319 469 301 481 q 338 440 338 458 q 325 421 338 428 q 297 422 315 415 q 269 433 279 429 q 217 443 243 443 q 82 394 143 443 q 13 258 13 339 q 21 206 13 233 q 126 85 43 131 q 297 43 203 43 q 421 65 360 43 q 531 125 482 88 q 646 260 597 176 q 726 443 685 326 q 801 665 764 554 q 832 757 818 714 q 857 836 853 822 q 659 835 756 836 q 471 833 563 835 l 428 833 q 383 835 392 833 q 344 869 344 842 q 354 894 344 883 q 386 904 364 904 q 426 897 407 900 q 481 894 446 894 q 706 896 589 894 q 932 899 822 897 l 1017 899 q 1056 888 1040 899 q 1071 860 1071 876 z "},"K":{"ha":882,"x_min":-29,"x_max":1026,"o":"m 1026 892 q 919 758 1026 846 q 693 603 838 692 q 499 492 583 536 q 550 428 531 465 q 613 192 594 346 q 629 61 626 75 q 657 -29 642 -8 q 699 -50 672 -50 q 732 -41 719 -50 q 755 -18 744 -32 q 777 7 765 -4 q 800 18 789 18 q 819 9 811 18 q 826 -14 826 0 q 815 -46 826 -31 q 764 -88 800 -67 q 692 -110 728 -110 q 599 -50 632 -110 q 567 67 579 -15 q 528 314 532 297 q 493 399 513 367 q 444 458 474 432 q 343 408 372 422 q 249 367 294 385 l 207 208 q 188 139 197 175 q 179 76 179 103 q 172 38 176 49 q 132 10 161 10 q 103 21 113 10 q 93 50 93 32 q 117 163 93 78 q 167 336 142 249 q 101 313 136 322 q 33 304 65 304 q -11 314 7 304 q -29 349 -29 324 q 15 447 -29 400 q 116 521 60 493 q 233 560 172 549 l 265 646 q 340 829 313 775 q 392 900 367 883 q 414 907 403 907 q 436 897 426 907 q 446 871 446 886 q 426 822 446 851 q 410 799 418 810 q 368 715 397 779 q 333 633 344 661 l 310 568 q 378 559 347 568 q 447 529 410 550 q 742 701 607 613 q 910 829 864 782 q 940 897 933 853 q 978 940 946 940 q 1015 925 1004 940 q 1026 892 1026 910 m 389 492 q 318 508 356 508 q 292 506 311 508 l 271 442 l 389 492 m 214 492 q 89 431 142 475 q 49 379 49 396 q 57 374 49 375 q 68 372 65 372 q 101 375 89 372 q 183 407 136 382 l 214 492 z "},"L":{"ha":953,"x_min":-87,"x_max":1001,"o":"m 968 640 q 769 411 913 513 q 475 272 640 319 q 460 217 469 249 q 439 158 450 186 q 503 131 469 147 q 614 64 550 106 q 658 28 639 47 q 676 -1 676 10 q 647 -29 676 -29 q 604 -10 629 -29 q 533 44 550 33 q 417 103 483 76 q 292 -68 374 -4 q 117 -132 210 -132 q -26 -84 36 -132 q -87 32 -87 -36 q -65 108 -87 69 q 28 188 -36 158 q 178 218 93 218 q 374 185 276 218 q 406 264 393 225 q 325 260 364 260 q 99 317 183 260 q 15 453 15 375 q 31 493 15 481 q 64 506 46 506 q 80 498 72 506 q 88 482 88 490 q 84 463 88 476 q 81 444 81 449 q 126 361 81 397 q 326 310 193 310 q 381 310 353 310 q 418 315 406 314 l 478 578 q 539 763 504 682 q 625 908 581 861 q 715 972 664 950 q 817 993 765 993 q 912 968 872 993 q 976 894 951 943 q 1001 785 1001 846 q 994 715 1001 747 q 968 640 988 682 m 929 783 q 897 892 929 853 q 814 931 865 931 q 646 825 717 931 q 547 586 593 746 q 488 335 525 507 q 797 515 672 392 q 929 783 929 646 m 354 126 q 260 152 304 143 q 176 161 217 161 q 71 147 118 161 q 2 103 24 133 q -19 38 -19 72 q 15 -44 -19 -10 q 117 -78 50 -78 q 217 -52 172 -78 q 296 24 263 -26 q 315 56 303 33 q 354 126 340 100 z "},"M":{"ha":1588,"x_min":31,"x_max":1528,"o":"m 1525 622 q 1503 526 1518 583 q 1471 408 1488 469 q 1444 300 1446 308 q 1419 175 1431 238 q 1412 119 1415 151 q 1408 72 1408 86 q 1419 8 1408 32 q 1456 -17 1429 -17 l 1475 -15 q 1506 -42 1506 -15 q 1503 -56 1506 -51 q 1451 -74 1492 -74 q 1365 -25 1392 -74 q 1344 83 1344 14 q 1354 190 1344 139 q 1397 383 1369 274 q 1446 560 1432 510 q 1460 618 1460 611 q 1456 630 1460 626 q 1449 635 1453 633 q 1436 631 1443 635 q 1407 601 1429 628 q 1301 460 1364 551 q 1144 204 1218 338 q 1090 83 1107 118 q 1024 25 1061 25 q 997 37 1010 25 q 982 69 983 49 q 985 99 982 82 q 996 149 988 117 q 1079 426 1028 272 q 1150 636 1114 531 q 1167 694 1158 665 q 1171 717 1171 710 q 1160 732 1171 732 q 1143 726 1154 732 q 1122 710 1132 719 q 1004 568 1054 635 q 833 319 939 482 l 746 186 q 701 104 725 151 q 650 14 671 40 q 621 -16 635 -7 q 596 -25 607 -25 q 580 -20 588 -25 q 566 -7 572 -15 q 560 22 560 1 q 603 175 560 58 q 657 321 638 267 q 710 478 689 407 q 764 683 738 571 q 778 758 772 722 q 785 829 785 794 q 772 906 785 872 q 731 960 760 939 q 688 979 711 974 q 633 985 664 985 q 534 972 582 985 q 439 936 486 958 q 268 818 339 888 q 132 611 175 728 q 107 493 107 544 q 210 339 107 386 q 517 292 314 292 q 553 285 542 292 q 564 264 564 279 q 532 232 564 239 q 492 229 518 229 q 467 229 479 229 q 443 231 454 229 q 235 254 317 231 q 78 356 132 283 q 42 424 53 389 q 31 499 31 460 q 40 575 31 538 q 61 632 46 596 q 211 851 113 751 q 453 1013 319 961 q 542 1040 501 1031 q 629 1049 583 1049 q 782 999 726 1049 q 849 818 849 939 q 828 664 849 754 q 733 340 786 496 l 688 204 q 765 321 760 313 q 854 457 783 350 q 983 638 918 554 q 1126 790 1076 757 q 1188 813 1161 813 q 1242 739 1242 813 q 1229 668 1242 708 l 1207 600 l 1115 314 l 1081 203 q 1224 443 1165 353 q 1351 626 1269 514 q 1411 696 1383 672 q 1474 725 1444 725 q 1506 713 1492 725 q 1528 653 1528 693 q 1525 622 1528 644 z "},"N":{"ha":1199,"x_min":49,"x_max":1149,"o":"m 1142 618 q 1076 361 1092 425 q 1049 235 1067 322 q 1039 179 1044 215 q 1033 122 1033 143 q 1042 67 1033 88 q 1072 42 1050 47 q 1108 40 1093 42 q 1124 19 1124 38 q 1109 -9 1124 4 q 1067 -22 1094 -22 q 991 17 1013 -22 q 969 117 969 56 q 971 158 969 140 q 979 214 972 175 q 1015 399 993 301 q 1050 546 1043 515 q 1062 598 1057 576 q 1067 625 1067 619 q 1066 633 1067 629 q 1064 642 1065 638 q 1039 629 1054 642 q 1014 604 1029 621 q 842 376 940 521 q 707 158 753 244 q 657 69 668 85 q 596 25 626 25 q 572 29 581 25 q 554 61 554 38 q 572 133 554 86 q 614 232 575 142 q 743 572 681 388 q 810 810 799 733 q 813 842 811 826 q 815 875 815 857 q 786 975 815 940 q 683 1014 753 1014 q 465 933 599 1014 q 239 739 332 853 q 132 493 132 608 q 185 370 132 415 q 326 325 239 325 q 397 333 356 325 q 468 354 439 342 q 492 362 476 357 q 515 367 507 367 q 538 343 538 367 q 501 299 538 317 q 460 283 485 290 q 329 265 392 265 q 135 317 211 265 q 49 485 49 375 q 63 575 49 528 q 261 863 101 715 q 543 1047 403 993 q 622 1071 581 1061 q 697 1081 663 1081 q 826 1036 779 1081 q 881 881 881 985 q 856 722 881 817 q 803 547 832 626 q 728 358 800 540 l 681 239 l 797 415 q 892 549 840 481 q 994 676 954 633 q 1038 714 1017 700 q 1097 732 1067 732 q 1129 721 1117 732 q 1149 667 1149 704 q 1142 618 1149 643 z "},"O":{"ha":947,"x_min":60,"x_max":894,"o":"m 885 729 q 894 629 894 685 q 881 489 894 560 q 842 354 867 418 q 707 119 792 224 q 465 -61 599 -12 q 396 -81 429 -75 q 329 -86 363 -86 q 134 -6 208 -86 q 60 203 60 74 q 69 292 60 247 q 93 376 78 338 q 76 499 76 431 q 171 789 76 653 q 406 979 265 925 q 553 1008 481 1008 q 768 931 676 1008 q 885 729 860 853 m 824 614 q 743 858 824 772 q 554 938 669 938 q 472 926 517 938 q 331 856 397 907 q 219 732 264 804 q 171 623 186 679 q 156 521 156 567 l 186 576 q 310 753 242 678 q 463 867 388 838 q 536 882 501 882 q 588 870 568 882 q 607 844 607 858 q 604 831 606 835 q 583 814 597 817 q 556 811 569 811 q 532 813 547 811 q 511 814 517 814 q 477 809 492 814 q 435 785 463 804 q 324 674 381 747 q 224 514 267 600 q 199 460 206 476 q 172 385 182 421 q 259 263 192 308 q 415 217 326 217 q 543 243 481 217 q 563 249 550 246 q 582 251 576 251 q 601 236 601 251 q 594 208 601 217 q 560 188 583 194 q 487 167 518 174 q 408 161 456 161 q 275 185 335 161 q 143 288 199 215 q 129 194 129 246 q 164 64 129 115 q 225 6 188 29 q 308 -17 263 -17 q 394 -9 354 -17 q 478 18 435 -1 q 674 189 586 68 q 788 408 747 290 q 814 513 804 460 q 824 614 824 565 z "},"P":{"ha":1082,"x_min":32,"x_max":1136,"o":"m 1115 601 q 1022 451 1085 518 q 813 308 943 367 q 554 250 682 250 q 529 250 542 250 q 504 253 513 253 l 457 107 q 449 78 453 96 q 446 49 446 61 q 451 22 446 36 q 456 -1 456 7 q 408 -36 450 -36 q 377 -21 392 -36 q 363 21 363 -6 q 371 72 363 40 q 385 125 379 104 l 432 269 q 408 293 413 279 q 404 328 404 307 q 435 344 404 344 q 451 340 443 344 l 508 486 q 596 713 551 599 q 650 832 606 738 q 683 877 664 864 q 724 890 701 890 q 748 881 736 890 q 760 853 760 871 q 753 823 760 840 q 728 782 746 806 q 657 658 693 733 q 608 546 635 614 q 528 322 554 414 q 597 315 557 315 q 671 324 631 315 q 910 444 801 351 q 1049 643 1019 538 q 1058 710 1058 676 q 965 881 1058 817 q 725 946 872 946 q 611 936 665 946 q 417 876 519 921 q 240 769 315 831 q 151 676 185 725 q 118 594 118 628 q 142 518 118 547 q 304 464 186 464 q 347 460 329 464 q 364 438 364 456 q 342 408 364 415 q 278 401 321 401 q 76 475 140 401 q 32 597 32 526 q 64 697 32 646 q 136 782 89 738 q 323 906 206 847 q 556 990 440 964 q 631 1003 585 997 q 725 1010 678 1010 q 822 1003 778 1010 q 917 979 867 997 q 1079 874 1022 943 q 1136 713 1136 804 q 1115 601 1136 660 z "},"Q":{"ha":933,"x_min":50,"x_max":885,"o":"m 885 600 q 779 235 885 418 q 496 -44 667 40 q 607 -143 549 -114 q 697 -164 650 -164 q 776 -144 750 -164 q 810 -110 799 -119 q 836 -101 822 -101 q 856 -110 847 -101 q 864 -126 864 -118 q 808 -192 864 -161 q 686 -222 753 -222 q 547 -186 614 -222 q 429 -69 471 -144 q 321 -86 376 -86 q 133 -17 207 -86 q 50 203 50 63 q 59 292 50 247 q 83 376 68 338 q 71 437 75 403 q 67 499 67 471 q 212 851 67 694 q 540 1007 357 1007 q 718 960 639 1007 q 826 853 786 919 q 870 738 856 806 q 885 600 885 671 m 814 614 q 742 849 814 761 q 550 938 669 938 q 276 818 400 938 q 146 521 146 692 q 357 810 249 718 q 519 882 443 882 q 574 872 550 882 q 597 844 597 861 q 581 817 597 817 q 560 819 578 817 q 526 822 542 822 q 447 801 486 822 q 336 704 394 774 q 249 578 293 653 q 163 385 189 476 q 177 347 168 365 q 203 307 186 328 q 400 218 275 218 q 469 224 436 218 q 533 243 503 229 q 564 251 553 251 q 582 247 572 251 q 592 236 592 243 q 538 181 592 200 q 399 161 485 161 q 265 185 325 161 q 133 288 189 215 q 122 237 125 263 q 119 182 119 211 q 179 32 119 86 q 321 -18 235 -18 q 356 -17 343 -18 q 392 -8 368 -15 q 358 28 381 11 q 318 46 336 46 q 283 42 307 46 q 247 38 260 38 q 233 64 233 38 q 263 99 233 86 q 328 113 292 113 q 401 83 367 113 q 458 14 431 58 q 713 264 607 81 q 814 614 814 440 z "},"R":{"ha":1094,"x_min":38,"x_max":1117,"o":"m 1117 731 q 991 477 1117 600 q 672 300 865 354 l 722 226 q 839 60 801 110 q 913 -21 882 3 q 946 -41 931 -35 q 976 -47 961 -47 q 1004 -44 985 -47 q 1036 -64 1036 -40 q 1020 -91 1036 -79 q 975 -103 1004 -103 q 915 -90 951 -103 q 800 -3 857 -68 q 696 140 767 36 q 603 289 643 221 q 560 282 568 283 q 531 282 539 282 q 463 289 501 282 l 414 154 q 396 103 407 136 q 381 50 385 71 l 376 10 q 328 -19 368 -19 q 305 -11 315 -19 q 294 18 294 -3 q 301 53 294 35 l 394 304 q 317 349 347 318 q 276 415 286 379 q 272 447 272 431 q 299 520 272 489 q 378 551 326 551 q 429 544 403 551 q 479 517 456 536 q 567 717 524 613 q 622 827 610 821 q 642 833 633 833 q 657 829 650 833 q 678 799 678 818 q 649 721 678 782 q 535 474 583 586 q 594 413 567 446 q 639 350 617 385 q 908 479 783 378 q 1050 721 1050 594 q 955 889 1050 829 q 704 949 860 949 q 591 940 643 949 q 468 906 539 931 q 286 814 368 871 q 178 719 224 771 q 128 647 143 681 q 114 583 114 613 q 135 519 114 550 q 170 483 150 497 q 197 458 190 468 q 204 439 204 449 q 176 424 204 424 q 144 428 157 424 q 111 449 132 433 q 54 508 71 475 q 38 578 38 542 q 51 649 38 611 q 71 689 57 665 q 250 865 129 788 q 470 965 347 926 q 708 1004 593 1004 q 1024 914 914 1004 q 1117 731 1117 838 m 571 338 q 510 410 547 376 l 482 340 q 539 335 506 335 q 554 335 546 335 q 571 338 565 338 m 456 460 q 390 489 426 489 q 342 446 342 489 q 365 395 342 421 q 417 360 388 369 l 456 460 z "},"S":{"ha":732,"x_min":-108,"x_max":829,"o":"m 813 701 q 770 596 794 640 q 728 540 746 551 q 696 528 711 528 q 666 542 678 528 q 654 574 654 556 q 665 611 654 592 q 689 644 667 613 q 739 731 725 694 q 753 799 753 767 q 714 886 753 850 q 572 932 664 932 q 459 917 529 932 q 308 860 389 903 q 178 756 217 811 q 146 668 146 711 q 167 595 146 635 q 265 492 189 556 q 411 379 317 449 q 546 271 506 310 q 594 209 575 242 q 614 143 614 176 q 574 56 614 100 q 484 -11 539 17 q 367 -50 429 -39 q 247 -61 304 -61 q 60 -31 142 -61 q -49 33 -7 -6 q -92 97 -76 61 q -108 165 -108 132 q -100 214 -108 190 q -42 267 -81 267 q -10 242 -10 267 q -23 208 -10 232 q -36 161 -36 185 q -2 81 -36 119 q 103 18 32 43 q 171 1 133 7 q 249 -6 208 -6 q 415 24 339 -6 q 525 108 490 54 q 542 158 542 136 q 519 211 542 186 q 467 257 504 229 q 235 430 349 343 q 90 592 122 517 q 79 624 86 600 q 72 671 72 649 q 108 779 72 725 q 250 907 156 851 q 415 976 331 954 q 571 997 500 997 q 709 974 653 997 q 794 911 765 950 q 821 857 813 888 q 829 799 829 826 q 824 749 829 774 q 813 701 819 725 z "},"T":{"ha":707,"x_min":-192,"x_max":967,"o":"m 967 907 q 949 881 967 892 q 913 871 932 871 q 880 876 892 871 q 859 894 868 882 q 846 907 850 906 q 804 914 835 914 l 631 914 q 536 738 582 836 q 449 535 497 653 l 364 325 q 301 176 332 250 q 271 56 271 103 q 260 -13 271 4 q 222 -31 249 -31 q 193 -22 204 -31 q 175 22 175 -10 q 201 115 175 53 q 308 361 254 238 q 528 904 411 604 q 401 899 463 904 q 325 894 339 894 l 14 879 q -151 897 -111 879 q -192 943 -192 914 q -163 977 -192 963 q -94 992 -135 992 q -28 984 -47 992 q -10 961 -10 976 q -17 942 -10 953 l 24 942 l 56 943 l 192 949 q 464 965 221 949 q 756 974 585 974 q 869 969 824 974 q 947 947 914 965 q 967 907 967 935 z "},"U":{"ha":1217,"x_min":28,"x_max":1244,"o":"m 1244 839 q 1232 807 1244 828 q 1193 736 1206 763 q 1099 488 1142 625 q 1032 138 1032 278 q 1047 39 1032 85 q 1097 -15 1061 -7 q 1114 -17 1103 -17 q 1138 -15 1131 -15 q 1156 -36 1156 -15 q 1140 -56 1156 -49 q 1106 -62 1124 -62 q 1001 -6 1040 -62 q 961 136 961 50 q 974 263 961 193 q 1013 439 986 333 q 800 125 897 242 q 660 -3 726 38 q 586 -29 615 -29 q 514 -3 535 -29 q 493 68 493 22 q 501 131 493 96 q 524 207 510 167 l 683 650 q 721 769 713 728 q 729 839 729 810 q 710 911 729 885 q 611 953 679 953 q 562 949 588 953 q 501 933 536 944 q 281 810 382 894 q 117 596 168 717 q 93 494 93 542 q 129 400 93 436 q 238 364 165 364 q 307 369 276 364 q 369 390 338 375 q 400 404 389 400 q 432 413 419 413 q 460 392 460 413 q 393 333 460 361 q 238 306 326 306 q 76 360 131 306 q 28 492 28 408 q 35 557 28 526 q 57 624 42 588 q 226 840 107 739 q 478 982 344 940 q 619 1006 549 1006 q 743 972 699 1006 q 796 846 796 933 q 787 764 796 808 q 751 650 778 719 l 610 275 q 572 158 583 204 q 561 78 561 113 q 572 47 561 63 q 594 31 582 31 q 658 58 624 31 q 742 146 693 86 q 903 374 819 240 q 1031 596 967 476 q 1108 749 1064 660 l 1154 840 q 1173 863 1160 853 q 1207 874 1186 874 q 1232 863 1219 874 q 1244 839 1244 851 z "},"V":{"ha":1153,"x_min":0,"x_max":1375,"o":"m 1369 878 q 1344 865 1361 865 q 1332 868 1339 865 q 1310 875 1315 875 q 1289 870 1300 875 q 1261 851 1278 865 q 1164 753 1213 811 q 1032 564 1101 679 q 856 238 946 422 q 776 63 815 150 q 704 -18 736 -18 q 671 -3 682 -18 q 660 36 660 13 q 668 108 660 61 q 692 251 685 200 q 717 472 707 356 q 728 672 728 588 q 717 811 728 763 q 688 897 707 860 q 632 968 664 943 q 528 1001 589 1001 q 500 1001 515 1001 q 456 990 485 1000 q 251 868 351 961 q 94 644 142 768 q 80 595 85 618 q 75 547 75 572 q 127 427 75 471 q 268 383 179 383 q 307 379 292 383 q 322 356 322 375 q 306 331 322 338 q 275 325 290 325 q 72 384 143 325 q 0 535 0 443 q 13 626 0 581 q 46 708 26 671 q 163 868 90 793 q 336 1001 240 949 q 439 1045 388 1031 q 529 1060 490 1060 q 635 1036 588 1060 q 700 986 671 1018 q 768 846 749 935 q 788 647 788 757 q 785 556 788 589 q 776 440 783 524 l 750 163 l 881 418 q 996 622 950 549 q 1179 857 1088 768 q 1271 925 1229 906 q 1318 938 1297 938 q 1349 933 1335 938 q 1369 919 1363 928 q 1375 896 1375 910 q 1369 878 1375 885 z "},"W":{"ha":1597,"x_min":-8,"x_max":1819,"o":"m 1819 900 q 1805 877 1819 885 q 1742 863 1790 869 q 1708 842 1722 853 q 1675 811 1694 831 q 1546 639 1610 747 q 1426 408 1492 549 q 1297 126 1361 267 q 1238 19 1263 53 q 1140 -43 1192 -43 q 1046 64 1071 -43 q 1032 240 1032 124 q 1037 384 1032 322 q 1054 521 1042 446 q 994 465 1019 492 q 942 401 969 439 q 848 264 896 342 q 760 103 800 186 q 721 18 740 60 q 660 -22 697 -22 q 625 -5 640 -22 q 610 50 610 13 q 621 93 610 64 q 647 167 639 139 q 711 346 664 219 q 804 658 776 521 q 817 774 817 721 q 756 955 817 892 q 579 1018 696 1018 q 224 858 392 1018 q 65 571 65 708 q 140 444 65 482 q 318 414 201 414 q 450 435 381 414 q 508 444 483 444 q 535 440 529 444 q 542 425 542 435 q 458 375 542 394 q 293 356 375 356 q 61 417 139 356 q -8 563 -8 471 q 171 894 -8 725 q 582 1076 364 1076 q 822 982 743 1076 q 890 764 890 901 q 888 724 890 746 q 885 689 886 701 q 838 496 874 613 q 768 301 808 401 l 704 140 q 767 243 744 204 q 813 318 790 282 q 935 497 878 422 q 993 568 968 540 q 1067 633 1035 613 q 1101 647 1088 647 q 1139 635 1126 647 q 1151 607 1151 624 q 1140 553 1151 601 q 1121 461 1129 504 q 1107 342 1113 418 q 1101 201 1101 267 q 1101 150 1101 172 q 1107 94 1101 128 q 1144 19 1119 19 q 1207 94 1172 19 q 1331 369 1268 232 q 1463 633 1411 544 q 1617 844 1536 761 q 1696 910 1663 892 q 1761 929 1729 929 q 1803 922 1786 929 q 1819 900 1819 915 z "},"X":{"ha":1181,"x_min":14,"x_max":1367,"o":"m 1367 965 q 1354 939 1367 951 q 1328 926 1342 926 q 1313 931 1322 926 q 1297 935 1303 935 q 1128 822 1257 935 q 847 529 986 699 q 914 269 878 369 q 1024 81 961 139 q 1122 44 1063 46 q 1181 18 1181 42 q 1171 -6 1181 3 q 1118 -19 1154 -19 q 919 99 999 -19 q 794 461 839 218 q 585 204 672 322 q 481 56 539 142 q 433 -3 446 4 q 406 -11 421 -11 q 383 -3 394 -11 q 372 21 372 6 q 408 97 372 44 q 590 329 454 163 l 774 553 q 740 699 753 649 q 718 778 726 749 q 617 965 681 904 q 483 1021 560 1021 q 331 967 408 1021 q 167 792 235 901 q 94 571 94 675 q 121 449 94 493 q 179 397 142 413 q 215 388 193 390 q 257 385 236 385 q 302 388 286 385 q 324 392 318 392 q 338 393 331 393 q 363 379 356 393 q 365 367 365 375 q 347 342 365 351 q 299 325 329 332 q 233 318 268 318 q 75 385 136 318 q 14 561 14 451 q 86 783 14 661 q 242 974 151 893 q 367 1056 306 1031 q 493 1081 428 1081 q 676 1000 604 1081 q 831 614 774 890 q 1158 934 1063 853 q 1303 1015 1253 1015 q 1351 1001 1335 1015 q 1367 965 1367 986 z "},"Y":{"ha":1197,"x_min":24,"x_max":1206,"o":"m 1206 757 q 1188 693 1206 740 q 1157 614 1169 646 q 1081 346 1128 536 q 1001 14 1028 135 q 965 -161 974 -107 q 956 -242 956 -215 q 960 -287 956 -260 q 965 -318 965 -314 q 953 -340 965 -329 q 928 -350 942 -350 q 892 -333 903 -350 q 882 -283 882 -315 q 890 -210 882 -253 q 901 -144 897 -167 q 960 138 931 24 q 1001 303 989 253 l 1025 400 l 972 301 q 853 114 918 201 q 719 -28 774 7 q 685 -45 706 -37 q 646 -53 665 -53 q 596 -34 619 -53 q 562 15 572 -15 q 551 85 551 44 q 564 185 551 126 q 589 281 571 218 q 633 420 607 343 q 686 575 660 497 q 719 751 719 676 q 668 883 719 842 q 551 918 625 918 q 429 896 493 918 q 268 801 343 865 q 146 647 193 738 q 107 504 107 571 q 174 356 107 413 q 356 300 242 300 q 465 314 400 300 q 508 323 497 321 q 524 324 519 325 q 540 304 540 318 q 507 268 540 286 q 456 249 486 257 q 338 235 404 235 q 128 297 218 235 q 24 489 24 369 q 31 558 24 525 q 57 632 39 590 q 216 844 110 754 q 451 968 322 935 q 567 985 513 985 q 727 928 668 985 q 786 760 786 872 q 776 661 786 714 q 733 510 765 608 q 667 311 700 411 q 635 201 649 258 q 617 89 617 129 q 629 33 617 54 q 663 11 642 11 q 713 38 685 11 q 768 100 732 56 q 896 289 832 178 q 1001 492 947 378 q 1081 668 1036 564 q 1117 757 1099 713 q 1176 800 1140 800 q 1197 786 1189 800 q 1206 757 1206 772 z "},"Z":{"ha":975,"x_min":-54,"x_max":1115,"o":"m 1115 938 q 1101 901 1115 915 q 1042 882 1082 882 q 824 560 985 803 q 626 285 703 378 q 394 60 515 150 q 524 22 456 46 q 683 -11 621 -11 q 813 17 772 -11 q 845 39 828 28 q 875 50 863 50 q 901 41 892 50 q 910 18 910 32 q 838 -46 910 -14 q 688 -78 765 -78 q 536 -51 625 -78 q 329 10 343 7 q 235 -29 267 -17 q 94 -56 163 -56 q -11 -28 32 -56 q -54 32 -54 -1 q -21 88 -54 65 q 118 118 25 118 q 226 103 176 118 q 306 81 276 89 q 451 196 383 132 q 661 435 553 292 q 946 869 794 611 q 850 865 893 865 q 784 867 817 865 q 685 876 751 868 q 449 907 578 889 q 331 919 360 919 q 313 919 321 919 q 284 915 299 917 q 251 901 269 913 q 233 864 233 889 q 256 819 233 838 q 293 797 283 803 q 318 763 318 782 q 285 739 318 739 q 238 750 264 739 q 192 776 213 761 q 148 824 161 799 q 135 876 135 849 q 142 913 135 896 q 161 942 149 929 q 220 974 182 963 q 322 985 258 985 q 385 982 363 985 q 421 978 407 979 q 806 932 613 954 q 906 936 864 932 q 989 953 949 940 q 1022 972 1006 967 q 1051 978 1038 978 q 1097 966 1078 978 q 1115 938 1115 954 m 239 36 q 167 53 197 49 q 110 58 138 58 q 51 52 74 58 q 29 31 29 46 q 51 6 29 15 q 99 -4 72 -4 q 158 4 126 -4 q 239 36 189 13 z "},"[":{"ha":544,"x_min":0,"x_max":551,"o":"m 551 986 q 539 962 551 968 q 504 956 526 956 q 472 957 482 956 q 452 958 463 958 q 438 958 442 958 q 315 947 376 958 q 169 425 218 629 q 76 -83 111 178 q 122 -76 82 -82 q 172 -71 163 -71 l 226 -71 q 282 -87 264 -71 q 294 -115 294 -99 q 282 -140 294 -135 q 251 -146 269 -146 l 207 -143 l 150 -140 q 100 -143 133 -140 q 47 -146 67 -146 l 29 -146 q 0 -122 0 -146 q 17 3 0 -104 q 42 154 33 111 q 128 544 79 350 q 240 944 182 764 q 320 1005 253 983 q 500 1026 388 1026 q 543 1011 531 1026 q 551 986 551 1000 z "},"\\":{"ha":532,"x_min":108,"x_max":410,"o":"m 410 -311 q 406 -354 410 -342 q 367 -382 396 -382 q 339 -374 349 -382 q 325 -335 325 -361 q 326 -317 325 -326 q 330 -297 328 -308 q 332 -269 332 -285 q 332 -246 332 -254 q 324 -150 332 -208 q 283 150 292 99 q 233 371 271 219 q 115 846 151 699 q 110 880 113 865 q 108 899 108 894 q 118 940 108 925 q 156 956 128 956 q 190 950 179 956 q 200 925 200 944 q 198 899 200 914 q 196 883 196 885 q 203 828 196 861 q 222 749 210 796 q 318 360 278 542 q 368 103 346 232 q 388 -24 381 28 q 402 -167 394 -75 q 410 -311 410 -258 z "},"]":{"ha":576,"x_min":7,"x_max":558,"o":"m 558 1003 q 542 877 558 985 q 517 726 525 769 q 467 483 489 581 q 353 49 421 279 q 314 -79 318 -69 q 168 -140 293 -125 q 58 -146 119 -146 q 17 -133 28 -146 q 7 -106 7 -119 q 19 -81 7 -87 q 54 -75 32 -75 q 85 -76 76 -75 q 102 -78 93 -78 q 121 -78 111 -78 q 243 -67 182 -78 q 389 456 340 251 q 482 964 447 703 q 436 957 476 963 q 386 951 396 951 l 332 951 q 276 968 294 951 q 264 996 264 979 q 276 1021 264 1015 q 307 1026 289 1026 l 351 1024 l 408 1021 q 458 1024 425 1021 q 511 1026 492 1026 l 529 1026 q 558 1003 558 1026 z "},"^":{"ha":746,"x_min":482,"x_max":778,"o":"m 778 594 q 769 574 778 583 q 749 565 761 565 q 717 588 735 565 q 690 624 700 611 l 621 707 l 560 629 q 531 590 546 610 q 500 571 517 571 q 482 600 482 571 q 503 649 482 617 q 568 733 524 682 q 592 757 579 746 q 619 774 611 774 q 692 715 643 774 q 763 626 747 647 q 778 594 778 604 z "},"_":{"ha":683,"x_min":71,"x_max":564,"o":"m 549 -136 q 508 -146 535 -146 q 456 -144 482 -146 q 406 -142 429 -143 l 279 -146 q 201 -149 250 -146 q 142 -153 151 -153 q 96 -149 110 -153 q 71 -119 71 -140 q 77 -94 71 -108 q 100 -79 83 -79 l 183 -85 l 282 -85 l 329 -85 l 347 -85 l 364 -85 q 432 -85 397 -85 q 468 -79 457 -81 l 532 -72 q 564 -104 564 -72 q 549 -136 564 -125 z "},"`":{"ha":801,"x_min":332,"x_max":549,"o":"m 549 631 q 526 606 549 606 q 512 609 521 606 q 490 619 503 613 l 399 676 q 369 697 386 685 q 344 721 353 710 q 332 754 332 738 q 357 782 332 782 q 375 775 367 782 q 390 758 378 774 q 447 712 411 736 q 514 674 482 688 q 532 665 522 669 q 549 631 549 654 z "},"a":{"ha":593,"x_min":10,"x_max":625,"o":"m 625 350 q 560 213 625 319 q 464 72 507 125 q 413 18 438 39 q 342 -14 371 -17 q 303 5 319 -14 q 288 60 288 24 q 296 108 288 81 q 204 25 224 39 q 94 -19 146 -19 q 34 8 58 -19 q 10 89 10 36 q 13 128 10 110 q 24 178 15 147 q 96 343 47 260 q 215 497 150 436 q 274 539 246 525 q 340 553 303 553 q 417 510 390 553 q 439 415 439 474 l 436 360 l 438 335 q 421 279 438 313 q 385 206 386 210 q 364 151 372 174 q 350 83 350 113 q 357 50 350 50 q 398 78 368 50 q 440 126 428 107 q 506 226 472 171 q 564 335 546 292 q 575 358 571 353 q 604 374 586 374 q 625 350 625 374 m 356 313 q 374 415 374 363 q 363 472 374 451 q 331 493 353 493 q 164 339 264 493 q 64 83 64 185 q 71 47 64 63 q 99 31 78 31 q 238 135 146 31 q 356 313 329 239 z "},"b":{"ha":475,"x_min":18,"x_max":450,"o":"m 450 342 q 379 103 450 222 q 204 -29 300 -29 q 117 1 161 -29 q 69 38 85 26 q 36 65 42 60 q 18 104 18 83 q 22 139 18 119 q 49 235 26 158 q 151 535 99 399 q 228 715 190 638 q 264 786 249 758 q 292 826 279 814 q 318 838 306 838 q 349 800 349 838 q 319 726 349 776 q 283 665 301 696 q 211 506 253 610 q 156 350 178 421 q 231 428 193 396 q 343 481 294 481 q 415 451 388 481 q 450 342 450 415 m 371 251 q 385 342 385 306 q 369 397 385 379 q 332 415 354 415 q 196 314 271 415 q 93 119 131 226 q 139 63 110 88 q 206 31 175 31 q 285 71 246 31 q 371 251 339 128 z "},"c":{"ha":514,"x_min":14,"x_max":528,"o":"m 528 313 q 521 278 528 299 q 490 217 514 258 q 343 40 431 113 q 151 -42 244 -42 q 51 -1 88 -42 q 14 115 14 40 q 29 218 14 167 q 139 435 64 342 q 307 539 222 539 q 399 490 367 539 q 426 386 426 449 q 397 307 401 318 q 335 242 368 242 q 308 253 318 242 q 299 278 299 264 q 313 328 299 296 q 344 399 328 361 q 346 408 346 401 q 346 419 346 415 q 339 456 346 443 q 303 474 328 474 q 174 364 249 474 q 85 188 107 267 q 74 110 74 146 q 92 38 74 65 q 149 11 110 11 q 274 60 207 11 q 406 199 340 108 q 458 296 422 222 q 501 342 481 342 q 528 313 528 342 z "},"d":{"ha":569,"x_min":25,"x_max":607,"o":"m 597 708 q 485 381 513 468 q 433 193 465 318 q 417 125 425 161 q 404 58 404 69 q 422 26 404 26 q 447 40 432 26 q 475 69 463 54 q 521 137 504 107 q 556 199 538 167 q 567 215 561 208 q 582 222 574 222 q 593 218 586 222 q 600 199 600 211 q 588 157 600 185 q 539 79 568 119 q 476 6 510 39 q 447 -19 463 -8 q 414 -29 431 -29 q 369 -5 389 -29 q 349 71 349 19 q 356 122 349 99 q 306 65 332 93 q 263 21 288 46 q 194 -29 228 -11 q 118 -54 150 -54 q 78 -43 97 -54 q 47 -10 60 -32 q 29 33 33 13 q 25 79 25 54 q 30 133 25 107 q 42 182 35 158 q 132 372 71 282 q 256 501 189 457 q 303 526 281 518 q 349 535 325 535 q 405 519 382 535 q 444 465 428 503 l 468 536 l 508 656 l 533 735 q 548 766 538 750 q 575 782 558 782 q 607 750 607 782 q 603 725 607 738 q 597 708 599 713 m 374 272 q 397 381 397 332 q 382 446 397 422 q 343 469 367 469 q 294 457 319 469 q 264 438 276 449 q 175 339 218 401 q 94 174 124 264 q 78 78 78 121 q 128 -4 78 -4 q 186 19 153 -4 q 281 115 231 51 q 374 272 343 193 z "},"e":{"ha":421,"x_min":29,"x_max":410,"o":"m 410 335 q 326 124 410 249 q 147 -14 235 -14 q 65 21 96 -14 q 29 150 29 63 q 70 353 29 249 q 163 507 111 457 q 200 531 181 524 q 233 539 219 539 q 279 521 260 539 q 307 444 307 494 q 258 285 307 353 q 135 217 208 217 q 103 221 119 217 q 97 185 100 204 q 94 150 94 165 q 108 76 94 104 q 153 47 121 47 q 266 138 201 47 q 350 317 331 228 q 360 350 356 340 q 386 371 369 371 q 410 335 410 371 m 246 436 q 224 472 246 472 q 167 410 200 472 q 117 282 135 349 q 131 276 124 278 q 144 275 139 275 q 216 328 186 275 q 246 436 246 381 z "},"f":{"ha":401,"x_min":-14,"x_max":415,"o":"m 415 364 q 367 281 415 338 q 283 200 324 231 q 290 119 290 167 q 216 -156 290 -25 q 61 -287 142 -287 q 6 -248 26 -287 q -14 -149 -14 -208 q 7 40 -14 -67 q 40 178 18 99 q 22 204 29 189 q 15 244 15 219 q 88 331 15 300 l 107 385 q 204 643 175 572 q 250 757 247 747 q 265 817 263 810 q 315 850 281 850 q 347 821 347 850 q 333 772 347 801 q 262 615 314 731 q 186 428 210 499 l 156 338 q 222 311 196 333 q 263 256 249 289 q 314 304 288 275 q 358 364 340 333 q 374 383 367 378 q 389 388 382 388 q 406 385 401 385 q 415 364 415 385 m 210 228 q 188 267 203 251 q 142 286 168 286 l 119 210 q 210 228 175 210 m 228 171 q 126 149 182 149 q 100 150 108 149 q 60 1 78 89 q 42 -143 42 -87 q 49 -210 42 -185 q 78 -236 56 -236 q 169 -140 118 -236 q 231 113 231 -26 q 231 149 231 131 q 228 171 228 164 z "},"g":{"ha":478,"x_min":-35,"x_max":449,"o":"m 442 294 l 440 235 q 429 178 440 215 q 404 79 411 119 q 371 -96 375 -81 q 306 -253 346 -196 q 135 -349 238 -349 q 18 -311 64 -349 q -35 -193 -35 -268 q -24 -130 -35 -150 q 1 -110 -12 -110 q 33 -132 33 -110 q 30 -163 33 -144 q 26 -196 26 -182 q 28 -215 26 -210 q 62 -274 35 -250 q 131 -299 89 -299 q 299 -156 242 -299 q 343 118 343 -43 q 263 29 308 67 q 139 -25 197 -25 q 61 12 89 -25 q 33 110 33 49 q 128 384 33 250 q 326 518 222 518 q 424 468 393 518 q 449 363 449 428 q 442 294 449 325 m 385 378 q 321 456 385 456 q 170 333 251 456 q 89 103 89 210 q 104 45 89 67 q 147 24 119 24 q 193 38 169 24 q 277 116 235 63 q 327 212 319 169 q 338 261 335 254 q 374 296 347 285 q 381 338 376 311 q 385 378 385 365 z "},"h":{"ha":532,"x_min":10,"x_max":546,"o":"m 546 361 q 543 339 546 350 q 525 293 540 328 q 453 139 489 203 q 339 -10 393 31 q 290 -29 314 -29 q 255 -12 268 -29 q 242 33 242 6 q 256 111 242 54 q 292 250 276 186 q 301 288 293 251 q 308 325 308 324 l 306 335 q 290 318 297 326 q 235 247 272 297 q 117 72 149 119 q 35 -7 63 -7 q 18 1 26 -7 q 10 31 10 10 q 25 91 10 43 q 50 174 40 139 q 131 425 60 208 q 183 575 154 499 q 208 651 201 624 q 222 738 218 719 q 257 779 225 756 q 294 796 281 796 q 317 765 317 796 q 310 735 317 758 q 288 674 304 713 q 249 575 264 617 q 197 432 242 554 q 158 318 165 343 l 113 167 l 149 218 q 276 379 229 332 q 338 417 314 417 q 364 405 354 417 q 374 372 374 393 q 368 320 374 351 q 335 182 363 289 q 322 136 328 158 q 308 61 313 99 l 308 51 q 311 45 310 47 q 314 42 313 43 q 335 53 322 42 q 368 99 349 65 q 428 211 397 149 q 482 333 449 254 q 497 365 488 347 q 525 383 506 383 q 546 361 546 383 z "},"i":{"ha":328,"x_min":29,"x_max":328,"o":"m 236 510 q 217 463 236 483 q 178 443 199 443 q 147 456 161 443 q 132 490 132 468 q 149 535 132 517 q 190 553 165 553 q 223 544 210 553 q 236 510 236 535 m 321 276 q 266 171 306 233 q 194 69 226 108 q 133 10 161 31 q 82 -11 104 -11 q 42 13 54 -11 q 29 76 29 38 q 33 136 29 108 q 44 188 38 164 q 111 393 68 296 q 140 437 124 421 q 172 453 156 453 q 194 443 185 453 q 204 419 204 433 q 197 394 204 410 q 175 349 185 369 q 131 240 154 304 q 94 126 107 176 q 88 76 88 96 q 101 47 88 47 q 131 68 114 47 q 211 190 169 113 q 268 303 239 246 q 285 325 274 314 q 307 336 296 336 q 328 311 328 336 q 321 276 328 296 z "},"j":{"ha":288,"x_min":-444,"x_max":324,"o":"m 324 489 q 311 449 324 465 q 260 426 294 426 q 217 445 231 426 q 203 483 203 464 q 219 519 203 504 q 263 533 235 533 q 308 520 292 533 q 324 489 324 507 m 260 388 q 214 307 215 308 q 185 225 199 275 q 126 -4 161 146 q 97 -103 115 -50 q -78 -367 35 -282 q -256 -429 -161 -429 q -392 -377 -340 -429 q -444 -253 -444 -325 q -413 -173 -444 -210 q -340 -136 -382 -136 q -308 -147 -321 -136 q -296 -174 -296 -158 q -328 -204 -296 -204 l -347 -203 q -369 -217 -360 -203 q -379 -254 -379 -232 q -345 -340 -379 -304 q -257 -375 -311 -375 q -169 -357 -211 -375 q -46 -253 -100 -328 q 68 17 28 -153 q 133 299 100 157 q 231 438 174 438 q 268 411 268 438 q 260 388 268 403 z "},"k":{"ha":664,"x_min":18,"x_max":665,"o":"m 653 317 q 665 292 665 308 q 660 267 665 279 q 642 233 656 254 q 546 108 593 160 q 404 0 474 29 q 315 -19 356 -19 q 203 44 243 -19 q 167 150 176 86 q 139 183 146 160 q 102 65 113 139 q 57 -8 92 -8 q 33 -1 43 -8 q 18 38 18 10 q 25 87 18 51 q 64 235 32 122 q 113 392 76 276 q 165 549 150 508 q 237 735 217 681 q 269 834 257 790 q 289 892 282 878 q 333 924 306 924 q 360 916 349 924 q 371 885 371 908 q 343 796 371 857 q 269 636 306 715 q 164 346 214 507 q 303 507 244 453 q 479 594 399 594 q 565 560 536 594 q 594 464 594 525 q 579 374 594 426 q 483 225 551 286 q 367 160 426 174 q 322 153 347 156 q 244 150 296 150 q 270 72 244 101 q 339 42 296 42 q 421 68 376 42 q 546 189 503 117 q 599 292 572 240 q 619 315 610 308 q 638 321 628 321 q 653 317 644 321 m 532 461 q 464 529 532 529 q 297 424 394 529 q 164 231 211 331 q 181 232 169 232 q 242 206 218 232 q 276 204 254 204 q 478 297 408 204 q 532 461 532 369 z "},"l":{"ha":446,"x_min":40,"x_max":446,"o":"m 446 799 q 422 651 446 733 q 325 415 388 536 q 129 144 240 253 q 126 96 126 122 q 134 40 126 56 q 154 25 142 25 q 192 46 169 25 q 285 171 233 85 q 356 310 326 240 q 368 335 365 331 q 394 349 379 349 q 415 321 415 349 q 404 281 415 303 q 342 163 378 222 q 263 47 300 93 q 186 -21 225 1 q 129 -39 154 -39 q 83 -11 101 -39 q 58 103 58 26 q 40 129 40 110 q 57 176 40 160 q 107 416 72 290 q 190 656 142 542 q 324 863 260 815 q 349 877 335 871 q 374 883 363 883 q 428 863 410 883 q 446 799 446 842 m 389 781 q 372 818 389 818 q 328 781 356 818 q 256 644 294 735 q 176 428 210 538 q 132 229 143 319 q 314 533 232 351 q 389 781 389 701 z "},"m":{"ha":815,"x_min":0,"x_max":815,"o":"m 806 299 q 744 182 767 221 q 675 71 715 131 q 606 -3 640 18 q 565 -15 585 -15 q 521 8 540 -15 q 497 86 497 38 q 517 194 497 128 q 550 299 538 260 q 558 328 556 314 q 560 346 560 342 l 551 350 q 493 289 542 350 q 422 193 454 239 q 331 51 421 192 q 278 -3 296 -3 q 259 13 268 -3 q 250 50 250 29 q 257 88 250 67 q 306 217 282 150 q 341 323 329 285 q 353 374 353 361 q 342 390 353 390 q 321 381 332 389 q 292 353 310 374 q 179 206 232 283 q 107 86 138 143 q 75 21 90 53 q 32 -12 56 -12 q 10 1 21 -12 q 0 38 0 15 q 9 96 0 63 q 50 206 18 129 l 119 369 l 139 414 q 144 439 144 426 q 148 478 147 463 q 156 514 149 494 q 185 556 164 533 q 224 578 207 578 q 247 566 236 578 q 257 529 257 554 q 228 447 257 507 q 124 215 167 322 q 175 290 154 261 q 244 379 183 301 q 317 455 286 435 q 375 475 347 475 q 408 460 394 475 q 422 411 422 444 q 406 315 422 376 q 378 228 396 282 q 475 361 458 340 q 601 458 551 458 q 633 448 624 458 q 642 418 642 438 q 636 379 642 404 q 597 242 624 328 q 574 147 585 200 q 567 101 569 124 q 565 75 565 79 q 578 53 565 61 q 601 53 592 44 q 622 85 610 63 q 676 193 633 107 q 747 321 700 240 q 766 344 757 336 q 792 353 775 353 q 815 329 815 353 q 806 299 815 317 z "},"n":{"ha":571,"x_min":14,"x_max":571,"o":"m 564 238 q 506 117 543 181 q 410 -3 456 29 q 358 -22 383 -22 q 324 -12 342 -22 q 288 28 299 1 q 278 89 278 54 q 280 126 278 111 q 286 172 282 142 q 301 253 290 201 q 338 394 311 306 q 340 408 340 400 q 332 418 340 418 q 326 415 329 417 q 304 394 317 408 q 221 285 260 343 q 92 57 157 189 q 63 17 76 26 q 39 7 50 7 q 22 22 31 7 q 14 61 14 36 q 19 109 14 82 q 40 204 24 136 q 78 338 64 293 q 108 424 93 382 q 119 472 117 450 q 126 518 122 493 q 148 554 132 539 q 183 569 164 569 q 208 562 197 569 q 218 532 218 554 q 208 489 218 514 q 126 274 167 381 l 107 200 l 146 258 q 224 369 183 315 q 318 488 275 439 q 340 510 332 503 q 372 524 358 524 q 408 509 397 524 q 418 472 418 494 q 415 442 418 458 q 410 418 411 425 q 369 249 389 333 q 349 108 349 165 l 349 86 q 353 47 349 60 q 372 35 357 35 q 396 46 383 35 q 418 71 408 57 q 460 151 439 101 q 503 256 481 200 q 526 286 514 279 q 550 293 539 293 q 571 268 571 293 q 564 238 571 258 z "},"o":{"ha":536,"x_min":32,"x_max":507,"o":"m 507 336 q 400 65 507 172 q 199 -28 307 -28 q 76 25 121 -28 q 32 171 32 78 q 117 431 32 292 q 285 557 203 569 q 328 561 306 561 q 454 507 407 561 q 507 336 507 447 m 442 336 q 404 464 442 421 q 332 499 374 499 q 298 497 308 499 q 274 488 288 494 q 151 358 203 457 q 99 164 99 260 q 131 63 99 96 q 201 33 158 33 q 367 126 293 33 q 442 336 442 218 z "},"p":{"ha":554,"x_min":-61,"x_max":522,"o":"m 522 338 q 435 63 522 175 q 268 -39 356 -39 q 189 -17 238 -39 q 99 43 140 6 l 94 47 q 40 -165 58 -81 q 21 -286 21 -250 q 24 -304 21 -292 q 26 -324 26 -317 q 13 -361 26 -349 q -18 -374 -1 -374 q -50 -360 -39 -374 q -61 -324 -61 -346 q -4 -68 -61 -276 q 78 213 38 86 q 149 439 142 417 q 228 557 189 557 q 253 548 246 557 q 261 522 261 539 q 253 492 261 507 q 215 410 221 432 q 313 504 265 469 q 400 539 361 539 q 486 487 450 539 q 522 338 522 435 m 457 324 q 432 444 457 401 q 388 479 413 479 q 239 344 332 479 q 114 114 154 222 q 190 53 139 85 q 276 22 240 22 q 396 106 340 22 q 457 324 457 197 z "},"q":{"ha":500,"x_min":22,"x_max":483,"o":"m 474 242 q 410 81 444 181 q 354 -96 371 -28 l 317 -247 q 313 -271 313 -262 q 321 -292 313 -281 q 329 -317 329 -303 q 313 -350 329 -335 q 275 -365 296 -365 q 250 -349 256 -365 q 244 -308 244 -332 q 281 -128 244 -257 q 338 54 303 -47 q 242 -16 294 13 q 142 -44 189 -44 q 51 1 81 -44 q 22 118 22 47 q 115 417 22 267 q 338 582 218 582 q 453 510 418 582 q 479 371 479 456 q 476 322 479 342 q 474 296 474 303 q 483 269 483 282 q 479 254 483 263 q 474 242 475 246 m 404 375 q 393 469 404 436 q 333 521 376 521 q 172 385 258 521 q 86 119 86 250 q 110 36 86 64 q 154 15 128 15 q 203 28 175 15 q 253 57 231 40 q 360 192 317 106 q 404 375 404 279 z "},"r":{"ha":418,"x_min":-42,"x_max":418,"o":"m 406 210 q 365 118 375 138 q 303 24 336 57 q 243 -8 271 -8 q 199 19 218 -8 q 181 89 181 46 q 189 169 181 125 q 222 294 197 213 l 244 368 q 208 383 219 368 l 199 356 q 124 157 151 218 q 38 17 83 69 q -14 -14 11 -14 q -42 14 -42 -14 q -26 40 -42 24 q 15 89 3 72 q 108 272 58 147 q 168 461 154 389 q 181 504 172 490 q 219 528 194 528 q 240 524 233 528 q 260 481 260 513 q 257 461 260 475 q 297 476 275 476 q 322 469 314 476 q 329 446 329 461 q 324 418 329 433 q 281 281 306 372 q 251 160 256 190 q 245 121 246 131 q 244 99 244 111 q 265 61 244 61 q 282 71 272 61 q 299 94 292 81 q 331 161 307 107 q 365 247 354 215 q 380 276 372 268 q 399 283 388 283 q 418 258 418 283 q 416 236 418 243 q 406 210 414 229 z "},"s":{"ha":449,"x_min":22,"x_max":444,"o":"m 444 403 q 429 313 444 361 q 376 233 408 247 q 356 229 368 229 q 342 233 349 229 q 324 263 324 243 q 331 288 324 272 q 336 299 333 293 q 360 346 350 321 q 375 408 375 383 q 363 449 375 432 q 290 474 342 474 q 213 459 250 474 q 147 414 175 444 q 125 381 133 397 q 117 342 117 364 q 124 303 117 322 q 149 264 131 285 q 219 204 167 243 q 289 152 265 171 q 326 115 313 133 q 347 61 347 89 q 304 4 347 22 q 217 -10 269 -10 q 65 26 118 -10 q 22 96 22 56 q 39 138 22 118 q 75 157 56 157 q 100 138 100 157 q 92 116 100 126 q 85 96 85 106 q 123 56 85 74 q 229 39 161 39 q 275 46 264 39 q 286 63 286 53 q 265 97 286 78 q 181 160 244 115 q 107 217 132 193 q 65 269 76 244 q 53 329 53 294 q 57 371 53 353 q 74 410 61 389 q 138 482 97 453 q 261 529 188 517 l 317 533 q 410 501 376 533 q 444 403 444 468 z "},"t":{"ha":393,"x_min":14,"x_max":393,"o":"m 386 313 q 318 167 354 233 q 235 36 275 88 q 186 -12 211 7 q 128 -39 153 -39 q 82 -15 100 -39 q 64 50 64 8 q 85 180 64 100 q 164 419 107 260 q 124 417 153 418 q 56 415 94 415 q 31 419 40 415 q 14 443 14 428 q 24 463 14 456 q 44 472 33 469 q 69 474 56 474 q 104 472 93 472 q 155 474 132 472 q 189 476 178 475 q 271 671 229 574 q 331 726 299 726 q 360 717 351 726 q 369 696 369 708 q 334 625 369 690 q 267 482 299 560 l 328 492 q 363 483 350 492 q 375 456 375 475 q 365 430 375 440 q 340 419 354 419 l 294 424 q 267 424 278 424 q 235 419 257 424 q 164 236 192 317 q 122 74 122 115 q 126 42 122 57 q 139 28 131 28 q 164 32 154 28 q 200 63 182 40 q 326 294 244 118 q 347 340 336 317 q 375 363 357 363 q 393 343 393 363 q 390 324 393 332 q 386 313 388 315 z "},"u":{"ha":556,"x_min":47,"x_max":556,"o":"m 549 242 q 474 113 522 182 q 385 10 426 44 q 359 -8 371 -3 q 336 -14 347 -14 q 300 8 318 -14 q 285 44 290 21 q 279 86 279 67 l 279 103 q 209 23 239 50 q 155 -15 179 -4 q 117 -26 131 -26 q 68 0 89 -26 q 53 38 58 14 q 47 82 47 61 q 50 129 47 111 q 60 174 53 147 q 120 329 78 243 q 207 468 163 415 q 228 487 218 482 q 250 492 238 492 q 275 483 264 492 q 286 458 286 475 q 267 415 286 440 q 196 308 228 363 q 138 190 158 243 q 119 131 126 164 q 111 71 111 97 q 117 43 111 51 q 129 35 122 35 q 162 51 142 35 q 213 101 182 67 q 297 221 265 163 q 346 331 311 246 q 365 368 356 356 q 403 390 382 390 q 426 382 415 390 q 438 356 438 374 q 413 294 438 333 q 365 212 381 247 q 342 144 349 176 q 335 93 335 113 q 340 66 335 74 q 354 58 344 58 q 370 66 361 58 q 392 88 379 74 q 450 171 424 122 q 490 254 457 183 q 510 286 501 278 q 532 294 519 294 q 556 269 556 294 q 549 242 556 256 z "},"v":{"ha":389,"x_min":40,"x_max":365,"o":"m 364 433 q 353 389 361 414 q 346 353 346 364 q 350 329 346 344 q 354 307 354 314 q 347 290 354 297 l 331 275 q 308 231 317 249 q 289 185 307 228 q 231 68 261 119 q 147 -28 186 -6 q 110 -39 128 -39 q 60 -9 79 -39 q 40 81 40 21 q 44 133 40 104 l 78 339 q 90 408 89 401 q 136 458 103 458 q 169 419 169 458 q 154 345 169 393 q 124 242 139 297 q 106 163 110 186 q 96 78 96 110 q 106 29 96 44 q 118 19 111 19 q 133 26 124 19 q 149 40 143 33 q 204 140 165 61 q 258 261 243 218 l 274 306 q 275 330 275 317 q 275 350 275 343 l 275 393 q 275 426 275 410 q 281 468 275 442 q 299 507 286 494 q 321 519 311 519 q 349 510 339 519 q 365 457 365 493 q 364 433 365 442 z "},"w":{"ha":592,"x_min":18,"x_max":575,"o":"m 569 307 l 569 285 q 566 259 569 268 q 546 240 563 250 l 507 157 q 458 75 489 118 q 391 0 421 22 q 332 -22 361 -22 q 263 40 279 -22 q 253 124 253 75 q 257 186 253 158 l 236 150 q 170 53 201 90 q 101 -6 139 17 q 84 -15 93 -11 q 64 -19 75 -19 q 31 -3 44 -19 q 18 43 18 13 q 20 77 18 65 q 32 121 22 89 q 85 271 54 197 q 167 450 150 410 q 190 490 179 481 q 219 500 201 500 q 256 464 256 500 q 228 404 256 451 q 143 246 169 303 q 101 145 128 213 q 74 54 74 78 q 85 38 74 38 q 106 52 92 38 q 139 93 119 67 q 244 278 201 182 q 269 328 260 314 q 310 353 288 353 q 328 341 322 353 q 335 313 335 329 q 335 296 335 304 q 331 274 332 285 q 320 206 329 264 q 311 118 311 149 q 317 60 311 93 q 340 28 324 28 q 363 36 351 28 q 394 74 375 44 q 422 119 413 103 q 489 268 467 197 l 497 294 l 486 343 l 474 389 q 471 422 471 408 q 473 455 471 439 q 488 485 475 471 q 518 499 500 499 q 563 458 549 499 q 572 421 569 439 q 575 388 575 403 q 572 341 575 372 q 569 307 569 310 z "},"x":{"ha":440,"x_min":18,"x_max":482,"o":"m 482 450 q 458 414 482 435 q 397 365 422 386 q 288 263 336 314 q 235 201 253 226 q 246 99 235 133 q 308 42 264 42 l 322 43 q 361 54 342 49 q 371 53 368 54 q 383 25 383 46 q 356 -7 383 4 q 303 -18 329 -18 q 221 18 257 -18 q 178 131 178 61 q 83 19 118 51 q 43 -4 58 -4 q 18 24 18 -4 q 54 76 18 40 q 99 126 76 99 q 140 181 117 147 q 172 228 153 199 q 165 333 172 288 q 146 379 158 379 q 140 376 143 378 q 130 367 136 375 q 119 356 124 360 q 99 346 108 346 q 68 376 68 346 q 97 429 68 400 q 154 458 126 458 q 219 400 200 458 q 233 290 233 358 q 453 476 431 476 q 482 450 482 476 z "},"y":{"ha":450,"x_min":-43,"x_max":421,"o":"m 421 381 q 413 342 421 365 q 396 296 406 319 q 356 47 381 219 q 322 -132 338 -75 q 257 -278 300 -215 q 201 -337 233 -312 q 108 -371 158 -371 q -7 -294 35 -371 q -43 -136 -43 -229 q -31 -88 -43 -103 q -1 -74 -19 -74 q 35 -110 35 -74 q 17 -146 35 -129 q 14 -179 14 -157 q 43 -272 14 -233 q 108 -311 72 -311 q 242 -172 185 -311 q 300 126 300 -32 q 268 82 286 106 q 235 42 250 58 q 173 -12 200 4 q 115 -28 146 -28 q 76 -8 94 -28 q 49 82 49 22 q 106 347 49 204 q 222 489 164 489 q 247 479 239 489 q 256 454 256 469 q 213 390 256 438 q 167 319 183 358 q 130 210 150 279 q 110 101 110 142 q 118 51 110 67 q 133 36 126 36 q 163 47 147 36 q 197 83 178 57 q 278 201 246 147 q 336 325 317 267 q 347 381 342 342 q 386 419 353 419 q 413 410 406 419 q 421 381 421 401 z "},"z":{"ha":440,"x_min":0,"x_max":440,"o":"m 431 332 q 349 261 415 304 q 154 119 240 190 q 111 79 128 97 q 97 60 103 69 q 105 56 101 57 q 113 54 108 54 l 164 60 q 218 65 194 63 q 268 67 242 67 q 321 59 301 67 q 346 42 340 51 q 351 21 351 32 q 340 -3 351 4 q 319 -10 329 -10 q 286 -2 297 -10 q 244 6 275 6 q 138 -1 199 6 q 69 -7 76 -7 q 17 6 35 -7 q 0 39 0 19 q 10 70 0 54 q 35 101 19 86 q 181 221 89 157 q 350 346 300 304 q 360 364 360 354 q 343 375 360 375 q 302 372 332 376 q 258 367 272 368 q 171 356 244 365 q 108 350 128 350 q 58 363 74 350 q 43 392 43 376 q 58 420 43 413 q 96 428 72 428 q 113 428 104 428 q 133 424 124 425 q 167 422 142 422 q 210 421 192 421 q 283 428 243 424 q 358 432 322 432 q 399 426 381 432 q 429 404 418 421 q 440 368 440 388 q 431 332 440 350 z "},"{":{"ha":532,"x_min":18,"x_max":510,"o":"m 510 985 q 479 943 510 954 q 450 936 458 938 q 290 781 372 915 q 185 550 226 675 q 157 479 168 497 q 90 418 136 443 q 121 358 121 404 q 114 300 121 333 q 97 168 97 219 q 120 27 97 94 q 190 -71 143 -40 q 238 -86 199 -76 q 278 -114 278 -96 q 264 -133 278 -124 q 228 -142 250 -142 q 181 -132 204 -142 q 129 -99 157 -122 q 58 14 78 -54 q 38 165 38 82 q 40 232 38 208 q 49 311 42 256 q 51 342 50 322 q 51 369 53 363 q 29 411 49 382 q 18 431 18 426 q 38 453 18 440 q 68 474 67 472 q 100 510 89 490 q 128 581 111 531 q 213 772 167 686 q 360 961 283 904 q 417 991 379 975 q 478 1007 456 1007 q 500 1001 490 1007 q 510 985 510 994 z "},"|":{"ha":226,"x_min":19,"x_max":136,"o":"m 136 931 q 124 603 136 746 q 101 308 113 460 q 89 -4 89 157 q 98 -178 89 -79 q 107 -326 107 -278 q 109 -370 107 -353 q 114 -410 111 -387 q 114 -418 114 -414 q 111 -425 111 -424 q 90 -447 106 -439 q 60 -450 75 -456 q 38 -430 43 -444 q 33 -397 33 -415 q 29 -268 33 -347 q 19 147 19 -85 q 29 508 19 358 q 51 762 39 658 q 63 882 63 865 q 58 924 63 908 q 51 958 54 940 q 49 979 49 975 q 56 1008 49 999 q 73 1020 64 1017 q 90 1024 82 1024 q 107 1024 99 1024 q 130 1002 124 1024 q 136 953 136 981 l 136 931 z "},"}":{"ha":542,"x_min":60,"x_max":481,"o":"m 481 482 q 460 454 481 476 q 435 422 447 440 q 400 344 417 394 q 371 238 392 321 q 336 117 350 154 q 276 -7 313 50 q 196 -101 239 -64 q 99 -149 142 -149 q 66 -139 72 -149 q 60 -114 60 -129 q 128 -68 60 -110 q 206 11 171 -42 q 281 169 251 78 q 329 353 294 210 q 363 440 346 417 q 408 479 379 464 q 372 510 383 492 q 361 550 361 529 q 363 573 361 564 q 367 592 364 582 q 369 619 368 606 q 369 642 369 632 q 343 824 369 742 q 238 954 308 933 q 179 963 204 958 q 154 982 154 967 q 158 1007 154 1000 q 199 1022 168 1022 q 289 997 246 1022 q 350 944 324 976 q 413 811 392 893 q 435 642 435 729 q 434 613 435 626 q 433 585 433 599 q 435 551 433 563 q 446 525 438 539 q 465 503 450 518 q 481 482 481 488 z "},"~":{"ha":790,"x_min":72,"x_max":671,"o":"m 671 257 q 649 225 671 239 q 567 206 618 206 q 467 225 521 206 q 381 263 440 235 q 247 306 285 306 q 186 286 214 306 q 149 246 167 272 q 139 229 143 238 q 103 215 128 215 q 72 242 72 215 q 88 282 72 263 q 250 364 143 364 q 300 358 276 364 q 344 346 324 353 q 454 296 382 333 q 540 268 508 268 q 590 278 564 268 q 635 288 617 288 q 667 272 658 288 q 671 257 671 265 z "},"":{"ha":768,"x_min":54,"x_max":944,"o":"m 944 851 q 936 833 944 843 q 918 824 928 824 q 836 839 888 832 q 721 846 785 846 q 605 843 686 846 q 518 840 524 840 l 419 839 l 393 761 q 354 649 368 690 q 264 339 303 499 q 410 536 344 475 q 521 592 469 592 q 630 550 590 592 q 669 422 669 508 q 635 172 669 315 q 553 -76 601 28 q 485 -189 521 -144 q 381 -272 440 -244 q 247 -299 322 -299 q 149 -284 194 -299 q 81 -243 103 -269 q 61 -210 68 -229 q 54 -175 54 -192 q 69 -127 54 -146 q 107 -108 83 -108 q 160 -139 144 -108 q 175 -185 167 -161 q 201 -207 183 -199 q 257 -215 219 -215 q 380 -178 328 -215 q 476 -50 432 -140 q 558 185 526 53 q 590 400 590 318 q 561 489 590 464 q 507 507 540 507 q 374 400 457 507 q 268 244 328 342 q 192 75 256 224 q 115 -24 149 -24 q 97 -19 104 -24 q 76 22 76 -7 q 101 111 76 46 q 188 342 160 263 q 346 831 269 575 q 256 827 311 831 q 197 824 201 824 q 164 822 176 822 q 121 831 139 822 q 103 863 103 839 q 115 897 103 888 q 150 907 128 907 q 178 906 169 907 q 192 901 188 901 q 208 900 196 900 q 261 903 210 900 q 371 906 313 906 q 410 924 393 924 q 424 922 419 924 q 442 907 429 919 q 543 910 457 907 q 694 913 629 913 l 763 913 q 893 901 842 913 q 944 851 944 889 z "},"":{"ha":792,"x_min":65,"x_max":960,"o":"m 635 1085 q 579 1032 619 1065 q 522 989 547 1006 q 478 972 496 972 q 453 981 463 972 q 444 1003 444 990 q 455 1031 444 1022 q 485 1046 465 1039 q 551 1088 522 1060 q 596 1136 564 1099 q 606 1147 604 1146 q 619 1153 613 1153 q 640 1141 632 1153 q 649 1119 649 1129 q 635 1085 649 1104 m 960 851 q 951 833 960 843 q 933 824 943 824 q 872 831 901 824 q 808 842 842 839 q 719 844 775 844 l 682 844 q 549 838 667 844 q 442 835 501 835 l 408 761 q 283 457 346 624 q 194 207 254 381 q 169 126 182 167 q 149 36 149 54 q 156 10 149 26 q 163 -14 163 -6 q 151 -42 163 -31 q 114 -54 140 -54 q 76 -37 88 -54 q 65 6 65 -19 q 79 93 65 39 q 159 337 101 179 q 356 832 217 494 q 283 828 335 832 q 213 824 232 824 q 179 822 192 822 q 136 831 154 822 q 118 863 118 839 q 130 896 118 882 q 167 910 142 910 q 207 901 183 910 q 297 903 253 901 q 386 906 342 904 q 425 924 408 924 q 440 922 435 924 q 457 907 444 919 q 558 910 472 907 q 710 913 644 913 l 778 913 q 908 901 857 913 q 960 851 960 889 z "},"":{"ha":882,"x_min":-29,"x_max":1026,"o":"m 772 1051 q 717 999 757 1032 q 659 956 685 972 q 615 939 633 939 q 591 948 600 939 q 582 969 582 957 q 592 997 582 989 q 622 1013 603 1006 q 689 1054 660 1026 q 733 1103 701 1065 q 743 1114 742 1113 q 757 1119 750 1119 q 778 1108 769 1119 q 786 1086 786 1096 q 772 1051 786 1071 m 1026 892 q 919 758 1026 846 q 693 603 838 692 q 499 492 583 536 q 550 428 531 465 q 613 192 594 346 q 629 61 626 75 q 657 -29 642 -8 q 699 -50 672 -50 q 732 -41 719 -50 q 755 -18 744 -32 q 777 7 765 -4 q 800 18 789 18 q 819 9 811 18 q 826 -14 826 0 q 815 -46 826 -31 q 764 -88 800 -67 q 692 -110 728 -110 q 599 -50 632 -110 q 567 67 579 -15 q 528 314 532 297 q 493 399 513 367 q 444 458 474 432 q 343 408 372 422 q 249 367 294 385 l 207 208 q 188 139 197 175 q 179 76 179 103 q 172 38 176 49 q 132 10 161 10 q 103 21 113 10 q 93 50 93 32 q 117 163 93 78 q 167 336 142 249 q 101 313 136 322 q 33 304 65 304 q -11 314 7 304 q -29 349 -29 324 q 15 447 -29 400 q 116 521 60 493 q 233 560 172 549 l 265 646 q 340 829 313 775 q 392 900 367 883 q 414 907 403 907 q 436 897 426 907 q 446 871 446 886 q 426 822 446 851 q 410 799 418 810 q 368 715 397 779 q 333 633 344 661 l 310 568 q 378 559 347 568 q 447 529 410 550 q 742 701 607 613 q 910 829 864 782 q 940 897 933 853 q 978 940 946 940 q 1015 925 1004 940 q 1026 892 1026 910 m 389 492 q 318 508 356 508 q 292 506 311 508 l 271 442 l 389 492 m 214 492 q 89 431 142 475 q 49 379 49 396 q 57 374 49 375 q 68 372 65 372 q 101 375 89 372 q 183 407 136 382 l 214 492 z "},"":{"ha":979,"x_min":56,"x_max":924,"o":"m 924 851 q 915 833 924 843 q 897 824 907 824 q 815 839 867 832 q 700 846 764 846 q 584 843 665 846 q 497 840 503 840 l 399 839 l 372 761 q 333 649 347 690 q 243 339 282 499 q 393 540 328 481 q 500 592 450 592 q 576 561 546 592 q 615 450 615 524 q 592 286 615 408 q 574 181 581 228 q 567 104 567 135 q 586 15 567 38 q 619 0 596 3 q 653 -10 642 -3 q 665 -29 665 -17 q 649 -53 665 -40 q 614 -67 633 -67 q 535 -37 567 -67 q 493 78 493 0 q 506 217 493 139 q 521 297 508 232 q 535 372 533 363 q 542 436 542 411 q 528 489 542 469 q 482 508 515 508 q 358 413 432 508 q 247 244 322 365 q 171 75 233 222 q 94 -24 129 -24 q 76 -19 83 -24 q 56 22 56 -7 q 81 111 56 46 q 167 342 139 263 q 325 831 249 575 q 235 827 290 831 q 176 824 181 824 q 143 822 156 822 q 100 831 118 822 q 82 863 82 839 q 94 897 82 888 q 129 907 107 907 q 157 906 149 907 q 171 901 167 901 q 188 900 175 900 q 240 903 189 900 q 350 906 292 906 q 389 924 372 924 q 403 922 399 924 q 421 907 408 919 q 522 910 436 907 q 674 913 608 913 l 742 913 q 872 901 821 913 q 924 851 924 889 z "},"":{"ha":1101,"x_min":65,"x_max":979,"o":"m 979 906 q 954 840 979 889 q 874 664 907 749 q 776 376 825 542 q 701 36 717 169 q 724 43 715 40 q 738 46 732 46 q 762 31 753 46 q 771 -6 771 17 q 745 -37 771 -24 q 672 -51 719 -51 q 551 -50 636 -51 q 425 -49 467 -49 q 390 -125 410 -79 q 366 -185 371 -171 q 353 -235 361 -200 q 343 -292 346 -269 q 328 -327 340 -315 q 300 -339 317 -339 q 286 -337 289 -337 q 274 -319 274 -337 q 275 -306 274 -312 q 278 -292 276 -299 q 306 -164 290 -222 q 342 -51 321 -106 q 143 -54 171 -54 q 86 -43 107 -54 q 65 -1 65 -32 q 135 242 65 36 q 222 489 189 404 q 314 743 243 542 q 386 918 360 872 q 468 983 424 983 q 494 973 483 983 q 506 940 506 963 q 496 909 506 924 q 465 888 486 894 q 378 665 456 874 q 235 269 300 457 q 160 31 160 53 q 217 24 160 25 q 304 22 275 22 l 322 22 l 338 22 q 377 22 360 22 q 407 24 394 22 l 621 26 q 676 287 644 164 q 747 521 708 410 q 843 775 768 581 q 883 878 863 826 q 946 946 913 946 q 969 938 958 946 q 979 906 979 929 z "},"":{"ha":603,"x_min":8,"x_max":547,"o":"m 547 649 q 536 622 547 631 q 504 614 525 614 l 385 621 q 307 407 338 497 q 278 318 288 349 l 232 167 l 268 218 q 396 379 349 332 q 457 417 433 417 q 483 405 474 417 q 493 372 493 393 q 481 292 493 351 q 464 203 468 232 q 401 -47 438 39 q 263 -212 351 -169 q 160 -233 218 -233 q 83 -222 119 -233 q 29 -190 46 -211 q 8 -137 8 -168 q 19 -100 8 -115 q 50 -85 31 -85 q 90 -108 79 -85 q 103 -144 96 -126 q 124 -160 108 -153 q 167 -168 140 -168 q 296 -110 247 -168 q 378 75 344 -51 q 408 210 389 115 q 428 325 428 306 l 425 335 q 410 318 417 326 q 354 247 392 297 q 236 72 268 119 q 154 -7 182 -7 q 138 1 146 -7 q 129 31 129 10 q 144 91 129 43 q 168 168 160 139 q 186 231 183 222 q 250 425 206 293 l 319 625 q 238 622 260 625 q 206 618 217 619 l 188 618 q 163 646 163 622 q 206 678 163 669 q 335 688 250 688 q 342 746 335 731 q 375 778 350 761 q 415 794 400 794 q 438 767 438 794 q 431 736 438 754 l 410 681 q 449 678 425 678 q 480 679 461 678 q 504 681 499 681 q 528 676 517 681 q 547 649 547 667 z "},"":{"ha":524,"x_min":21,"x_max":524,"o":"m 401 726 q 346 674 386 707 q 288 631 314 647 q 244 614 263 614 q 220 623 229 614 q 211 644 211 632 q 222 672 211 664 q 251 688 232 681 q 318 729 289 701 q 363 778 331 740 q 372 789 371 788 q 386 794 379 794 q 407 783 399 794 q 415 761 415 771 q 401 726 415 746 m 524 206 q 514 173 524 190 q 483 131 504 156 q 406 36 413 43 q 313 -19 351 -19 q 229 43 265 -19 q 182 156 217 65 q 161 196 171 185 q 119 218 147 213 q 106 165 111 188 q 96 115 100 143 q 89 28 93 56 q 49 0 85 0 q 27 9 33 0 q 21 44 21 18 q 32 128 21 81 q 54 215 46 178 q 31 229 31 210 q 39 264 31 247 q 68 283 47 281 q 99 387 86 350 q 113 428 111 424 q 126 483 119 468 q 176 521 143 521 q 204 501 204 521 q 169 410 186 456 q 135 283 149 356 q 242 322 185 279 q 342 422 300 364 q 363 469 351 435 q 404 519 379 519 q 426 513 417 519 q 436 493 436 507 q 369 361 436 439 q 204 240 297 276 q 240 188 231 211 q 256 138 240 186 q 281 74 272 89 q 322 40 299 40 q 386 94 347 40 q 417 140 408 129 q 456 203 436 171 q 497 233 478 233 q 524 206 524 233 z "},"":{"ha":658,"x_min":10,"x_max":546,"o":"m 546 361 q 543 339 546 350 q 525 293 540 328 q 453 139 489 203 q 339 -10 393 31 q 290 -29 314 -29 q 255 -12 268 -29 q 242 33 242 6 q 256 111 242 54 q 292 250 276 186 q 301 288 293 251 q 308 325 308 324 l 306 335 q 290 318 297 326 q 235 247 272 297 q 117 72 149 119 q 35 -7 63 -7 q 18 1 26 -7 q 10 31 10 10 q 25 91 10 43 q 49 168 40 139 q 67 231 64 222 q 131 425 86 293 l 200 625 q 119 622 140 625 q 86 618 97 619 l 68 618 q 43 646 43 622 q 87 678 43 669 q 215 688 131 688 q 223 746 215 731 q 256 778 231 761 q 296 794 281 794 q 318 767 318 794 q 311 736 318 754 l 290 681 q 329 678 306 678 q 360 679 342 678 q 385 681 379 681 q 408 676 397 681 q 428 649 428 667 q 417 622 428 631 q 385 614 406 614 l 265 621 q 188 407 218 497 q 158 318 168 349 l 113 167 l 149 218 q 276 379 229 332 q 338 417 314 417 q 364 405 354 417 q 374 372 374 393 q 368 320 374 351 q 335 182 363 289 q 322 136 328 158 q 308 61 313 99 l 308 51 q 311 45 310 47 q 314 42 313 43 q 335 53 322 42 q 368 99 349 65 q 428 211 397 149 q 482 333 449 254 q 497 365 488 347 q 525 383 506 383 q 546 361 546 383 z "},"":{"ha":694,"x_min":0,"x_max":0,"o":""},"":{"ha":450,"x_min":-43,"x_max":482,"o":"m 481 757 q 479 728 482 747 q 471 697 476 710 q 408 619 453 649 q 311 590 364 590 q 242 607 274 590 q 172 689 194 632 q 161 727 165 708 q 157 764 157 746 q 162 790 157 782 q 175 797 167 797 q 201 768 194 797 q 224 703 214 719 q 256 673 233 688 q 313 658 278 658 q 366 670 340 658 q 410 704 392 682 q 424 726 417 713 q 438 757 431 739 q 457 775 447 775 q 481 757 476 775 m 421 381 q 413 342 421 365 q 396 296 406 319 q 318 -142 357 76 q 108 -371 254 -371 q -7 -294 35 -371 q -43 -136 -43 -229 q -31 -88 -43 -103 q -1 -74 -19 -74 q 35 -110 35 -74 q 17 -146 35 -129 q 14 -179 14 -157 q 43 -272 14 -233 q 108 -311 72 -311 q 242 -172 185 -311 q 300 126 300 -32 q 218 28 264 71 q 115 -28 158 -28 q 76 -8 94 -28 q 49 82 49 22 q 106 347 49 204 q 222 489 164 489 q 247 479 239 489 q 256 454 256 469 q 213 390 256 438 q 167 319 183 358 q 130 210 150 279 q 110 101 110 142 q 118 51 110 67 q 133 36 126 36 q 236 142 164 36 q 321 285 299 232 q 344 379 325 296 q 386 419 354 419 q 413 410 406 419 q 421 381 421 401 z "},"":{"ha":918,"x_min":-58,"x_max":1071,"o":"m 1071 860 q 1061 839 1071 847 q 1028 831 1051 831 q 1011 832 1015 832 q 988 835 994 835 q 952 823 967 835 q 921 775 938 811 q 825 521 881 690 q 732 275 769 351 q 588 85 674 153 q 451 11 531 39 q 289 -17 372 -17 q 154 3 215 -17 q 47 58 93 24 q -37 160 -11 101 q -58 251 -58 204 q -33 353 -58 306 q 38 438 -8 401 q 127 481 76 467 q 225 494 178 494 q 274 488 247 494 q 319 469 301 481 q 338 440 338 458 q 325 421 338 428 q 297 422 315 415 q 269 433 279 429 q 217 443 243 443 q 82 394 143 443 q 13 258 13 339 q 21 206 13 233 q 126 85 43 131 q 297 43 203 43 q 421 65 360 43 q 531 125 482 88 q 646 260 597 176 q 726 443 685 326 q 801 665 764 554 q 832 757 818 714 q 857 836 853 822 q 659 835 756 836 q 471 833 563 835 l 428 833 q 383 835 392 833 q 344 869 344 842 q 354 894 344 883 q 386 904 364 904 q 426 897 407 900 q 481 894 446 894 q 706 896 589 894 q 932 899 822 897 l 1017 899 q 1056 888 1040 899 q 1071 860 1071 876 z "},"":{"ha":826,"x_min":131,"x_max":776,"o":"m 764 817 q 758 790 764 804 q 746 761 753 775 l 690 664 q 755 558 733 614 q 776 451 776 501 q 742 317 776 381 q 649 210 707 254 l 689 139 q 702 110 697 122 q 707 83 707 97 q 682 68 707 68 q 654 79 667 68 q 639 99 649 85 l 592 175 q 446 147 519 147 q 335 164 386 147 q 272 192 310 172 l 217 100 l 196 76 q 176 69 190 69 q 157 74 165 69 q 149 85 149 78 q 154 112 149 97 q 167 140 160 126 l 219 232 q 131 443 131 311 q 165 586 131 522 q 254 690 196 642 l 214 761 q 201 790 206 778 q 196 817 196 803 q 221 832 196 832 q 249 821 236 832 q 264 801 254 817 l 311 725 q 384 749 349 742 q 456 757 419 757 q 542 746 497 757 q 636 704 586 735 q 661 744 650 722 q 696 801 668 760 q 715 823 706 815 q 744 831 725 831 q 764 817 764 831 m 715 454 q 651 614 715 544 q 456 696 576 696 q 276 633 353 696 q 192 458 192 564 q 256 282 192 350 q 451 208 325 208 q 647 286 572 208 q 715 454 715 357 z "},"":{"ha":1103,"x_min":65,"x_max":994,"o":"m 994 965 q 981 869 994 904 q 921 822 961 822 q 899 824 911 822 q 864 833 886 826 q 814 842 842 839 q 726 844 786 844 q 572 840 661 844 q 442 835 483 835 l 408 761 q 283 457 346 624 q 194 207 254 381 q 169 126 182 167 q 149 36 149 54 q 156 10 149 26 q 163 -14 163 -6 q 151 -42 163 -31 q 114 -54 140 -54 q 76 -37 88 -54 q 65 6 65 -19 q 79 93 65 39 q 159 337 101 179 q 356 832 217 494 q 283 828 335 832 q 213 824 232 824 q 179 822 192 822 q 136 831 154 822 q 118 863 118 839 q 131 897 118 888 q 165 907 143 907 q 193 906 185 907 q 207 901 203 901 q 224 900 211 900 q 276 903 225 900 q 386 906 328 906 q 425 924 408 924 q 440 922 435 924 q 457 907 444 919 l 710 913 l 899 908 q 922 976 913 933 q 946 1018 932 1018 q 978 1004 956 1018 q 994 965 994 994 z "},"":{"ha":286,"x_min":72,"x_max":196,"o":"m 196 947 q 192 800 196 942 q 188 596 188 658 q 184 502 188 535 q 174 446 181 469 q 160 413 168 422 q 132 404 153 404 q 93 449 93 404 q 99 486 93 465 q 115 657 115 547 l 115 875 l 115 903 q 112 953 115 933 q 108 976 108 972 q 122 1016 108 1004 q 150 1028 135 1028 q 189 996 178 1028 q 196 947 196 975 m 169 -44 q 162 -167 165 -86 q 158 -276 158 -247 q 158 -315 158 -296 q 161 -346 161 -337 q 165 -369 164 -360 q 165 -392 165 -379 q 156 -435 165 -418 q 124 -453 146 -453 q 86 -432 100 -453 q 72 -358 72 -411 l 82 -183 l 89 -82 l 89 4 l 88 100 q 101 158 88 140 q 133 176 114 176 q 167 162 153 176 q 181 104 181 147 q 169 -44 181 69 z "},"":{"ha":875,"x_min":22,"x_max":893,"o":"m 893 854 q 878 797 893 818 q 844 775 864 775 q 803 806 803 775 q 812 831 803 815 q 821 863 821 846 q 765 954 821 911 q 574 1008 694 1008 q 328 946 422 1008 q 244 824 244 890 q 325 721 244 772 q 475 640 400 681 q 618 557 565 592 q 738 453 699 503 q 786 317 786 389 q 767 239 786 275 q 683 161 740 188 q 696 86 696 128 q 574 -103 696 -25 q 271 -181 451 -181 q 90 -123 157 -181 q 22 19 22 -65 q 51 128 22 83 q 122 172 81 172 q 156 163 142 172 q 169 139 169 153 q 161 119 169 128 q 115 85 153 110 q 98 50 104 69 q 92 13 92 31 q 147 -86 92 -49 q 281 -119 197 -119 q 519 -56 418 -119 q 619 92 619 7 q 519 239 619 171 q 319 343 481 265 q 160 426 183 410 q 86 557 86 479 q 115 643 86 603 q 222 721 153 694 q 184 769 196 742 q 172 819 172 797 q 278 988 172 914 q 581 1071 396 1071 q 806 1009 719 1071 q 893 854 893 947 m 713 322 q 617 478 713 399 q 271 682 588 501 q 188 644 218 676 q 157 569 157 613 q 181 504 157 532 q 286 438 204 476 q 532 308 424 372 q 601 263 575 283 q 656 211 628 243 q 699 263 686 233 q 713 322 713 293 z "},"":{"ha":828,"x_min":-18,"x_max":914,"o":"m 914 1142 q 894 1081 914 1104 q 849 1057 875 1057 q 820 1072 831 1057 q 810 1106 810 1086 q 826 1159 810 1135 q 872 1183 843 1183 q 901 1174 889 1183 q 914 1142 914 1165 m 711 1154 q 694 1096 711 1117 q 654 1075 678 1075 q 625 1086 638 1075 q 613 1122 613 1097 q 628 1176 613 1153 q 669 1200 644 1200 q 711 1154 711 1200 m 874 919 q 879 879 879 903 q 840 751 879 819 q 728 626 800 683 q 685 599 710 613 q 638 586 661 586 q 624 588 628 586 q 593 625 593 594 q 604 656 593 649 q 635 664 615 664 q 658 663 651 663 q 750 734 697 663 q 803 868 803 806 q 792 912 803 893 q 758 943 782 931 q 682 960 728 960 q 579 943 642 960 q 392 861 482 915 q 247 717 274 790 q 240 685 240 696 q 301 613 240 638 q 408 588 343 594 q 518 572 507 575 q 571 524 571 558 q 543 493 571 504 q 500 482 533 489 q 219 393 329 451 q 67 254 108 335 q 49 186 49 218 q 88 97 49 133 q 193 44 128 61 q 325 26 258 26 q 493 56 413 26 q 638 144 574 85 q 670 169 656 161 q 694 176 685 176 q 719 153 719 176 q 715 123 719 136 q 693 93 711 110 q 553 11 643 46 q 339 -31 446 -31 q 172 -13 238 -31 q 67 32 107 4 q 1 105 19 64 q -18 185 -18 146 q 25 308 -18 247 q 174 435 74 379 q 276 483 221 461 q 389 521 331 504 q 246 565 307 531 q 165 682 165 611 q 196 774 165 722 q 374 926 249 857 q 599 1011 482 986 q 641 1019 619 1015 q 683 1024 663 1024 q 833 979 781 1024 q 874 919 864 953 z "},"":{"ha":868,"x_min":0,"x_max":828,"o":"m 828 451 q 664 113 828 261 q 289 -36 500 -36 q 114 6 186 -36 q 0 224 0 72 q 173 613 0 408 q 514 818 346 818 q 565 810 546 818 q 597 788 583 803 q 743 681 683 749 q 828 451 828 583 m 724 611 q 686 667 704 647 q 596 732 668 686 q 575 729 582 729 q 526 746 550 729 l 438 736 l 376 711 q 232 589 318 688 q 110 418 154 499 q 66 314 79 363 q 53 224 53 265 q 71 132 53 172 q 106 78 83 103 q 204 19 143 36 q 300 8 246 8 q 469 46 389 8 q 615 146 538 78 q 767 447 767 278 q 724 611 767 533 m 568 490 q 549 451 568 474 q 511 428 531 428 q 489 447 489 428 q 497 467 489 456 q 504 493 504 479 q 488 542 504 522 q 444 561 471 561 q 337 474 396 561 q 278 311 278 388 q 361 228 278 228 q 440 251 403 228 q 503 310 476 275 q 518 326 514 322 q 539 336 529 336 q 550 333 544 336 q 556 321 556 329 q 494 240 556 286 q 356 189 426 189 q 262 224 296 189 q 228 319 228 260 q 299 509 228 413 q 451 606 369 606 q 525 574 497 606 q 551 510 546 549 q 568 490 568 504 z "},"":{"ha":963,"x_min":29,"x_max":907,"o":"m 886 793 q 907 756 907 774 q 892 708 907 743 q 867 632 872 665 q 817 490 850 526 q 764 467 796 467 q 738 547 738 467 q 774 647 738 575 q 811 775 811 719 q 783 886 811 839 q 675 949 746 949 q 394 757 539 949 q 217 349 250 565 q 355 367 279 357 q 453 376 431 376 q 553 358 521 376 q 575 329 575 346 q 562 308 575 314 q 525 301 549 301 q 488 303 504 301 q 459 306 472 304 q 435 308 446 308 q 421 308 425 308 q 316 301 376 308 q 208 286 256 294 q 264 53 208 121 q 410 -8 314 -8 q 597 46 504 -8 q 726 149 657 81 q 794 218 751 174 q 853 263 836 263 q 883 226 883 263 q 863 183 883 208 q 771 93 838 153 q 590 -28 686 17 q 403 -72 493 -72 q 189 44 254 -72 q 140 275 140 131 q 101 267 135 274 q 63 260 68 260 q 29 288 35 260 l 29 306 q 64 329 35 326 q 117 335 93 332 l 147 339 q 351 810 188 607 q 679 1014 515 1014 q 823 958 772 1014 q 886 793 874 901 z "},"":{"ha":564,"x_min":61,"x_max":510,"o":"m 493 354 q 468 331 481 340 q 426 299 461 325 q 390 268 408 283 q 346 226 363 244 l 318 197 l 329 178 q 377 106 356 132 q 410 69 399 81 q 421 40 421 57 q 410 17 421 28 q 381 6 399 6 q 344 19 365 6 q 293 88 324 33 q 251 169 271 126 l 243 196 q 249 213 243 203 q 272 244 254 222 q 358 332 308 286 q 456 406 419 386 q 468 410 461 408 q 482 413 475 413 q 510 388 510 413 q 493 354 510 374 m 288 368 q 231 296 288 349 q 174 238 190 258 l 138 193 l 144 178 q 189 110 160 143 q 226 65 207 88 q 235 40 235 50 q 221 14 235 28 q 199 6 213 6 q 167 19 183 6 q 151 36 161 24 q 105 101 133 56 q 65 172 76 146 q 61 189 61 183 q 85 233 61 196 q 155 318 108 269 q 233 386 201 367 q 261 396 249 396 q 288 368 288 396 z "},"":{"ha":629,"x_min":72,"x_max":549,"o":"m 539 238 q 510 162 526 201 q 481 95 493 122 q 458 59 468 68 q 435 50 447 50 q 417 58 426 50 q 407 78 407 65 q 408 89 407 85 q 413 103 408 93 l 465 226 q 274 222 406 226 q 139 217 143 217 q 124 215 129 215 q 83 226 94 215 q 72 254 72 238 q 78 278 72 267 q 106 290 83 290 l 183 285 l 231 285 l 267 285 l 296 285 l 319 285 l 338 285 q 385 285 364 285 q 426 290 406 286 l 500 297 q 549 261 549 297 q 539 238 549 249 z "},"":{"ha":422,"x_min":61,"x_max":328,"o":"m 319 276 q 289 264 310 264 q 268 265 275 265 q 246 267 260 267 q 211 265 224 265 q 147 264 172 265 q 100 261 122 263 q 71 270 81 261 q 61 293 61 279 q 68 315 61 304 q 88 328 75 325 q 121 332 101 332 l 176 332 q 235 335 207 332 q 269 339 263 339 l 296 335 q 328 299 328 325 q 319 276 328 285 z "},"":{"ha":860,"x_min":0,"x_max":828,"o":"m 828 451 q 664 113 828 261 q 289 -36 500 -36 q 114 6 186 -36 q 0 224 0 72 q 173 613 0 408 q 514 818 346 818 q 565 810 546 818 q 597 788 583 803 q 743 681 683 749 q 828 451 828 583 m 724 611 q 686 667 704 647 q 596 732 668 686 q 575 729 582 729 q 526 746 550 729 l 438 736 l 376 711 q 232 589 318 688 q 110 418 154 499 q 66 314 79 363 q 53 224 53 265 q 71 132 53 172 q 106 78 83 103 q 204 19 143 36 q 300 8 246 8 q 469 46 389 8 q 615 146 538 78 q 767 447 767 278 q 724 611 767 533 m 575 179 q 542 150 575 150 q 497 164 524 150 q 408 220 451 189 q 322 288 364 251 q 289 299 304 290 q 261 319 274 307 q 246 228 253 294 q 210 161 239 161 q 188 170 196 161 q 179 193 179 179 q 196 271 179 213 q 244 425 197 275 q 299 578 282 543 q 338 614 315 614 q 363 588 363 614 q 360 575 363 582 q 346 547 353 561 q 488 606 411 606 q 551 581 532 606 q 567 522 567 561 q 506 389 567 454 q 350 317 438 317 q 451 247 392 282 q 524 204 494 221 q 564 201 553 204 q 575 179 575 199 m 518 511 q 478 554 518 554 q 365 513 421 554 q 275 371 296 461 q 307 367 296 372 q 325 353 318 363 q 449 401 381 346 q 518 511 518 456 z "},"":{"ha":471,"x_min":-90,"x_max":536,"o":"m 510 1110 q 519 1081 519 1100 q 489 1021 519 1038 q 471 1017 481 1017 q 444 1026 454 1017 q 435 1057 435 1036 q 440 1085 435 1074 q 486 1118 456 1118 q 510 1110 501 1118 m 344 1108 q 356 1075 356 1097 q 342 1032 356 1047 q 311 1017 328 1017 q 290 1024 297 1017 q 274 1065 274 1036 q 292 1106 274 1088 q 321 1118 307 1118 q 344 1108 335 1118 m 536 947 q 506 907 536 919 q 438 893 486 899 q 335 594 368 690 q 244 346 279 435 q 118 32 204 240 l 163 31 q 194 19 183 31 q 206 -4 206 8 q 190 -26 206 -15 q 143 -37 174 -37 q 104 -37 122 -37 q 69 -39 86 -37 q -56 -27 -22 -39 q -90 7 -90 -15 q -72 32 -90 24 q -25 40 -54 40 l 35 36 q 203 445 96 161 q 357 886 310 729 q 283 894 304 886 q 263 924 263 903 q 286 954 263 946 q 335 963 310 963 l 465 971 q 499 972 489 972 q 526 967 517 972 q 536 947 536 963 z "},"":{"ha":682,"x_min":131,"x_max":551,"o":"m 551 736 q 490 599 551 657 q 346 540 429 540 q 191 595 251 540 q 131 732 131 650 q 191 877 131 818 q 336 936 251 936 q 478 890 418 936 q 551 736 551 835 m 481 736 q 441 831 481 793 q 342 869 401 869 q 245 833 289 869 q 201 739 201 796 q 236 642 201 679 q 333 604 271 604 q 444 647 403 604 q 481 736 481 685 z "},"":{"ha":657,"x_min":36,"x_max":563,"o":"m 563 263 q 549 235 563 242 q 515 228 536 228 l 440 229 l 342 228 q 308 121 325 174 q 276 65 297 89 q 259 51 269 58 q 238 44 249 44 q 219 60 224 44 l 219 81 q 249 140 233 108 q 279 228 264 172 q 191 220 222 222 q 149 218 160 218 q 97 225 118 218 q 76 253 76 232 q 86 279 76 268 q 117 290 96 290 q 179 289 126 290 q 294 288 232 288 q 339 442 317 364 q 413 526 369 526 q 429 508 429 526 q 424 485 429 497 q 418 472 418 474 q 385 381 404 443 q 358 288 365 319 q 422 291 382 288 q 471 294 461 294 q 501 296 490 296 q 546 290 529 296 q 563 263 563 283 m 469 -10 q 455 -37 469 -31 q 415 -43 440 -43 l 389 -43 l 310 -42 q 157 -45 201 -42 q 83 -51 113 -49 q 48 -43 60 -51 q 36 -18 36 -35 q 61 18 36 6 q 81 22 72 22 q 114 19 103 19 l 189 17 q 365 21 310 17 q 424 25 421 25 q 459 15 449 25 q 469 -10 469 4 z "},"":{"ha":471,"x_min":-90,"x_max":536,"o":"m 536 947 q 506 907 536 919 q 438 893 486 899 q 335 594 368 690 q 244 346 279 435 q 118 32 204 240 l 163 31 q 194 19 183 31 q 206 -4 206 8 q 190 -26 206 -15 q 143 -37 174 -37 q 104 -37 122 -37 q 69 -39 86 -37 q -56 -27 -22 -39 q -90 7 -90 -15 q -72 32 -90 24 q -25 40 -54 40 l 35 36 q 203 445 96 161 q 357 886 310 729 q 283 894 304 886 q 263 924 263 903 q 286 954 263 946 q 335 963 310 963 l 465 971 q 499 972 489 972 q 526 967 517 972 q 536 947 536 963 z "},"":{"ha":328,"x_min":29,"x_max":328,"o":"m 247 599 q 228 552 247 572 q 189 532 210 532 q 158 544 172 532 q 143 579 143 557 q 160 624 143 606 q 201 642 176 642 q 234 633 221 642 q 247 599 247 624 m 321 276 q 266 171 306 233 q 194 69 226 108 q 133 10 161 31 q 82 -11 104 -11 q 42 13 54 -11 q 29 76 29 38 q 33 136 29 108 q 44 188 38 164 q 111 393 68 296 q 140 437 124 421 q 172 453 156 453 q 194 443 185 453 q 204 419 204 433 q 197 394 204 410 q 175 349 185 369 q 131 240 154 304 q 94 126 107 176 q 88 76 88 96 q 101 47 88 47 q 131 68 114 47 q 211 190 169 113 q 268 303 239 246 q 285 325 274 314 q 307 336 296 336 q 328 311 328 336 q 321 276 328 296 z "},"":{"ha":622,"x_min":42,"x_max":608,"o":"m 608 544 q 574 474 608 492 q 528 465 557 465 q 481 469 504 465 q 420 482 457 472 q 358 496 383 492 q 296 500 333 500 q 139 393 192 500 q 96 188 96 307 q 115 81 96 119 q 172 43 135 43 q 268 169 242 43 q 333 393 306 349 q 358 428 346 414 q 392 450 378 450 q 417 441 404 450 q 429 410 429 432 q 425 386 429 406 q 403 352 421 367 q 378 326 385 338 q 360 290 367 310 q 339 217 349 263 q 317 124 318 126 q 262 28 299 64 q 169 -7 225 -7 q 101 14 129 -7 q 42 185 42 63 q 56 293 42 233 q 97 406 71 353 q 182 514 133 478 q 260 549 211 536 q 354 561 308 561 q 418 556 408 561 q 522 535 439 544 q 542 567 532 550 q 582 588 557 588 q 602 575 596 588 q 608 544 608 563 z "},"":{"ha":801,"x_min":0,"x_max":801,"o":"m 801 300 q 794 265 801 286 q 775 217 786 243 q 708 113 756 174 q 613 13 657 46 q 582 -8 590 -3 q 538 -24 557 -24 q 503 -3 515 -24 q 490 47 490 17 q 501 122 490 74 q 524 224 511 171 q 547 312 538 278 q 553 356 557 346 q 542 359 549 364 q 507 325 535 354 q 432 238 451 264 q 308 56 378 157 q 250 -1 269 -1 q 232 28 232 -1 q 236 61 232 42 q 244 100 240 81 l 275 246 l 290 328 q 296 368 296 353 q 286 383 296 383 q 266 374 276 383 q 246 353 256 365 q 150 199 192 289 q 92 26 108 108 q 76 -93 76 -56 q 79 -135 76 -119 q 89 -193 89 -189 q 74 -231 89 -221 q 42 -240 60 -240 q 15 -222 26 -240 q 0 -150 0 -197 q 8 -60 0 -106 q 29 29 13 -35 q 125 278 67 171 q 236 431 174 367 q 292 476 265 460 q 338 493 318 493 q 370 476 361 493 q 379 433 379 458 q 376 401 379 415 l 343 214 l 374 257 q 466 366 406 303 q 560 450 526 429 q 600 464 582 464 q 635 415 635 464 q 631 388 635 408 q 615 315 628 367 q 577 163 589 210 q 565 96 565 115 q 564 72 564 76 q 572 63 564 63 q 594 72 579 63 q 682 169 646 111 q 735 290 718 228 q 749 323 742 315 q 772 331 757 331 q 788 329 785 331 q 801 300 801 322 z "},"":{"ha":1249,"x_min":83,"x_max":1250,"o":"m 1243 881 q 1250 860 1250 869 q 1240 833 1250 843 q 1206 822 1229 822 q 1173 828 1194 822 q 1117 839 1151 833 q 1042 844 1083 844 l 926 569 q 849 369 875 447 q 822 289 835 329 q 772 140 796 214 q 747 36 747 67 q 754 3 747 19 q 761 -19 761 -14 q 753 -39 761 -29 q 715 -54 740 -54 q 678 -39 692 -54 q 667 -22 669 -31 q 665 3 665 -14 q 722 239 665 69 q 960 844 788 432 q 829 843 881 844 q 733 840 778 842 q 635 608 707 785 q 503 271 547 397 q 438 36 438 88 q 444 3 438 19 q 451 -19 451 -14 q 443 -39 451 -29 q 406 -54 431 -54 q 367 -39 382 -54 q 353 11 353 -24 q 368 104 353 49 q 404 217 372 118 q 313 206 356 206 q 153 250 214 206 q 83 392 83 300 q 89 453 83 425 q 113 521 94 481 q 225 690 150 611 q 375 808 289 758 q 671 907 508 886 q 710 924 690 924 q 746 907 726 924 q 866 908 808 907 q 981 911 924 910 q 1017 924 1000 924 q 1050 913 1035 924 q 1169 906 1110 913 q 1243 881 1229 900 m 649 836 l 553 814 q 390 744 467 794 q 218 565 288 678 q 177 480 190 519 q 164 406 164 440 q 211 300 164 339 q 321 265 253 265 q 428 292 379 265 q 481 425 453 350 q 519 528 494 464 l 649 836 z "},"":{"ha":271,"x_min":43,"x_max":176,"o":"m 174 308 q 158 288 171 301 q 130 269 144 275 q 97 263 115 263 q 56 276 69 263 q 43 306 43 289 q 54 333 43 321 q 117 361 76 361 q 160 348 143 361 q 176 321 176 335 q 174 308 176 317 z "},"":{"ha":421,"x_min":29,"x_max":410,"o":"m 399 718 q 407 690 407 710 q 393 645 407 665 q 357 625 379 625 q 333 635 343 625 q 324 667 324 644 q 338 712 324 696 q 375 728 353 728 q 399 718 389 728 m 243 714 q 251 685 251 703 q 238 644 251 663 q 203 626 225 626 q 180 636 189 626 q 171 669 171 646 q 187 713 171 699 q 219 728 203 728 q 243 714 232 728 m 394 268 q 326 129 368 196 q 219 11 275 47 q 140 -15 179 -15 q 63 22 92 -15 q 29 150 29 65 q 70 353 29 249 q 163 507 111 457 q 200 531 181 524 q 233 539 219 539 q 279 521 260 539 q 307 444 307 494 q 258 285 307 353 q 135 217 208 217 q 103 221 119 217 q 96 151 96 190 q 108 76 96 107 q 147 46 119 46 q 193 63 165 46 q 293 179 244 96 q 350 317 338 254 q 360 350 356 340 q 386 371 369 371 q 403 365 396 371 q 410 336 410 358 q 394 268 410 310 m 247 431 q 238 465 247 457 q 224 472 228 472 q 167 410 200 472 q 117 282 135 349 q 146 275 129 275 q 219 332 188 275 q 247 431 247 382 z "},"":{"ha":2257,"x_min":14,"x_max":2243,"o":"m 2113 497 q 2033 284 2113 381 q 1851 188 1953 188 q 1753 219 1794 188 q 1696 354 1696 263 q 1807 575 1696 475 q 1985 664 1906 664 q 2081 619 2049 664 q 2113 497 2113 575 m 2243 39 q 2233 16 2243 26 q 2193 6 2222 6 q 2129 8 2171 6 q 2068 11 2088 11 q 1978 4 2039 11 q 1853 -9 1918 -3 q 1738 -22 1789 -15 q 1661 -29 1686 -29 q 1606 -19 1624 -29 q 1589 10 1589 -8 q 1612 49 1589 43 q 1649 56 1635 56 l 1781 54 q 1988 60 1885 54 q 2194 72 2092 65 q 2230 63 2217 72 q 2243 39 2243 54 m 2106 964 q 2099 940 2106 951 q 2082 929 2093 929 q 2008 942 2065 929 q 1917 956 1951 956 q 1785 872 1849 956 q 1717 772 1764 844 q 1617 610 1669 700 q 1522 440 1574 536 q 1431 267 1488 375 q 1372 123 1375 158 q 1368 49 1369 88 q 1319 -1 1360 -1 q 1272 35 1283 -1 q 1260 143 1260 72 q 1260 196 1260 169 q 1261 250 1260 222 q 1250 404 1261 300 q 1228 617 1229 604 q 1217 896 1217 757 q 1209 935 1217 924 q 1193 946 1201 946 q 1152 895 1181 946 q 1108 818 1124 844 l 961 564 l 782 250 q 614 31 682 90 q 419 -42 532 -42 q 282 -7 347 -42 q 90 200 171 51 q 34 342 54 265 q 14 497 14 419 q 108 724 14 643 q 346 806 203 806 q 481 792 411 806 q 642 739 550 779 q 698 709 683 721 q 713 689 713 697 q 690 660 713 660 q 670 665 682 660 q 653 672 658 669 q 547 711 594 697 q 400 733 472 733 q 183 650 260 733 q 114 453 114 574 q 124 364 114 407 q 195 193 144 272 q 313 72 246 114 q 442 29 381 29 q 601 113 524 29 q 736 307 656 171 l 824 463 l 908 614 l 1079 893 q 1126 971 1121 964 q 1194 1015 1160 1015 q 1268 963 1247 1015 q 1283 874 1278 938 q 1290 790 1283 819 q 1308 564 1308 715 l 1325 319 l 1332 221 l 1368 288 q 1499 531 1433 410 q 1599 711 1564 653 q 1686 851 1640 783 q 1829 1006 1761 963 q 1957 1040 1885 1040 q 2065 1017 2024 1040 q 2106 964 2106 993 m 2053 511 q 2035 583 2053 561 q 1986 604 2018 604 q 1837 523 1919 604 q 1754 360 1754 442 q 1785 274 1754 304 q 1847 247 1811 247 q 1988 326 1922 247 q 2053 511 2053 404 z "},"":{"ha":568,"x_min":33,"x_max":543,"o":"m 543 376 q 515 318 543 349 q 464 288 488 288 q 439 297 444 288 q 433 317 433 307 q 444 342 433 325 q 454 379 454 358 q 432 447 454 418 q 371 475 410 475 q 240 388 308 475 q 153 225 186 317 l 211 232 q 260 236 239 236 q 299 229 279 236 q 325 208 319 222 q 326 190 326 206 q 315 178 326 182 q 283 174 304 174 q 208 172 238 174 q 138 163 179 169 q 135 126 135 138 q 175 31 135 60 q 253 8 206 8 q 363 42 308 8 q 453 122 418 76 q 479 151 468 143 q 503 160 490 160 q 518 153 510 160 q 526 138 526 146 q 442 26 526 92 q 244 -47 346 -47 q 115 1 164 -47 q 65 118 65 49 q 68 147 65 128 q 42 156 51 144 q 33 185 33 168 q 54 206 33 203 l 75 208 q 203 446 114 354 q 381 538 292 538 q 489 488 451 538 q 521 404 514 453 q 543 376 543 393 z "},"":{"ha":535,"x_min":31,"x_max":481,"o":"m 476 247 q 481 231 481 236 q 456 187 481 224 q 399 114 432 150 q 349 65 386 101 q 314 36 321 40 q 281 24 294 24 q 262 31 269 24 q 254 50 254 38 q 267 78 254 65 q 290 103 274 88 q 325 136 307 119 l 368 182 l 404 226 l 392 249 q 360 302 369 289 q 329 338 351 315 q 319 350 328 339 q 307 379 307 367 q 318 403 307 393 q 343 414 329 414 q 375 400 358 414 q 390 383 381 396 q 437 319 408 364 q 476 247 465 274 m 299 224 q 294 207 299 217 q 269 175 289 197 q 183 88 233 133 q 86 14 122 33 q 72 9 81 13 q 58 6 64 6 q 39 13 47 6 q 31 32 31 21 q 40 56 31 44 q 85 97 50 68 q 143 144 115 121 q 196 193 171 167 l 224 222 l 213 242 q 165 313 186 288 q 135 349 143 339 q 121 379 121 363 q 132 403 121 392 q 161 414 143 414 q 197 400 176 414 q 249 332 218 386 q 290 250 271 293 l 299 224 z "},"":{"ha":328,"x_min":-404,"x_max":386,"o":"m 386 597 q 374 557 386 574 q 322 535 357 535 q 279 553 293 535 q 265 592 265 572 q 281 627 265 613 q 325 642 297 642 q 370 628 354 642 q 386 597 386 615 m 300 388 q 254 307 256 308 q 225 225 239 275 q 167 -4 201 146 q 138 -103 156 -50 q -37 -367 75 -282 q -215 -429 -121 -429 q -352 -377 -300 -429 q -404 -253 -404 -325 q -373 -173 -404 -210 q -300 -136 -342 -136 q -268 -147 -281 -136 q -256 -174 -256 -158 q -287 -204 -256 -204 l -307 -203 q -329 -217 -319 -203 q -339 -254 -339 -232 q -305 -340 -339 -304 q -217 -375 -271 -375 q -129 -357 -171 -375 q -6 -253 -60 -328 q 108 17 68 -153 q 174 299 140 157 q 271 438 214 438 q 308 411 308 438 q 300 388 308 403 z "},"":{"ha":732,"x_min":-108,"x_max":829,"o":"m 813 701 q 770 596 794 640 q 728 540 746 551 q 696 528 711 528 q 666 542 678 528 q 654 574 654 556 q 665 611 654 592 q 689 644 667 613 q 739 731 725 694 q 753 799 753 767 q 714 886 753 850 q 572 932 664 932 q 459 917 529 932 q 308 860 389 903 q 178 756 217 811 q 146 668 146 711 q 167 595 146 635 q 265 492 189 556 q 411 379 317 449 q 546 271 506 310 q 594 209 575 242 q 614 143 614 176 q 574 56 614 100 q 484 -11 539 17 q 367 -50 429 -39 q 247 -61 304 -61 q 60 -31 142 -61 q -49 33 -7 -6 q -92 97 -76 61 q -108 165 -108 132 q -100 214 -108 190 q -42 267 -81 267 q -10 242 -10 267 q -23 208 -10 232 q -36 161 -36 185 q -2 81 -36 119 q 103 18 32 43 q 171 1 133 7 q 249 -6 208 -6 q 415 24 339 -6 q 525 108 490 54 q 542 158 542 136 q 519 211 542 186 q 467 257 504 229 q 235 430 349 343 q 90 592 122 517 q 79 624 86 600 q 72 671 72 649 q 108 779 72 725 q 250 907 156 851 q 415 976 331 954 q 571 997 500 997 q 709 974 653 997 q 794 911 765 950 q 821 857 813 888 q 829 799 829 826 q 824 749 829 774 q 813 701 819 725 z "},"":{"ha":449,"x_min":22,"x_max":444,"o":"m 444 403 q 429 313 444 361 q 376 233 408 247 q 356 229 368 229 q 342 233 349 229 q 324 263 324 243 q 330 285 324 272 q 338 301 336 297 q 363 349 357 335 q 374 399 374 374 q 351 458 374 442 q 279 474 329 474 q 207 456 244 474 q 147 414 169 439 q 117 340 117 379 q 122 306 117 322 q 147 267 128 290 q 219 204 167 243 q 289 152 265 171 q 326 115 313 133 q 347 61 347 89 q 304 4 347 22 q 217 -10 269 -10 q 65 26 118 -10 q 22 96 22 56 q 39 138 22 118 q 75 157 56 157 q 100 138 100 157 q 92 116 100 126 q 85 96 85 106 q 95 74 85 85 q 123 56 106 64 q 178 44 140 49 q 249 39 217 39 q 276 47 264 39 q 285 56 278 49 q 265 96 285 76 q 181 160 244 115 q 107 217 132 193 q 67 264 76 244 q 56 299 58 283 q 53 332 53 314 q 75 412 53 371 q 138 482 97 453 q 261 529 188 517 l 317 533 q 410 501 376 533 q 444 403 444 468 z "},"":{"ha":328,"x_min":29,"x_max":328,"o":"m 317 675 q 326 646 326 665 q 296 586 326 603 q 278 582 288 582 q 251 592 261 582 q 242 622 242 601 q 247 650 242 639 q 293 683 263 683 q 317 675 308 683 m 151 674 q 163 640 163 663 q 149 597 163 613 q 118 582 135 582 q 97 589 104 582 q 81 631 81 601 q 99 671 81 653 q 128 683 114 683 q 151 674 142 683 m 321 276 q 266 171 306 233 q 194 69 226 108 q 133 10 161 31 q 82 -11 104 -11 q 42 13 54 -11 q 29 76 29 38 q 33 136 29 108 q 44 188 38 164 q 111 393 68 296 q 140 437 124 421 q 172 453 156 453 q 194 443 185 453 q 204 419 204 433 q 197 394 204 410 q 175 349 185 369 q 131 240 154 304 q 94 126 107 176 q 88 76 88 96 q 101 47 88 47 q 131 68 114 47 q 211 190 169 113 q 268 303 239 246 q 285 325 274 314 q 307 336 296 336 q 328 311 328 336 q 321 276 328 296 z "},"":{"ha":768,"x_min":-62,"x_max":746,"o":"m 746 465 q 729 431 746 446 q 651 401 706 410 q 618 192 635 318 q 601 -12 601 65 l 604 -99 q 574 -133 604 -133 q 538 -112 553 -133 q 518 -36 518 -86 q 538 160 518 31 q 576 382 557 289 q 117 264 351 332 l 111 246 l 32 40 q 2 -12 17 3 q -35 -26 -12 -26 q -53 -18 -43 -26 q -62 0 -62 -10 q -32 99 -62 28 q 38 247 -31 103 q 7 242 22 242 q -26 253 -12 242 q -40 281 -40 264 q -4 315 -40 306 q 68 332 32 324 q 388 908 229 690 q 619 1111 535 1111 q 694 1026 674 1111 q 708 889 708 971 q 697 690 708 793 q 668 478 694 663 q 714 486 693 486 q 728 485 719 486 q 740 479 735 485 q 746 465 746 474 m 642 900 q 630 995 642 968 q 600 1022 618 1022 q 375 764 535 1022 q 156 347 233 536 q 589 456 392 411 q 624 690 606 550 q 642 900 642 831 z "},"":{"ha":840,"x_min":14,"x_max":896,"o":"m 896 851 q 888 833 896 843 q 869 824 879 824 q 808 831 838 824 q 744 842 778 839 q 656 844 711 844 l 618 844 q 481 838 606 844 q 365 835 431 835 q 300 697 332 769 q 256 593 275 642 l 329 586 q 550 526 446 575 q 763 324 707 454 q 781 236 781 282 q 775 190 781 211 q 753 140 769 168 q 651 43 719 85 q 514 -15 590 6 q 304 -36 438 -36 q 171 -27 228 -36 q 78 3 114 -18 q 28 49 42 24 q 14 106 14 74 q 16 133 14 119 q 29 182 18 146 q 117 432 68 306 l 156 532 q 133 529 139 529 q 101 550 101 529 q 119 582 101 572 q 178 592 136 592 q 239 738 210 669 q 278 832 264 796 q 149 825 221 832 q 103 822 119 822 q 64 837 74 822 q 54 871 54 851 q 67 899 54 888 q 104 910 81 910 q 143 901 119 910 q 233 903 189 901 q 319 906 276 904 q 340 917 326 910 q 363 924 354 924 q 393 907 376 924 q 494 910 408 907 q 646 913 581 913 l 714 913 q 844 901 793 913 q 896 851 896 889 m 690 307 q 561 447 660 386 q 363 521 471 503 q 231 533 293 533 q 154 347 197 461 q 90 161 106 221 q 85 140 86 147 q 83 119 83 133 q 106 65 83 86 q 197 31 133 39 q 264 25 224 26 q 308 24 304 24 q 529 60 432 24 q 669 156 626 96 q 701 249 701 199 q 690 307 701 281 z "},"":{"ha":1106,"x_min":14,"x_max":1092,"o":"m 1092 835 q 972 655 1092 740 q 654 535 853 569 q 769 496 714 518 q 875 444 825 474 q 958 383 925 415 q 1021 281 1007 335 q 1024 260 1022 269 q 1026 235 1026 250 q 1004 149 1026 188 q 915 59 978 101 q 760 -6 851 17 q 567 -29 669 -29 q 332 13 435 -29 q 269 52 288 31 q 250 100 250 74 q 251 119 250 111 q 263 150 253 128 l 392 485 l 328 485 q 282 492 296 485 q 268 515 268 499 q 315 553 268 543 q 425 564 363 564 l 519 818 q 547 863 531 849 q 578 878 563 878 q 615 849 603 878 q 618 831 618 843 q 601 778 618 811 q 586 746 590 756 l 508 572 q 640 588 574 572 q 800 638 707 603 q 976 739 915 679 q 1028 835 1028 789 q 929 932 1028 894 q 624 974 821 974 q 442 956 532 974 q 275 907 353 939 q 121 808 171 865 q 78 706 78 760 q 113 632 78 657 q 138 614 135 617 q 149 583 149 603 q 141 572 149 576 q 115 568 133 568 q 44 610 75 568 q 14 714 14 651 q 60 835 14 778 q 236 956 117 906 q 419 1010 325 992 q 607 1029 514 1029 q 811 1019 715 1029 q 979 978 907 1008 q 1053 929 1025 958 q 1092 835 1092 889 m 953 221 q 900 336 953 279 q 675 458 828 414 q 578 479 626 472 q 474 486 531 486 l 424 365 q 386 268 393 288 q 342 139 361 201 q 336 108 336 119 q 365 66 336 85 q 469 36 393 47 q 571 29 521 29 q 722 43 649 29 q 899 122 836 68 q 953 221 953 169 z "},"":{"ha":792,"x_min":65,"x_max":960,"o":"m 960 851 q 951 833 960 843 q 933 824 943 824 q 872 831 901 824 q 808 842 842 839 q 719 844 775 844 l 682 844 q 549 838 667 844 q 442 835 501 835 l 408 761 q 283 457 346 624 q 194 207 254 381 q 169 126 182 167 q 149 36 149 54 q 156 10 149 26 q 163 -14 163 -6 q 151 -42 163 -31 q 114 -54 140 -54 q 76 -37 88 -54 q 65 6 65 -19 q 79 93 65 39 q 159 337 101 179 q 356 832 217 494 q 283 828 335 832 q 213 824 232 824 q 179 822 192 822 q 136 831 154 822 q 118 863 118 839 q 130 896 118 882 q 167 910 142 910 q 207 901 183 910 q 297 903 253 901 q 386 906 342 904 q 425 924 408 924 q 440 922 435 924 q 457 907 444 919 q 558 910 472 907 q 710 913 644 913 l 778 913 q 908 901 857 913 q 960 851 960 889 z "},"":{"ha":1146,"x_min":13,"x_max":1132,"o":"m 1122 647 q 1132 551 1132 600 q 1126 470 1132 508 q 1099 376 1121 432 q 906 119 1042 228 q 642 -8 783 22 q 583 -18 613 -15 q 528 -21 553 -21 q 398 5 449 -21 q 347 64 347 31 q 356 99 347 75 q 375 163 371 142 q 436 365 399 263 q 501 524 458 428 q 568 671 550 631 q 610 780 597 735 q 631 840 622 825 q 679 871 647 871 q 710 855 700 871 q 721 822 721 839 q 694 769 721 808 q 667 721 679 747 q 553 461 613 607 q 456 190 488 300 q 441 132 446 157 q 436 90 436 107 q 451 57 436 65 q 533 43 475 43 q 679 68 608 43 q 874 182 782 104 q 1036 408 992 281 q 1061 553 1061 482 q 953 819 1061 713 q 651 933 838 933 q 273 810 458 933 q 88 557 88 688 q 93 514 88 532 q 135 456 104 478 q 203 426 161 438 q 238 413 224 422 q 251 383 251 404 q 247 375 251 379 q 214 364 236 364 l 192 367 q 60 435 108 386 q 13 550 13 485 q 60 690 13 617 q 229 858 118 782 q 478 972 346 939 q 658 996 568 996 q 731 993 697 996 q 796 982 765 990 q 994 876 910 954 q 1122 647 1093 785 z "},"":{"ha":793,"x_min":-18,"x_max":878,"o":"m 849 768 q 771 664 822 717 q 661 589 711 603 q 639 586 653 586 q 607 593 619 586 q 594 613 594 600 q 631 661 594 654 q 717 696 692 674 q 770 758 749 725 q 801 826 792 790 q 807 867 807 847 q 774 935 807 911 q 683 960 742 960 q 571 941 636 960 q 426 879 506 922 q 289 781 336 831 q 253 729 264 754 q 242 682 242 704 q 385 590 242 613 q 522 571 453 581 q 559 555 547 567 q 571 524 571 543 q 543 493 571 504 q 500 482 532 489 q 215 390 328 451 q 65 257 101 329 q 47 189 47 222 q 60 140 47 163 q 96 94 72 117 q 192 45 131 64 q 311 26 254 26 q 453 43 381 26 q 579 96 526 60 q 642 147 593 106 q 693 175 674 175 q 721 136 721 175 q 674 76 721 113 q 599 31 639 50 q 492 -10 550 6 q 339 -31 415 -31 q 172 -13 238 -31 q 67 32 107 4 q 1 105 19 64 q -18 183 -18 146 q -6 250 -18 217 q 174 435 35 357 q 276 483 221 461 q 389 521 331 504 q 246 565 307 531 q 165 682 165 611 q 196 774 165 722 q 365 922 244 851 q 596 1013 486 992 q 717 1022 653 1022 q 835 983 793 1022 q 878 878 878 943 q 849 768 878 826 z "},"":{"ha":1313,"x_min":14,"x_max":1451,"o":"m 1451 899 q 1425 858 1451 869 q 1372 851 1408 851 l 1349 851 q 1204 801 1294 851 q 892 596 1114 750 l 814 542 l 836 481 q 897 314 867 397 q 992 125 943 199 q 1125 -1 1056 28 q 1182 -14 1158 -14 q 1222 -7 1199 -14 q 1258 6 1254 4 q 1288 11 1276 11 q 1301 -4 1301 11 q 1267 -51 1301 -31 q 1183 -71 1233 -71 q 1128 -65 1153 -71 q 1072 -42 1104 -58 q 926 101 994 1 q 806 356 851 214 l 771 461 l 674 179 q 667 149 672 174 q 663 110 663 125 q 663 57 663 83 q 639 6 658 26 q 599 -15 619 -15 q 571 -1 583 -15 q 558 44 558 13 q 568 104 558 71 q 642 306 592 186 q 704 454 693 426 l 719 492 l 632 436 q 489 333 558 389 q 238 107 389 253 q 169 28 222 92 q 117 -15 135 -15 q 97 1 106 -15 q 89 36 89 18 q 100 74 89 54 q 160 147 118 106 q 261 240 210 197 q 368 324 296 269 q 531 442 464 397 q 650 521 604 490 l 729 574 l 651 763 q 576 901 611 857 q 443 975 518 975 q 356 953 401 975 q 165 779 247 901 q 89 575 89 665 q 119 488 89 528 q 229 429 158 436 l 283 429 l 311 432 q 344 413 344 432 q 315 389 344 399 q 244 379 286 379 q 163 390 203 379 q 90 424 122 400 q 30 497 46 456 q 14 583 14 539 q 111 814 14 688 q 310 989 201 932 q 457 1031 389 1031 q 626 939 554 1031 q 722 760 671 883 l 774 638 q 874 868 850 817 q 907 936 897 919 q 944 979 922 964 q 989 994 967 994 q 1013 983 1003 994 q 1022 949 1022 972 q 992 893 1022 926 q 931 819 944 842 q 883 727 917 797 q 832 621 849 657 l 918 682 q 1062 780 950 706 q 1196 868 1174 854 q 1322 932 1268 913 q 1381 946 1360 946 q 1438 929 1419 946 q 1451 899 1451 917 z "},"":{"ha":933,"x_min":42,"x_max":933,"o":"m 933 806 q 864 607 933 706 q 740 479 815 539 q 843 279 843 404 q 830 201 843 240 q 790 126 817 163 q 622 3 732 50 q 390 -43 513 -43 q 158 3 251 -43 q 64 108 64 50 q 76 144 64 131 q 103 157 88 157 q 139 135 125 157 q 160 92 153 104 q 254 33 182 53 q 386 18 311 18 q 622 71 524 18 q 743 185 706 115 q 768 286 768 231 q 688 444 768 386 q 572 385 638 408 q 442 361 506 361 q 360 385 389 361 q 331 449 331 410 q 388 531 331 499 q 526 563 444 563 q 622 547 575 563 q 689 517 657 536 q 818 661 768 574 q 864 814 864 742 q 814 942 864 893 q 657 994 760 994 q 499 968 588 994 q 274 854 378 932 q 132 690 171 776 q 114 615 114 650 q 131 563 114 579 q 169 539 149 551 q 190 504 190 526 q 175 472 190 486 q 142 458 160 458 q 99 476 122 458 q 63 514 75 494 q 42 596 42 546 q 52 666 42 631 q 88 743 63 701 q 285 936 153 853 q 521 1038 397 1007 q 664 1056 594 1056 q 862 990 790 1056 q 933 806 933 924 m 629 479 q 517 504 583 504 q 434 488 468 504 q 400 449 400 471 q 409 427 400 433 q 432 419 418 421 l 467 419 q 536 435 497 422 q 629 479 586 451 z "},"":{"ha":1217,"x_min":28,"x_max":1244,"o":"m 1244 842 q 1224 796 1244 832 q 1193 736 1210 771 q 1099 488 1143 631 q 1032 138 1032 276 q 1047 39 1032 85 q 1097 -15 1061 -7 q 1114 -17 1103 -17 q 1138 -15 1131 -15 q 1156 -36 1156 -15 q 1140 -56 1156 -49 q 1106 -62 1124 -62 q 1001 -6 1040 -62 q 961 136 961 50 q 974 263 961 193 q 1013 439 986 333 q 800 125 897 242 q 660 -3 726 38 q 586 -29 615 -29 q 514 -3 535 -29 q 493 68 493 22 q 501 131 493 96 q 524 207 510 167 l 683 650 q 721 769 713 728 q 729 839 729 810 q 710 911 729 885 q 611 953 679 953 q 562 949 588 953 q 501 933 536 944 q 281 810 382 894 q 117 596 168 717 q 93 494 93 542 q 129 400 93 436 q 238 364 165 364 q 307 369 276 364 q 369 390 338 375 q 400 404 389 400 q 432 413 419 413 q 460 392 460 413 q 393 333 460 361 q 238 306 326 306 q 76 360 131 306 q 28 492 28 408 q 35 557 28 526 q 57 624 42 588 q 226 840 107 739 q 478 982 344 940 q 619 1006 549 1006 q 743 972 699 1006 q 796 846 796 933 q 787 764 796 808 q 751 650 778 719 l 610 275 q 578 172 596 239 q 561 78 561 104 q 581 35 561 46 q 597 31 588 31 q 624 36 607 31 q 670 69 640 42 q 742 146 700 96 q 900 368 818 238 q 1028 590 964 471 q 1108 749 1063 656 l 1154 840 q 1173 863 1160 853 q 1207 874 1186 874 q 1233 863 1221 874 q 1244 842 1244 853 z "},"":{"ha":1251,"x_min":28,"x_max":1263,"o":"m 1263 1315 q 1249 1254 1263 1292 q 1206 1176 1235 1217 q 1133 1098 1178 1135 q 1046 1046 1088 1061 q 1006 1035 1029 1039 q 964 1031 982 1031 q 865 1059 906 1031 q 813 1136 824 1088 q 810 1154 811 1144 q 810 1168 810 1164 q 849 1272 810 1225 q 917 1314 883 1314 q 936 1304 931 1314 q 942 1288 942 1294 q 937 1269 942 1279 q 917 1249 932 1260 q 888 1231 901 1239 q 869 1206 876 1221 q 861 1171 861 1192 q 863 1157 861 1161 q 965 1090 878 1090 q 1032 1103 994 1090 q 1113 1151 1069 1117 q 1182 1224 1156 1185 q 1218 1306 1201 1253 q 1242 1338 1228 1338 q 1263 1315 1263 1338 m 1244 842 q 1224 796 1244 832 q 1193 736 1210 771 q 1099 488 1143 631 q 1032 138 1032 276 q 1047 39 1032 85 q 1097 -15 1061 -7 q 1114 -17 1103 -17 q 1138 -15 1131 -15 q 1156 -36 1156 -15 q 1140 -56 1156 -49 q 1106 -62 1124 -62 q 1001 -6 1040 -62 q 961 136 961 50 q 974 263 961 193 q 1013 439 986 333 q 800 125 897 242 q 660 -3 726 38 q 586 -29 615 -29 q 514 -3 535 -29 q 493 68 493 22 q 501 131 493 96 q 524 207 510 167 l 683 650 q 721 769 713 728 q 729 839 729 810 q 710 911 729 885 q 611 953 679 953 q 562 949 588 953 q 501 933 536 944 q 281 810 382 894 q 117 596 168 717 q 93 494 93 542 q 129 400 93 436 q 238 364 165 364 q 307 369 276 364 q 369 390 338 375 q 400 404 389 400 q 432 413 419 413 q 460 392 460 413 q 393 333 460 361 q 238 306 326 306 q 76 360 131 306 q 28 492 28 408 q 35 557 28 526 q 57 624 42 588 q 226 840 107 739 q 478 982 344 940 q 619 1006 549 1006 q 743 972 699 1006 q 796 846 796 933 q 787 764 796 808 q 751 650 778 719 l 610 275 q 578 172 596 239 q 561 78 561 104 q 581 35 561 46 q 597 31 588 31 q 624 36 607 31 q 670 69 640 42 q 742 146 700 96 q 900 368 818 238 q 1028 590 964 471 q 1108 749 1063 656 l 1154 840 q 1173 863 1160 853 q 1207 874 1186 874 q 1233 863 1221 874 q 1244 842 1244 853 z "},"":{"ha":882,"x_min":-29,"x_max":1026,"o":"m 1026 892 q 919 758 1026 846 q 693 603 838 692 q 499 492 583 536 q 560 410 536 463 q 612 196 596 332 q 633 35 628 60 q 699 -50 654 -50 q 727 -44 714 -50 q 752 -24 740 -39 q 776 5 764 -10 q 799 19 788 19 q 817 10 808 19 q 826 -10 826 1 q 813 -43 826 -24 q 750 -96 788 -78 q 692 -110 721 -110 q 637 -95 658 -110 q 597 -49 615 -81 q 569 50 579 -17 q 525 311 536 271 q 494 397 510 367 q 444 458 479 428 q 343 408 372 422 q 249 367 294 385 l 207 208 l 183 108 q 175 44 179 76 q 132 10 167 10 q 102 22 111 10 q 93 56 93 33 q 100 101 93 69 l 167 336 q 101 313 136 322 q 33 304 65 304 q -11 314 7 304 q -29 349 -29 324 q 15 447 -29 400 q 116 521 60 493 q 233 560 172 549 q 296 721 265 649 q 339 821 317 771 q 357 861 356 858 q 392 900 372 888 q 415 907 406 907 q 443 892 435 907 q 447 875 447 883 q 429 826 447 854 q 410 799 419 813 q 358 692 390 769 q 310 568 325 614 q 378 559 347 568 q 447 529 410 550 q 742 701 607 613 q 910 829 864 782 q 940 897 933 853 q 978 940 946 940 q 1015 925 1004 940 q 1026 892 1026 910 m 389 492 q 318 508 356 508 q 292 506 311 508 l 271 442 l 389 492 m 214 492 q 165 478 186 486 q 96 438 131 464 q 49 379 49 401 q 57 374 49 375 q 68 372 65 372 q 101 375 89 372 q 183 407 136 382 l 214 492 z "},"":{"ha":1244,"x_min":26,"x_max":1256,"o":"m 1256 -8 q 1241 -33 1256 -24 q 1208 -42 1226 -42 q 1188 -40 1199 -42 q 1163 -33 1176 -39 q 1065 42 1093 -8 q 1036 167 1036 92 q 1040 231 1036 200 q 1051 311 1043 263 q 1093 528 1065 400 q 1147 788 1133 714 q 1151 824 1151 811 q 1139 860 1151 850 q 1119 864 1133 864 q 1088 842 1107 864 q 1021 738 1063 813 q 819 318 1000 700 q 712 124 758 188 q 617 31 665 61 q 468 -10 553 -10 q 257 56 351 -10 q 134 183 190 103 q 52 340 78 263 q 26 490 26 418 q 44 605 26 551 q 92 697 61 658 q 186 774 133 750 q 306 797 239 797 q 441 783 376 797 q 569 744 506 769 q 643 711 613 728 q 694 665 694 683 q 676 643 694 643 q 653 647 664 643 q 632 660 643 651 q 532 700 592 681 q 349 731 431 731 q 158 663 222 731 q 93 485 93 594 q 104 396 93 444 q 206 194 131 282 q 367 78 276 113 q 478 56 428 56 q 650 150 576 56 q 769 364 694 206 q 861 557 840 513 q 947 728 919 678 q 1035 864 992 807 q 1083 914 1058 894 q 1153 942 1119 942 q 1206 914 1190 942 q 1222 840 1222 886 q 1215 763 1222 804 q 1200 689 1204 710 l 1161 489 l 1133 351 q 1117 258 1122 292 q 1107 164 1107 200 q 1119 85 1107 117 q 1164 35 1132 53 q 1217 21 1178 26 q 1256 -8 1256 15 z "},"":{"ha":1896,"x_min":0,"x_max":1776,"o":"m 1776 -12 q 1765 -32 1776 -24 q 1726 -40 1753 -40 q 1678 -31 1701 -40 q 1638 -10 1654 -22 q 1582 65 1600 17 q 1564 201 1564 114 q 1569 313 1564 250 q 1586 449 1575 375 q 1607 574 1597 524 q 1642 768 1636 738 q 1647 799 1643 778 q 1651 828 1651 819 q 1636 849 1651 849 q 1596 825 1617 849 q 1561 776 1585 813 q 1474 625 1538 739 q 1351 403 1443 572 q 1265 243 1276 267 q 1199 63 1232 153 q 1133 22 1176 22 q 1081 47 1096 22 q 1067 117 1067 72 q 1072 181 1067 143 q 1083 244 1074 190 l 1193 821 q 1201 862 1197 840 q 1204 899 1204 883 q 1198 932 1204 919 q 1176 944 1192 944 q 1094 843 1147 944 q 1044 743 1069 793 q 781 247 863 388 q 651 60 704 115 q 531 -22 599 4 q 410 -44 474 -44 q 254 4 333 -44 q 182 60 228 21 q 51 258 101 133 q 0 497 0 382 q 22 617 0 564 q 90 716 43 671 q 186 781 136 761 q 296 801 236 801 q 486 779 393 801 q 607 739 547 764 q 663 710 647 722 q 679 689 679 699 q 672 665 679 665 q 617 677 658 665 q 526 704 576 689 q 442 726 476 719 q 367 733 408 733 q 268 726 299 733 q 161 668 208 713 q 79 457 79 590 q 99 328 79 392 q 163 194 119 264 q 304 58 224 99 q 417 31 360 31 q 575 89 507 31 q 678 219 624 131 q 776 386 738 317 q 871 565 815 456 q 951 724 911 644 q 1060 918 1011 838 q 1111 986 1085 960 q 1197 1029 1154 1029 q 1261 993 1243 1029 q 1279 899 1279 957 q 1276 847 1279 867 q 1265 779 1274 826 l 1185 356 l 1165 203 l 1240 344 q 1388 608 1303 463 q 1556 879 1494 794 q 1599 928 1578 911 q 1658 951 1628 951 q 1711 922 1696 951 q 1726 850 1726 893 q 1725 820 1726 832 q 1721 792 1724 808 l 1650 336 q 1639 203 1639 267 q 1649 106 1639 144 q 1685 49 1660 67 q 1746 26 1692 43 q 1776 -12 1776 17 z "},"":{"ha":1235,"x_min":-54,"x_max":1372,"o":"m 1372 919 q 1351 868 1372 901 q 1292 763 1315 811 q 1193 553 1229 633 q 1092 303 1128 408 q 1044 96 1044 165 q 1043 71 1043 75 q 1047 36 1043 56 q 1050 13 1050 17 q 1039 -16 1050 -1 q 1004 -31 1028 -31 q 976 -20 986 -31 q 963 6 965 -10 q 960 25 960 22 q 964 57 960 39 q 971 89 968 75 l 994 190 q 890 197 933 196 q 807 199 846 199 q 628 190 710 199 l 596 101 q 586 66 589 82 q 582 43 583 50 q 586 26 582 36 q 590 6 590 17 q 572 -26 590 -12 q 532 -40 554 -40 q 506 -31 517 -40 q 490 11 490 -17 q 500 58 490 31 q 542 186 524 121 l 497 186 q 465 197 475 186 q 454 221 454 207 q 467 251 454 244 q 501 257 481 257 l 568 257 q 660 489 644 443 q 708 725 708 631 q 668 864 708 821 q 576 900 635 900 q 531 895 553 900 q 482 881 510 890 q 251 726 368 840 q 82 504 143 621 q 46 418 60 461 q 32 336 32 375 q 57 261 32 289 q 169 222 92 222 q 270 236 214 222 q 367 272 326 250 q 403 288 386 282 q 433 294 419 294 q 445 288 438 294 q 453 268 453 282 q 418 224 453 246 q 347 191 394 208 q 249 165 300 174 q 151 156 199 156 q -1 202 53 156 q -54 331 -54 249 q -35 431 -54 375 q 174 746 22 590 q 471 951 325 901 q 576 971 529 971 q 724 910 669 971 q 779 739 779 850 q 757 571 779 663 q 704 403 742 506 l 650 254 q 857 264 743 264 q 1015 257 925 264 l 1094 486 q 1190 717 1119 560 q 1292 924 1260 874 q 1320 950 1306 946 q 1354 954 1335 954 q 1367 943 1361 954 q 1372 919 1372 932 z "},"":{"ha":947,"x_min":60,"x_max":894,"o":"m 885 729 q 894 629 894 685 q 881 489 894 560 q 842 354 867 418 q 707 119 792 224 q 465 -61 599 -12 q 396 -81 429 -75 q 329 -86 363 -86 q 134 -6 208 -86 q 60 203 60 74 q 69 292 60 247 q 93 376 78 338 q 76 499 76 431 q 171 789 76 653 q 406 979 265 925 q 553 1008 481 1008 q 768 931 676 1008 q 885 729 860 853 m 824 614 q 743 858 824 772 q 554 938 669 938 q 472 926 517 938 q 331 856 397 907 q 219 732 264 804 q 171 623 186 679 q 156 521 156 567 l 186 576 q 310 753 242 678 q 463 867 388 838 q 536 882 501 882 q 588 870 568 882 q 607 844 607 858 q 604 831 606 835 q 583 814 597 817 q 556 811 569 811 q 532 813 547 811 q 511 814 517 814 q 477 809 492 814 q 435 785 463 804 q 324 674 381 747 q 224 514 267 600 q 199 460 206 476 q 172 385 182 421 q 259 263 192 308 q 415 217 326 217 q 543 243 481 217 q 563 249 550 246 q 582 251 576 251 q 601 236 601 251 q 594 208 601 217 q 560 188 583 194 q 487 167 518 174 q 408 161 456 161 q 275 185 335 161 q 143 288 199 215 q 129 194 129 246 q 164 64 129 115 q 225 6 188 29 q 308 -17 263 -17 q 394 -9 354 -17 q 478 18 435 -1 q 674 189 586 68 q 788 408 747 290 q 814 513 804 460 q 824 614 824 565 z "},"":{"ha":1176,"x_min":22,"x_max":1122,"o":"m 1114 618 q 1063 414 1094 535 q 1022 237 1038 317 q 1006 113 1006 157 q 1020 56 1006 71 q 1065 39 1035 40 q 1096 19 1096 38 q 1081 -10 1096 3 q 1043 -22 1067 -22 q 996 -8 1019 -22 q 953 41 965 11 q 942 114 942 71 q 944 159 942 133 q 953 224 947 185 q 981 363 960 264 q 1016 521 1001 463 q 1035 600 1031 579 q 1040 631 1040 621 q 1039 642 1040 633 q 1016 631 1031 642 q 986 604 1001 621 q 867 453 940 556 q 751 281 803 364 q 671 143 710 214 q 624 64 642 90 q 560 26 600 26 q 525 67 525 26 q 531 100 525 78 q 563 183 536 122 q 671 449 618 313 q 735 632 703 531 q 782 810 772 750 q 785 842 783 826 q 788 875 788 857 q 758 975 788 940 q 656 1014 725 1014 q 438 933 571 1014 q 211 739 304 853 q 104 493 104 608 q 158 370 104 415 q 299 325 211 325 q 370 333 333 325 q 440 354 407 340 q 465 363 451 360 q 488 367 479 367 q 506 353 506 367 q 507 338 507 343 q 498 313 507 322 q 472 297 489 304 q 306 265 394 265 q 99 326 175 265 q 22 490 22 388 q 35 575 22 529 q 233 863 75 718 q 515 1047 372 989 q 674 1083 607 1083 q 805 1031 758 1083 q 851 878 851 979 q 828 717 851 807 q 775 547 804 626 q 700 358 772 540 l 653 239 l 769 415 q 864 551 818 489 q 967 676 921 629 q 1010 711 986 696 q 1072 733 1044 733 q 1110 717 1099 733 q 1122 675 1122 701 q 1119 646 1122 663 q 1114 618 1117 629 z "},"":{"ha":1082,"x_min":32,"x_max":1136,"o":"m 1115 601 q 1022 451 1085 518 q 813 308 943 367 q 554 250 682 250 q 529 250 542 250 q 504 253 513 253 l 457 107 q 449 78 453 96 q 446 49 446 61 q 451 22 446 36 q 456 -1 456 7 q 408 -36 450 -36 q 377 -21 392 -36 q 363 21 363 -6 q 371 72 363 40 q 385 125 379 104 l 432 269 q 408 293 413 279 q 404 328 404 307 q 435 344 404 344 q 451 340 443 344 l 508 486 q 596 713 551 599 q 650 832 606 738 q 683 877 664 864 q 724 890 701 890 q 748 881 736 890 q 760 853 760 871 q 753 823 760 840 q 728 782 746 806 q 657 658 693 733 q 608 546 635 614 q 528 322 554 414 q 597 315 557 315 q 671 324 631 315 q 910 444 801 351 q 1049 643 1019 538 q 1058 710 1058 676 q 965 881 1058 817 q 725 946 872 946 q 611 936 665 946 q 417 876 519 921 q 240 769 315 831 q 151 676 185 725 q 118 594 118 628 q 142 518 118 547 q 304 464 186 464 q 347 460 329 464 q 364 438 364 456 q 342 408 364 415 q 278 401 321 401 q 76 475 140 401 q 32 597 32 526 q 64 697 32 646 q 136 782 89 738 q 323 906 206 847 q 556 990 440 964 q 631 1003 585 997 q 725 1010 678 1010 q 822 1003 778 1010 q 917 979 867 997 q 1079 874 1022 943 q 1136 713 1136 804 q 1115 601 1136 660 z "},"":{"ha":829,"x_min":29,"x_max":797,"o":"m 776 793 q 797 757 797 774 q 788 726 797 746 q 768 685 774 697 q 752 630 763 672 q 738 561 742 588 q 729 500 733 535 q 700 425 722 463 q 642 378 674 378 q 600 440 600 378 q 622 524 600 472 q 657 600 633 549 q 697 697 689 671 q 704 757 704 722 q 672 886 704 833 q 565 949 635 949 q 253 717 410 949 q 97 251 97 486 q 160 46 97 111 q 300 -8 213 -8 q 506 57 406 -8 q 676 210 576 103 q 703 239 689 224 q 743 263 726 263 q 774 226 774 263 q 703 135 774 200 q 544 7 606 46 q 293 -72 418 -72 q 110 -1 179 -72 q 29 242 29 82 q 205 760 29 507 q 569 1014 381 1014 q 713 958 663 1014 q 776 793 764 901 z "},"":{"ha":1588,"x_min":31,"x_max":1528,"o":"m 1525 622 q 1503 526 1518 583 q 1471 408 1488 469 q 1444 300 1446 308 q 1419 175 1431 238 q 1412 119 1415 151 q 1408 72 1408 86 q 1419 8 1408 32 q 1456 -17 1429 -17 l 1475 -15 q 1506 -42 1506 -15 q 1503 -56 1506 -51 q 1451 -74 1492 -74 q 1365 -25 1392 -74 q 1344 83 1344 14 q 1354 190 1344 139 q 1397 383 1369 274 q 1446 560 1432 510 q 1460 618 1460 611 q 1456 630 1460 626 q 1449 635 1453 633 q 1436 631 1443 635 q 1407 601 1429 628 q 1301 460 1364 551 q 1144 204 1218 338 q 1090 83 1107 118 q 1024 25 1061 25 q 997 37 1010 25 q 982 69 983 49 q 985 99 982 82 q 996 149 988 117 q 1079 426 1028 272 q 1150 636 1114 531 q 1167 694 1158 665 q 1171 717 1171 710 q 1160 732 1171 732 q 1143 726 1154 732 q 1122 710 1132 719 q 1004 568 1054 635 q 833 319 939 482 l 746 186 q 701 104 725 151 q 650 14 671 40 q 621 -16 635 -7 q 596 -25 607 -25 q 580 -20 588 -25 q 566 -7 572 -15 q 560 22 560 1 q 603 175 560 58 q 657 321 638 267 q 710 478 689 407 q 764 683 738 571 q 778 758 772 722 q 785 829 785 794 q 772 906 785 872 q 731 960 760 939 q 688 979 711 974 q 633 985 664 985 q 534 972 582 985 q 439 936 486 958 q 268 818 339 888 q 132 611 175 728 q 107 493 107 544 q 210 339 107 386 q 517 292 314 292 q 553 285 542 292 q 564 264 564 279 q 532 232 564 239 q 492 229 518 229 q 467 229 479 229 q 443 231 454 229 q 235 254 317 231 q 78 356 132 283 q 42 424 53 389 q 31 499 31 460 q 40 575 31 538 q 61 632 46 596 q 211 851 113 751 q 453 1013 319 961 q 542 1040 501 1031 q 629 1049 583 1049 q 782 999 726 1049 q 849 818 849 939 q 828 664 849 754 q 733 340 786 496 l 688 204 q 765 321 760 313 q 854 457 783 350 q 983 638 918 554 q 1126 790 1076 757 q 1188 813 1161 813 q 1242 739 1242 813 q 1229 668 1242 708 l 1207 600 l 1115 314 l 1081 203 q 1224 443 1165 353 q 1351 626 1269 514 q 1411 696 1383 672 q 1474 725 1444 725 q 1506 713 1492 725 q 1528 653 1528 693 q 1525 622 1528 644 z "},"":{"ha":1199,"x_min":25,"x_max":1207,"o":"m 1197 729 q 1160 624 1169 657 q 1135 488 1144 571 q 1097 183 1115 335 q 1024 -121 1069 4 q 869 -372 967 -276 q 689 -487 793 -449 q 475 -525 585 -525 q 290 -497 381 -525 q 85 -368 154 -457 q 28 -214 28 -296 q 60 -124 28 -164 q 129 -71 86 -90 q 172 -57 150 -61 q 213 -53 193 -53 q 300 -74 260 -53 q 349 -107 315 -82 q 369 -131 361 -117 q 376 -154 376 -144 q 358 -187 376 -176 q 336 -194 347 -194 q 317 -190 324 -194 q 286 -161 311 -186 q 244 -136 271 -147 q 194 -125 217 -125 q 131 -149 160 -125 q 103 -208 103 -174 q 129 -310 103 -267 q 196 -378 151 -346 q 326 -440 253 -419 q 479 -461 399 -461 q 660 -426 581 -461 q 853 -269 774 -378 q 960 -47 915 -183 q 1017 178 992 49 q 1063 485 1047 331 l 972 317 q 888 179 936 250 q 768 32 824 85 q 643 -37 696 -37 q 604 -26 622 -37 q 563 26 575 -8 q 551 100 551 61 q 614 375 551 186 q 684 588 650 482 q 718 768 718 694 q 669 899 718 857 q 554 935 628 935 q 429 911 496 935 q 205 749 304 868 q 106 513 106 631 q 142 410 106 456 q 210 351 168 375 q 280 325 242 333 q 351 317 318 317 q 439 325 390 317 q 510 339 490 336 l 524 339 q 536 310 536 335 q 480 266 536 281 q 347 251 424 251 q 231 264 281 251 q 64 374 117 294 q 25 503 25 431 q 105 733 25 613 q 307 924 185 853 q 428 978 364 957 q 553 999 493 999 q 690 969 638 999 q 786 776 786 915 q 776 679 786 731 q 739 542 767 628 q 667 326 697 418 q 631 195 644 258 q 617 89 617 132 q 650 19 617 19 q 715 58 675 19 q 794 147 756 96 q 915 340 847 218 q 1082 683 1000 493 q 1118 772 1100 728 q 1178 815 1142 815 q 1197 803 1188 815 q 1207 771 1207 792 q 1197 729 1207 753 z "},"":{"ha":1222,"x_min":60,"x_max":1168,"o":"m 1144 507 q 1064 357 1117 426 q 875 185 992 261 q 689 88 781 122 q 499 54 597 54 q 492 4 497 44 q 486 -49 486 -36 q 489 -72 489 -64 q 486 -88 489 -76 q 474 -110 483 -100 q 453 -119 464 -119 q 425 -104 433 -119 q 417 -64 417 -89 q 418 -37 417 -47 q 428 14 419 -26 l 436 53 q 329 74 383 58 q 197 131 250 96 q 94 246 129 176 q 60 401 60 315 q 97 583 60 489 q 285 842 158 733 q 472 961 367 911 q 500 972 488 969 q 524 975 513 975 q 553 950 553 975 q 531 928 553 939 q 461 894 496 911 q 322 803 379 851 q 185 624 236 728 q 151 536 165 585 q 133 415 133 474 q 156 295 133 353 q 232 192 179 238 q 442 111 325 111 l 474 224 q 519 385 496 304 q 567 540 549 482 q 625 700 586 599 l 690 863 q 622 844 649 856 q 550 808 594 833 q 367 663 453 753 q 322 631 336 631 q 308 642 308 631 q 365 726 308 664 q 442 801 408 774 q 578 889 510 857 q 724 938 646 921 q 778 1038 747 999 q 839 1083 814 1083 q 878 1079 871 1083 q 886 1065 886 1075 q 876 1033 886 1050 q 860 1006 865 1015 l 825 946 q 910 941 875 946 q 994 914 944 936 q 1124 804 1081 875 q 1168 642 1168 733 q 1163 575 1168 610 q 1144 507 1157 540 m 1031 793 q 942 858 996 833 q 817 883 888 883 q 789 882 799 883 l 761 828 q 640 533 710 728 q 536 208 569 339 l 511 113 q 634 132 574 113 q 776 196 694 151 q 1015 401 933 281 q 1090 625 1090 511 q 1031 793 1090 725 z "},"":{"ha":1181,"x_min":14,"x_max":1367,"o":"m 1367 965 q 1354 939 1367 951 q 1328 926 1342 926 q 1313 931 1322 926 q 1297 935 1303 935 q 1128 822 1257 935 q 847 529 986 699 q 914 269 878 369 q 1024 81 961 139 q 1122 44 1063 46 q 1181 18 1181 42 q 1171 -6 1181 3 q 1118 -19 1154 -19 q 919 99 999 -19 q 794 461 839 218 q 585 204 672 322 q 481 56 539 142 q 433 -3 446 4 q 406 -11 421 -11 q 383 -3 394 -11 q 372 21 372 6 q 408 97 372 44 q 590 329 454 163 l 774 553 q 740 699 753 649 q 718 778 726 749 q 617 965 681 904 q 483 1021 560 1021 q 331 967 408 1021 q 167 792 235 901 q 94 571 94 675 q 121 449 94 493 q 179 397 142 413 q 215 388 193 390 q 257 385 236 385 q 302 388 286 385 q 324 392 318 392 q 338 393 331 393 q 363 379 356 393 q 365 367 365 375 q 347 342 365 351 q 299 325 329 332 q 233 318 268 318 q 75 385 136 318 q 14 561 14 451 q 86 783 14 661 q 242 974 151 893 q 367 1056 306 1031 q 493 1081 428 1081 q 676 1000 604 1081 q 831 614 774 890 q 1158 934 1063 853 q 1303 1015 1253 1015 q 1351 1001 1335 1015 q 1367 965 1367 986 z "},"":{"ha":1401,"x_min":32,"x_max":1349,"o":"m 1344 240 q 1327 176 1335 208 q 1319 107 1319 143 l 1319 58 l 1319 26 l 1319 6 q 1317 -42 1319 -22 q 1313 -81 1315 -62 q 1256 -256 1304 -176 q 1138 -365 1207 -336 q 1042 -382 1100 -382 q 966 -372 1000 -382 q 912 -337 932 -361 q 892 -290 892 -314 q 907 -251 892 -268 q 943 -235 922 -235 q 976 -258 968 -235 q 986 -293 981 -275 q 1008 -309 990 -301 q 1050 -317 1025 -317 q 1203 -226 1146 -317 q 1256 -67 1244 -160 q 1258 -36 1258 -53 q 1258 -10 1258 -19 q 1256 44 1258 25 q 1253 83 1254 64 q 1175 -5 1222 31 q 1085 -40 1128 -40 q 1024 -15 1050 -40 q 982 113 982 24 q 995 269 982 181 q 1029 439 1008 358 l 936 283 q 841 149 908 236 q 736 23 774 61 q 660 -36 699 -15 q 597 -53 628 -53 q 540 -32 561 -53 q 514 51 514 -6 q 526 139 514 86 q 568 278 539 192 q 632 463 575 297 q 714 707 678 593 q 732 810 732 761 q 700 904 732 869 q 606 939 668 939 q 525 926 571 939 q 342 840 431 901 q 194 700 254 778 q 132 597 156 649 q 103 482 103 533 q 144 368 103 410 q 260 326 186 326 q 358 344 306 326 q 413 365 386 354 q 451 375 440 375 q 469 357 469 375 q 424 315 469 338 q 353 290 393 301 q 300 281 333 285 q 247 276 267 276 q 94 321 153 276 q 32 456 32 369 q 63 586 32 515 q 240 824 118 718 q 500 971 361 931 q 558 983 524 978 q 617 989 593 989 q 747 947 697 989 q 796 821 796 904 q 794 792 796 807 q 786 744 793 776 q 724 538 768 660 q 640 301 681 415 q 588 142 600 186 q 576 78 576 97 q 604 11 576 11 q 699 69 639 11 q 856 264 765 133 q 990 479 925 363 q 1118 749 1072 625 q 1154 828 1139 806 q 1215 868 1181 868 q 1239 854 1228 868 q 1250 828 1250 840 q 1218 768 1250 821 q 1169 671 1193 728 q 1076 385 1111 532 q 1042 140 1042 239 q 1047 78 1042 101 q 1063 42 1053 54 q 1097 22 1078 22 q 1188 79 1132 22 q 1243 169 1243 136 l 1239 217 q 1245 260 1239 242 q 1268 296 1251 279 q 1311 318 1290 318 q 1349 267 1349 318 q 1344 240 1349 256 z "},"":{"ha":1300,"x_min":33,"x_max":1244,"o":"m 1244 833 q 1228 790 1244 819 q 1172 678 1194 731 q 1118 524 1146 615 q 1075 359 1090 432 q 1053 247 1060 286 q 1039 122 1039 167 q 1064 13 1039 49 q 1106 -18 1081 -11 q 1129 -22 1121 -21 q 1160 -53 1160 -29 q 1153 -65 1160 -60 q 1139 -71 1146 -71 q 1056 -49 1096 -71 q 985 38 1003 -19 q 975 115 975 67 q 983 220 975 163 q 1015 390 992 278 q 1040 496 1031 461 q 1069 590 1049 531 l 1006 511 q 881 374 931 417 q 769 319 818 319 q 725 330 746 319 q 689 365 704 340 q 669 446 669 399 q 693 575 669 499 q 731 690 711 632 q 740 761 740 728 q 690 881 740 839 q 558 922 640 922 q 388 878 474 922 q 233 761 301 835 q 128 590 160 682 q 115 542 119 568 q 111 499 111 517 q 149 386 111 433 q 224 328 178 350 q 283 310 247 317 q 360 304 318 304 q 465 318 422 304 q 489 324 476 321 q 506 326 501 326 q 526 308 526 326 q 514 281 526 290 q 490 269 507 275 q 408 252 446 257 q 332 247 369 247 q 240 256 286 247 q 158 285 194 265 q 66 369 99 317 q 33 500 33 422 q 48 596 33 550 q 93 690 63 642 q 248 864 157 794 q 442 963 339 933 q 565 982 511 982 q 734 922 672 982 q 796 761 796 861 q 782 665 796 715 q 746 557 757 594 q 724 450 724 488 q 743 393 724 413 q 776 379 757 379 q 816 392 796 379 q 858 426 836 406 q 1018 618 950 514 q 1103 768 1053 671 q 1178 858 1140 839 q 1219 865 1192 865 q 1238 856 1231 865 q 1244 833 1244 846 z "},"":{"ha":1744,"x_min":32,"x_max":1689,"o":"m 1689 828 q 1656 765 1689 821 q 1608 671 1631 724 q 1538 465 1565 569 q 1499 289 1518 393 q 1485 203 1490 246 q 1481 138 1481 161 q 1496 47 1481 82 q 1549 0 1511 11 q 1571 -3 1563 -3 q 1592 -1 1578 -3 q 1614 0 1606 0 q 1653 -15 1644 0 q 1657 -37 1657 -22 q 1638 -60 1657 -51 q 1592 -68 1619 -68 q 1496 -42 1538 -68 q 1437 24 1454 -17 q 1419 115 1419 65 q 1426 240 1419 175 q 1461 426 1432 304 q 1257 117 1365 251 q 1036 -53 1119 -53 q 975 -22 997 -53 q 953 49 953 8 q 965 197 953 113 q 1018 439 978 281 q 806 122 899 233 q 665 -6 729 31 q 582 -29 624 -29 q 520 0 542 -29 q 499 68 499 29 q 507 131 499 96 q 529 207 515 167 l 689 650 q 726 776 714 722 q 735 839 735 814 q 714 913 735 885 q 617 954 683 954 q 567 950 592 954 q 507 933 542 946 q 321 838 407 900 q 193 715 246 783 q 132 615 160 672 q 99 500 99 547 q 128 407 99 442 q 243 364 165 364 q 313 369 282 364 q 375 390 343 375 q 406 404 394 400 q 438 413 425 413 q 465 392 465 413 q 458 371 465 381 q 419 342 446 354 q 334 313 375 321 q 243 306 293 306 q 85 358 138 306 q 32 492 32 410 q 63 624 32 554 q 231 840 113 739 q 483 982 350 940 q 626 1006 557 1006 q 749 974 706 1006 q 801 850 801 935 q 757 650 801 771 l 617 275 q 586 186 599 225 q 565 90 565 119 q 570 46 565 63 q 600 29 575 29 q 642 42 621 29 q 674 67 654 49 q 860 300 757 147 q 1021 568 938 417 q 1114 749 1076 669 q 1147 819 1143 813 q 1186 870 1171 864 q 1210 876 1201 876 q 1226 872 1218 876 q 1242 859 1233 868 q 1250 842 1250 850 q 1243 818 1250 832 q 1200 733 1221 775 q 1114 526 1142 607 q 1024 161 1065 383 q 1016 109 1019 139 q 1013 69 1013 79 l 1013 54 q 1026 18 1013 31 q 1050 10 1036 10 q 1090 26 1065 10 q 1126 56 1107 38 q 1235 182 1175 104 q 1404 438 1319 293 q 1481 577 1447 510 q 1547 722 1515 644 q 1572 788 1551 733 q 1591 829 1581 808 q 1618 859 1601 850 q 1654 868 1635 868 q 1678 854 1667 868 q 1689 828 1689 840 z "},"":{"ha":1849,"x_min":32,"x_max":1793,"o":"m 1793 285 q 1790 238 1793 258 q 1777 186 1786 218 q 1765 128 1768 154 q 1761 76 1761 101 q 1761 39 1761 58 q 1763 -1 1761 19 q 1749 -142 1763 -82 q 1675 -292 1728 -231 q 1583 -361 1633 -340 q 1479 -382 1532 -382 q 1412 -372 1440 -382 q 1360 -339 1383 -361 q 1340 -312 1346 -325 q 1335 -285 1335 -299 q 1349 -249 1335 -264 q 1381 -233 1363 -233 q 1423 -258 1407 -233 q 1450 -293 1439 -283 q 1510 -318 1476 -318 q 1553 -309 1531 -318 q 1601 -278 1575 -300 q 1692 -114 1672 -219 q 1701 79 1701 -61 q 1653 18 1679 46 q 1600 -24 1626 -10 q 1531 -43 1565 -43 q 1451 -5 1482 -43 q 1421 113 1421 33 q 1434 268 1421 181 q 1468 439 1447 356 q 1349 243 1415 342 q 1189 42 1265 119 q 1036 -53 1096 -53 q 967 -14 988 -53 q 953 49 953 11 q 971 219 953 111 q 1018 439 989 328 q 806 125 903 242 q 665 -3 732 38 q 592 -29 621 -29 q 519 -3 540 -29 q 499 68 499 22 q 507 131 499 96 q 529 207 515 167 l 689 650 q 726 776 714 722 q 735 839 735 814 q 714 913 735 885 q 617 954 683 954 q 567 950 592 954 q 507 933 542 946 q 321 838 407 900 q 193 715 246 783 q 132 615 160 672 q 99 500 99 547 q 142 398 99 435 q 254 361 186 361 q 375 390 313 361 q 411 406 390 399 q 444 413 432 413 q 465 392 465 413 q 394 331 465 357 q 240 306 322 306 q 151 318 189 306 q 68 378 100 336 q 32 492 32 425 q 63 624 32 550 q 230 840 113 740 q 483 982 347 940 q 626 1006 557 1006 q 749 974 706 1006 q 801 850 801 935 q 792 765 801 811 q 757 650 783 718 l 615 275 q 588 185 603 244 q 567 75 567 107 q 583 35 567 46 q 600 31 590 31 q 624 35 613 31 q 677 69 649 43 q 747 146 706 96 q 940 428 826 242 q 1114 749 1053 615 q 1159 840 1143 814 q 1188 871 1175 865 q 1210 876 1201 876 q 1226 872 1218 876 q 1242 859 1233 868 q 1250 842 1250 850 q 1238 807 1250 831 q 1200 733 1207 747 q 1138 588 1157 640 q 1053 299 1093 468 q 1024 162 1033 218 q 1015 78 1015 106 q 1043 11 1015 11 q 1085 25 1060 11 q 1126 56 1110 39 q 1333 328 1217 144 q 1497 617 1426 472 q 1554 740 1532 685 q 1589 825 1571 782 q 1615 857 1600 846 q 1654 868 1631 868 q 1678 854 1667 868 q 1689 828 1689 840 q 1671 786 1689 814 q 1649 750 1658 767 q 1565 553 1607 676 q 1499 289 1517 410 q 1488 205 1493 250 q 1482 128 1482 160 q 1496 50 1482 78 q 1544 22 1510 22 q 1600 42 1572 22 q 1636 76 1619 56 q 1678 138 1667 117 q 1690 169 1690 158 l 1686 217 q 1709 287 1686 254 q 1758 319 1732 319 q 1781 308 1768 319 q 1793 285 1793 297 z "},"":{"ha":800,"x_min":14,"x_max":850,"o":"m 833 324 q 850 242 850 282 q 844 190 850 214 q 824 140 838 167 q 679 17 782 64 q 390 -37 561 -37 q 338 -36 357 -37 q 272 -31 319 -35 q 125 21 169 -19 q 89 110 89 54 q 91 143 89 132 q 103 190 93 154 q 136 293 113 226 q 188 432 154 346 l 226 532 q 204 529 210 529 q 172 550 172 529 q 190 582 172 572 q 249 592 207 592 l 351 838 l 218 831 q 149 828 179 831 q 78 822 119 825 q 48 825 61 822 q 26 836 35 828 q 14 867 14 849 q 26 899 14 889 q 58 908 39 908 q 84 906 72 908 q 101 901 96 903 q 133 899 107 900 q 176 899 158 899 q 299 901 233 899 q 385 906 364 904 q 446 915 406 908 q 506 921 486 921 q 547 913 533 921 q 561 882 561 906 q 547 851 561 865 q 507 838 533 838 l 472 840 q 447 835 454 840 q 431 818 439 829 q 390 744 414 796 q 326 593 367 693 q 459 578 392 593 q 589 539 526 564 q 742 448 676 504 q 833 324 807 392 m 761 307 q 663 428 735 375 q 435 518 575 490 q 377 528 411 522 q 301 533 343 533 l 278 479 q 222 342 247 410 q 164 161 186 246 q 157 117 157 136 q 178 64 157 83 q 265 31 204 39 q 376 24 326 24 q 531 40 458 24 q 660 88 604 56 q 744 161 715 119 q 772 251 772 203 q 761 307 772 276 z "},"":{"ha":1322,"x_min":25,"x_max":1336,"o":"m 1307 835 l 1274 761 q 1167 502 1229 664 q 1060 207 1106 340 q 1022 88 1031 121 q 1014 36 1014 56 q 1021 13 1014 21 q 1028 -14 1028 4 q 1017 -42 1028 -31 q 979 -54 1006 -54 q 942 -37 953 -54 q 931 6 931 -19 q 939 72 931 33 q 984 219 947 110 q 1057 422 1021 329 q 1111 557 1083 489 q 1146 649 1135 618 q 1185 740 1164 694 l 1214 810 q 1227 863 1221 832 q 1261 913 1233 894 q 1288 919 1272 919 q 1322 908 1307 919 q 1336 879 1336 896 q 1330 857 1336 867 q 1307 835 1324 847 m 765 140 q 604 9 715 54 q 329 -36 493 -36 q 257 -36 293 -36 q 211 -31 225 -32 q 61 22 107 -21 q 25 108 25 56 q 31 149 25 125 q 40 182 32 157 q 129 432 82 311 l 168 532 q 146 529 151 529 q 114 550 114 529 q 131 582 114 572 q 190 592 149 592 l 218 658 l 268 775 l 307 871 q 325 901 315 890 q 372 924 346 924 q 410 900 410 924 q 396 863 410 885 q 378 835 382 842 q 349 782 363 813 q 303 676 331 744 l 268 593 q 401 578 333 593 q 531 539 468 564 q 710 421 638 496 q 793 242 793 335 q 765 140 793 190 m 681 156 q 714 251 714 200 q 619 415 714 340 q 375 518 524 489 q 319 528 351 522 q 243 533 286 533 l 219 479 q 167 347 197 429 q 126 233 143 286 q 106 172 115 203 q 96 119 96 142 q 115 68 96 89 q 219 29 142 39 q 333 24 263 24 q 515 50 429 24 q 681 156 629 85 z "},"":{"ha":792,"x_min":15,"x_max":778,"o":"m 761 324 q 778 240 778 282 q 658 44 778 124 q 506 -17 593 3 q 313 -36 418 -36 q 240 -36 276 -36 q 197 -31 211 -32 q 51 21 94 -19 q 15 108 15 54 q 19 142 15 126 q 29 182 22 157 q 56 267 42 224 q 115 432 76 329 l 154 532 q 132 529 138 529 q 100 550 100 529 q 117 582 100 572 q 176 592 135 592 l 204 658 l 254 775 l 293 871 q 321 911 306 899 q 358 924 336 924 q 396 886 396 924 q 374 847 396 872 q 328 767 351 822 q 296 693 318 742 q 254 593 281 660 q 385 579 321 593 q 517 539 450 565 q 676 442 611 503 q 761 324 735 389 m 689 307 q 576 438 661 381 q 346 522 483 500 q 287 529 325 525 q 229 533 249 533 q 192 449 210 490 q 150 340 175 408 q 92 178 103 213 q 82 119 82 143 q 102 68 82 90 q 174 35 122 46 q 289 25 225 25 q 391 31 338 25 q 474 43 444 36 q 640 124 579 68 q 700 250 700 179 q 689 307 700 276 z "},"":{"ha":915,"x_min":56,"x_max":860,"o":"m 860 653 q 840 478 860 569 q 806 350 829 424 q 845 342 835 350 q 856 311 856 335 q 842 283 856 290 q 825 281 836 281 l 783 285 q 599 17 717 101 q 372 -53 501 -53 q 208 -22 283 -53 q 72 92 113 17 q 56 150 56 121 q 64 182 56 171 q 85 193 72 193 q 113 178 100 193 q 126 150 121 168 q 214 36 153 74 q 364 -1 275 -1 q 542 51 464 -1 q 706 293 651 125 q 624 297 685 293 q 550 300 563 300 q 400 289 458 300 q 340 282 364 282 q 308 306 308 282 q 417 358 308 349 q 519 361 450 361 q 616 358 571 361 q 725 353 661 356 q 764 490 749 417 q 785 668 785 586 q 750 844 785 783 q 606 924 706 924 q 335 813 481 924 q 189 611 189 701 q 222 549 189 574 q 338 518 263 518 q 377 521 364 518 q 436 539 390 524 q 467 550 442 540 q 503 560 493 560 q 525 539 525 560 q 514 522 525 532 q 457 492 496 507 q 382 470 418 478 q 304 463 346 463 q 158 508 210 463 q 113 613 113 549 q 283 856 113 736 q 611 976 454 976 q 792 904 731 976 q 860 653 860 825 z "},"":{"ha":1732,"x_min":22,"x_max":1675,"o":"m 1649 457 q 1565 249 1618 347 q 1433 63 1508 143 q 1276 -57 1357 -17 q 1143 -92 1207 -92 q 968 -42 1036 -92 q 882 79 908 1 q 867 142 872 110 q 863 218 863 175 q 873 342 863 276 q 900 461 883 407 q 717 317 813 401 q 571 172 622 233 q 547 75 568 164 q 472 -32 522 -32 q 449 -25 457 -32 q 435 13 435 -14 q 440 47 435 28 q 456 90 446 67 q 546 299 490 178 q 633 493 601 421 q 711 690 681 601 q 732 756 725 728 q 739 813 739 785 q 710 889 739 864 q 592 919 675 919 q 260 783 425 919 q 96 493 96 646 q 137 387 96 425 q 240 349 178 349 q 301 354 276 349 q 394 385 325 360 q 419 390 407 390 q 442 368 442 390 q 436 350 442 357 q 417 336 431 343 q 329 306 381 318 q 235 294 278 294 q 74 350 131 294 q 22 476 22 400 q 216 816 22 650 q 625 982 410 982 q 772 925 724 982 q 810 822 810 881 q 783 694 810 769 q 713 522 763 635 q 614 300 617 307 q 817 463 661 339 q 898 534 879 513 q 924 561 917 556 q 958 579 943 579 q 983 567 971 579 q 994 540 994 556 q 983 506 994 525 q 961 469 972 488 q 935 376 946 436 q 924 250 924 315 q 946 104 924 165 q 1039 -8 976 25 q 1149 -32 1085 -32 q 1257 -1 1200 -32 q 1393 113 1326 36 q 1546 362 1488 221 q 1604 626 1604 503 q 1553 789 1604 739 q 1451 828 1514 828 q 1297 775 1376 828 q 1147 619 1218 722 q 1088 518 1114 571 q 1050 418 1063 465 q 1038 364 1043 390 q 1006 335 1028 335 q 992 342 997 335 q 982 374 982 353 q 991 426 982 393 q 1031 525 1000 460 q 1199 771 1103 676 q 1354 876 1275 846 q 1463 899 1408 899 q 1616 830 1557 899 q 1675 635 1675 761 q 1649 457 1675 554 z "},"":{"ha":815,"x_min":56,"x_max":760,"o":"m 760 -47 q 746 -72 760 -60 q 708 -83 732 -83 q 673 -77 690 -83 q 640 -62 656 -71 q 579 10 597 -39 q 567 82 567 42 q 579 203 567 142 q 647 428 597 290 l 554 401 l 515 336 q 421 203 483 282 q 314 81 358 124 q 221 17 269 39 q 144 -1 181 -1 q 97 8 118 -1 q 66 31 76 17 q 56 64 56 46 q 67 92 56 83 q 88 101 78 101 q 108 94 97 101 q 134 80 119 88 q 165 72 149 72 q 275 129 211 72 q 476 386 364 208 q 333 371 404 371 q 149 417 214 371 q 83 532 83 464 q 258 834 83 665 q 563 1003 432 1003 q 682 957 639 1003 q 725 839 725 911 q 687 672 725 775 q 597 476 649 568 q 685 512 654 501 q 726 522 715 522 q 753 503 753 522 q 738 453 753 489 q 685 322 704 375 q 654 218 667 269 q 636 85 636 140 q 658 6 636 33 q 700 -22 674 -15 q 742 -31 724 -26 q 760 -47 760 -35 m 663 836 q 628 917 663 889 q 546 944 594 944 q 313 807 457 944 q 163 557 163 664 q 232 465 163 496 q 383 439 292 439 q 517 454 458 439 q 607 639 558 521 q 663 836 663 775 z "},"":{"ha":593,"x_min":10,"x_max":625,"o":"m 614 306 q 547 192 592 261 q 464 72 499 117 q 413 19 439 42 q 342 -14 372 -14 q 303 5 319 -14 q 288 60 288 24 q 296 108 288 81 q 204 25 224 39 q 94 -19 146 -19 q 42 -1 63 -19 q 10 82 10 25 q 82 311 10 175 q 215 497 147 433 q 274 539 246 525 q 340 553 303 553 q 417 510 390 553 q 439 415 439 474 l 436 360 l 438 335 q 421 279 438 313 q 385 206 386 210 q 364 151 372 174 q 350 83 350 113 q 357 50 350 50 q 418 100 375 50 q 531 269 469 161 q 563 336 551 315 q 604 374 582 374 q 625 346 625 374 q 614 306 625 328 m 356 313 q 374 415 374 363 q 363 472 374 451 q 331 493 353 493 q 164 339 264 493 q 64 83 64 185 q 71 47 64 63 q 99 31 78 31 q 238 135 146 31 q 356 313 329 239 z "},"":{"ha":475,"x_min":28,"x_max":656,"o":"m 656 846 q 650 822 656 822 q 633 829 642 822 q 597 836 625 836 q 399 800 521 836 q 256 713 256 758 q 281 664 256 690 q 326 625 292 653 q 419 518 389 574 q 460 353 460 447 q 365 99 460 218 q 157 -19 269 -19 q 65 27 101 -19 q 28 157 28 74 q 100 379 28 283 q 246 469 168 469 q 335 434 297 469 q 374 343 374 399 q 368 317 374 325 q 349 308 363 308 q 332 331 338 308 q 319 372 322 367 q 304 394 313 388 q 267 408 289 408 q 140 328 194 408 q 86 157 86 249 q 113 60 86 93 q 168 32 135 32 q 322 140 246 32 q 399 364 399 249 q 372 486 399 432 q 313 563 353 526 q 236 632 274 599 q 193 715 193 676 q 253 804 193 763 q 482 892 325 854 q 578 906 539 906 q 640 888 621 906 q 656 846 656 874 z "},"":{"ha":490,"x_min":40,"x_max":490,"o":"m 490 879 q 425 636 490 769 q 239 403 351 486 q 292 379 269 399 q 338 387 321 379 q 383 412 356 394 q 424 429 410 429 q 439 414 439 429 q 403 365 439 393 q 328 326 368 336 q 335 264 335 292 q 314 157 335 214 q 233 26 286 81 q 131 -29 179 -29 q 65 8 90 -29 q 40 121 40 44 q 53 218 40 157 q 96 372 65 279 q 86 392 86 378 q 94 419 86 403 q 115 438 101 435 l 131 478 q 204 661 175 594 q 332 889 268 806 q 396 949 364 931 q 435 961 418 961 q 471 946 457 961 q 490 879 490 925 m 439 861 q 439 883 439 872 q 421 897 435 897 q 399 887 411 897 q 363 838 388 876 q 274 676 319 771 q 207 517 235 594 l 175 426 q 299 528 238 449 q 385 675 349 592 q 425 783 411 733 q 439 861 439 832 m 269 308 q 198 317 222 308 q 149 346 174 325 q 111 213 128 285 q 94 93 94 140 q 135 22 94 22 q 169 35 150 22 q 243 133 214 65 q 272 271 272 201 q 272 289 272 279 q 269 308 269 303 z "},"":{"ha":467,"x_min":28,"x_max":467,"o":"m 467 329 q 364 122 467 257 q 154 -26 250 -26 q 78 7 107 -26 q 50 85 50 40 q 100 197 50 135 q 164 268 108 207 q 258 381 232 340 q 285 451 285 422 q 258 482 285 482 q 184 449 228 482 q 114 368 140 415 q 86 331 99 342 q 60 321 74 321 q 38 331 47 321 q 28 354 28 340 q 100 456 28 392 q 200 529 165 514 q 274 544 235 544 q 328 521 304 544 q 351 454 351 497 q 314 350 351 407 q 246 267 294 321 q 160 172 165 179 q 124 90 124 126 q 135 47 124 60 q 165 33 147 33 q 282 111 208 33 q 375 264 356 189 q 390 325 382 294 q 432 361 404 361 q 467 329 467 361 z "},"":{"ha":485,"x_min":-28,"x_max":456,"o":"m 449 294 q 438 199 449 249 q 411 79 413 86 q 344 -197 369 -139 q 142 -349 279 -349 q 25 -311 71 -349 q -28 -193 -28 -268 q -17 -130 -28 -150 q 8 -110 -6 -110 q 40 -132 40 -110 q 37 -163 40 -144 q 33 -196 33 -182 q 35 -215 33 -210 q 69 -274 42 -250 q 138 -299 96 -299 q 306 -156 249 -299 q 350 118 350 -43 q 269 29 315 67 q 146 -25 204 -25 q 68 12 96 -25 q 40 110 40 49 q 135 384 40 250 q 333 518 229 518 q 431 468 400 518 q 456 363 456 428 q 449 294 456 325 m 392 378 q 328 456 392 456 q 177 333 258 456 q 96 103 96 210 q 114 40 96 63 q 147 24 128 24 q 259 91 194 24 q 335 215 324 158 q 344 261 342 254 q 381 296 354 285 q 388 338 383 311 q 392 378 392 365 z "},"":{"ha":421,"x_min":29,"x_max":410,"o":"m 410 335 q 326 124 410 249 q 147 -14 235 -14 q 65 21 96 -14 q 29 150 29 63 q 97 410 29 282 q 233 539 164 539 q 279 521 260 539 q 307 444 307 494 q 258 285 307 353 q 135 217 208 217 q 103 221 119 217 q 97 185 100 204 q 94 150 94 165 q 108 76 94 104 q 153 47 121 47 q 266 138 201 47 q 350 317 331 228 q 360 350 356 340 q 386 371 369 371 q 410 335 410 371 m 246 436 q 224 472 246 472 q 167 410 200 472 q 117 282 135 349 q 131 276 124 278 q 144 275 139 275 q 216 328 186 275 q 246 436 246 381 z "},"":{"ha":897,"x_min":0,"x_max":897,"o":"m 897 253 q 886 211 897 235 q 871 178 875 188 q 800 50 829 92 q 694 -31 744 -31 q 636 -1 657 -31 q 615 79 615 28 q 621 178 615 125 q 638 279 626 231 q 579 194 589 208 q 542 142 556 163 q 485 46 501 72 q 425 0 454 0 q 399 10 404 0 q 393 42 393 21 q 413 186 393 93 q 447 324 428 261 q 361 235 408 286 q 272 130 303 172 q 211 44 242 88 q 142 -1 174 -1 q 115 38 115 -1 q 144 92 115 64 q 201 135 158 106 q 265 302 232 188 q 297 486 297 417 q 291 517 297 506 q 278 528 285 528 q 214 492 254 528 q 114 372 165 449 q 75 304 86 324 q 33 271 54 271 q 11 281 22 271 q 0 308 0 290 q 72 426 0 343 q 194 546 135 500 q 243 575 214 561 q 307 593 281 593 q 343 568 328 593 q 358 492 358 543 q 345 376 358 440 q 314 256 332 311 l 472 421 q 521 517 497 486 q 599 564 557 564 q 635 535 635 564 q 620 505 635 524 q 569 454 606 486 q 502 313 529 400 q 475 139 475 226 q 572 282 544 244 q 665 392 624 353 q 749 436 713 436 q 776 426 767 436 q 786 404 786 417 q 767 369 786 383 q 721 342 749 354 q 688 230 700 290 q 675 125 675 169 q 685 53 675 71 q 708 35 694 35 q 761 81 729 35 q 806 165 793 126 q 826 244 815 204 q 874 282 840 282 q 890 275 883 282 q 897 253 897 268 z "},"":{"ha":475,"x_min":21,"x_max":447,"o":"m 447 450 q 414 374 447 414 q 336 311 381 335 q 381 289 363 304 q 410 225 410 264 q 318 67 410 154 q 144 -19 226 -19 q 76 4 103 -19 q 44 83 44 32 q 60 144 44 121 q 93 168 75 168 q 113 161 104 168 q 121 140 121 154 q 113 113 121 129 q 104 79 104 96 q 116 42 104 54 q 154 31 128 31 q 277 101 206 31 q 349 221 349 171 q 338 254 349 240 q 285 275 321 275 q 251 269 271 275 q 212 256 232 263 q 174 242 192 249 q 144 236 156 236 q 122 243 131 236 q 114 260 114 250 q 160 299 114 286 q 249 325 206 313 q 351 387 313 351 q 390 451 390 422 q 365 488 390 475 q 304 500 340 500 q 220 483 269 500 q 129 436 171 467 q 49 372 103 372 q 26 383 32 372 q 21 401 21 394 q 121 499 21 446 q 301 551 221 551 q 414 518 375 551 q 447 450 447 490 z "},"":{"ha":556,"x_min":47,"x_max":556,"o":"m 549 242 q 482 125 525 190 q 385 10 429 47 q 336 -12 357 -12 q 291 27 307 -12 q 279 103 275 67 q 203 17 236 46 q 152 -17 176 -7 q 114 -26 128 -26 q 68 0 89 -26 q 53 38 58 14 q 47 82 47 61 q 50 128 47 110 q 60 174 53 146 q 120 329 78 243 q 207 468 163 415 q 228 487 218 482 q 250 492 238 492 q 275 483 264 492 q 286 458 286 475 q 267 415 286 440 q 178 276 217 347 q 117 122 131 189 q 111 74 111 94 q 129 35 111 35 q 172 63 140 35 q 213 101 197 85 q 271 178 244 139 q 308 244 293 211 q 340 318 318 265 q 364 365 354 353 q 385 384 374 378 q 404 390 396 390 q 429 381 421 390 q 438 356 438 371 q 421 307 438 335 q 369 219 394 263 q 340 142 350 181 q 336 122 338 131 q 335 99 335 113 q 353 60 335 60 q 374 69 363 60 q 432 142 403 94 q 490 254 457 182 q 510 286 501 278 q 532 294 519 294 q 556 268 556 294 q 549 242 556 260 z "},"":{"ha":556,"x_min":47,"x_max":556,"o":"m 507 519 q 481 482 507 494 q 422 469 454 469 q 349 497 376 469 q 321 572 321 525 q 336 631 321 604 q 371 657 351 657 q 399 626 399 657 q 395 606 399 617 q 387 578 392 594 q 382 556 382 563 q 392 528 382 538 q 428 518 401 518 q 469 527 453 518 q 494 536 486 536 q 504 531 501 536 q 507 519 507 525 m 549 242 q 482 125 525 190 q 385 10 429 47 q 336 -12 357 -12 q 291 27 307 -12 q 279 103 275 67 q 203 17 236 46 q 152 -17 176 -7 q 114 -26 128 -26 q 68 0 89 -26 q 53 38 58 14 q 47 82 47 61 q 50 128 47 110 q 60 174 53 146 q 120 329 78 243 q 207 468 163 415 q 228 487 218 482 q 250 492 238 492 q 275 483 264 492 q 286 458 286 475 q 267 415 286 440 q 178 276 217 347 q 117 122 131 189 q 111 74 111 94 q 129 35 111 35 q 172 63 140 35 q 213 101 197 85 q 271 178 244 139 q 308 244 293 211 q 340 318 318 265 q 364 365 354 353 q 385 384 374 378 q 404 390 396 390 q 429 381 421 390 q 438 356 438 371 q 421 307 438 335 q 369 219 394 263 q 340 142 350 181 q 336 122 338 131 q 335 99 335 113 q 353 60 335 60 q 374 69 363 60 q 432 142 403 94 q 490 254 457 182 q 510 286 501 278 q 532 294 519 294 q 556 268 556 294 q 549 242 556 260 z "},"":{"ha":524,"x_min":21,"x_max":524,"o":"m 524 206 q 514 173 524 190 q 483 131 504 156 q 406 36 413 43 q 313 -19 351 -19 q 229 43 265 -19 q 182 156 217 65 q 161 196 171 185 q 119 218 147 213 q 106 165 111 188 q 96 115 100 143 q 89 28 93 56 q 49 0 85 0 q 27 9 33 0 q 21 44 21 18 q 32 128 21 81 q 54 215 46 178 q 31 229 31 210 q 39 264 31 247 q 68 283 47 281 q 99 387 86 350 q 113 428 111 424 q 126 483 119 468 q 176 521 143 521 q 204 501 204 521 q 169 410 186 456 q 135 283 149 356 q 242 322 185 279 q 342 422 300 364 q 363 469 351 435 q 404 519 379 519 q 426 513 417 519 q 436 493 436 507 q 369 361 436 439 q 204 240 297 276 q 240 188 231 211 q 256 138 240 186 q 281 74 272 89 q 322 40 299 40 q 386 94 347 40 q 417 140 408 129 q 456 203 436 171 q 497 233 478 233 q 524 206 524 233 z "},"":{"ha":628,"x_min":0,"x_max":628,"o":"m 621 224 q 576 122 603 169 q 507 25 546 67 q 458 -14 479 -4 q 418 -24 438 -24 q 379 -2 396 -24 q 363 65 363 19 q 369 131 363 96 q 407 351 397 275 l 407 369 l 403 378 l 393 378 q 338 314 374 371 q 256 173 307 267 q 179 44 204 79 q 78 -25 128 -25 q 23 10 46 -25 q 0 108 0 44 q 19 189 0 158 q 65 219 39 219 q 85 214 78 219 q 99 179 99 203 q 90 147 99 163 q 65 118 81 132 q 61 100 63 111 q 60 83 60 89 q 68 45 60 60 q 86 31 76 31 q 135 82 103 31 q 289 343 219 232 q 357 438 326 403 q 456 497 411 497 q 481 485 469 497 q 493 443 493 474 q 489 397 493 424 q 464 266 475 329 q 447 165 453 203 q 438 78 438 99 q 442 59 438 64 q 453 54 447 54 q 488 85 465 54 q 528 154 511 115 q 549 218 531 161 q 599 293 572 293 q 620 284 613 293 q 628 260 628 275 q 621 224 628 249 z "},"":{"ha":875,"x_min":0,"x_max":875,"o":"m 875 300 q 844 207 875 268 q 757 75 810 138 q 668 -4 711 21 q 613 -22 636 -22 q 588 0 597 -22 q 578 50 578 22 q 578 67 578 58 q 581 86 581 79 q 604 200 588 131 q 631 307 617 253 l 639 346 q 636 360 642 354 q 632 361 633 360 q 626 358 629 360 q 615 350 622 357 q 485 181 565 301 q 404 56 458 140 q 372 13 385 26 q 349 -1 360 -1 q 333 21 333 -1 q 335 43 335 38 q 338 72 335 56 q 345 115 342 89 q 356 175 349 142 q 374 257 364 208 q 390 347 385 306 q 393 364 392 356 q 392 377 393 371 q 383 383 392 383 q 339 344 369 383 q 303 293 315 315 q 186 90 215 140 q 100 -10 139 13 q 67 -19 82 -19 q 17 15 35 -19 q 0 99 0 50 q 22 207 0 172 q 64 235 40 235 q 88 226 76 235 q 99 204 99 218 q 89 174 99 186 q 69 152 76 161 q 57 124 61 143 q 53 86 53 104 q 75 42 53 42 q 113 76 90 42 q 218 264 172 183 q 286 368 253 322 q 432 493 378 493 q 472 436 472 493 q 463 363 472 417 q 438 214 446 272 q 553 364 486 289 q 679 463 640 463 q 708 451 700 463 q 715 418 715 439 q 711 380 715 408 q 690 291 707 351 q 658 154 674 231 q 649 104 653 129 q 649 71 644 79 q 660 64 653 64 q 690 85 667 64 q 789 224 757 149 q 846 331 835 331 q 870 324 865 331 q 875 300 875 317 z "},"":{"ha":576,"x_min":10,"x_max":576,"o":"m 576 274 q 503 108 576 226 q 360 -22 421 -22 q 307 1 329 -22 q 281 79 281 31 q 288 147 281 108 q 308 221 296 185 q 260 204 286 213 q 118 185 194 185 q 95 123 107 158 q 81 64 83 88 q 75 18 78 40 q 42 -4 68 -4 q 17 6 25 -4 q 10 33 10 17 q 17 84 10 51 q 47 185 24 117 q 28 219 28 192 q 37 248 28 236 q 67 256 46 260 q 160 486 121 419 q 217 536 189 536 q 242 529 231 536 q 253 506 253 522 q 242 468 253 490 q 218 429 232 446 q 186 378 199 407 q 136 253 165 331 q 227 260 182 253 q 328 289 272 267 q 432 471 397 471 q 469 440 469 471 q 454 397 469 429 q 397 269 421 328 q 359 160 374 211 q 344 88 344 108 q 348 49 344 61 q 365 36 351 36 q 433 100 390 36 q 493 210 467 150 q 517 265 504 238 q 556 299 535 299 q 576 274 576 299 z "},"":{"ha":536,"x_min":32,"x_max":507,"o":"m 507 336 q 400 65 507 172 q 199 -28 307 -28 q 76 25 121 -28 q 32 171 32 78 q 117 431 32 292 q 285 557 203 569 q 328 561 306 561 q 454 507 407 561 q 507 336 507 447 m 442 336 q 404 464 442 421 q 332 499 374 499 q 298 497 308 499 q 274 488 288 494 q 151 358 203 457 q 99 164 99 260 q 131 63 99 96 q 201 33 158 33 q 367 126 293 33 q 442 336 442 218 z "},"":{"ha":571,"x_min":14,"x_max":571,"o":"m 571 267 q 565 240 571 257 q 539 181 558 224 q 438 22 488 75 q 358 -22 394 -22 q 324 -14 339 -22 q 279 88 279 11 q 292 207 279 140 q 310 290 293 211 q 328 366 322 344 q 340 406 335 388 q 336 417 340 414 q 332 418 333 417 q 231 299 310 418 q 92 57 153 181 q 63 17 76 26 q 39 7 50 7 q 22 22 31 7 q 14 61 14 36 q 40 208 14 106 q 88 364 63 293 q 108 426 97 393 q 122 485 119 458 l 126 518 q 148 554 132 539 q 183 569 164 569 q 207 561 196 569 q 218 535 218 553 q 168 389 218 515 q 107 200 128 292 q 304 472 235 394 q 372 524 350 524 q 401 517 393 524 q 418 464 418 503 q 411 415 418 444 q 394 353 400 379 q 365 233 374 274 q 349 108 349 161 l 349 71 q 357 42 350 50 q 372 35 364 35 q 406 56 388 35 q 464 160 433 86 q 500 249 482 204 q 550 293 522 293 q 571 267 571 293 z "},"":{"ha":554,"x_min":-61,"x_max":522,"o":"m 522 338 q 435 63 522 175 q 268 -39 356 -39 q 189 -17 238 -39 q 99 43 140 6 l 94 47 q 40 -165 58 -81 q 21 -286 21 -250 q 24 -304 21 -292 q 26 -324 26 -317 q 13 -361 26 -349 q -18 -374 -1 -374 q -50 -360 -39 -374 q -61 -324 -61 -346 q -4 -68 -61 -276 q 78 213 38 86 q 149 439 142 417 q 228 557 189 557 q 253 548 246 557 q 261 522 261 539 q 253 492 261 507 q 215 410 221 432 q 313 504 265 469 q 400 539 361 539 q 486 487 450 539 q 522 338 522 435 m 457 324 q 432 444 457 401 q 388 479 413 479 q 302 426 354 479 q 196 283 250 372 q 114 114 149 204 q 190 53 139 85 q 276 22 240 22 q 396 106 340 22 q 457 324 457 197 z "},"":{"ha":536,"x_min":22,"x_max":536,"o":"m 531 283 q 394 79 497 182 q 160 -42 274 -42 q 60 -4 97 -42 q 22 101 22 33 q 50 253 22 169 q 88 342 68 308 q 206 494 142 444 q 315 539 261 539 q 407 490 375 539 q 435 386 435 449 q 406 307 410 318 q 343 242 376 242 q 317 253 326 242 q 307 278 307 264 q 322 328 307 296 q 353 399 336 361 q 354 408 354 401 q 354 419 354 415 q 347 456 354 443 q 311 474 336 474 q 178 357 257 474 q 124 265 144 308 q 90 178 99 213 q 82 108 82 144 q 103 38 82 64 q 157 11 124 11 q 331 103 233 11 q 472 300 429 196 q 485 326 481 321 q 510 342 494 342 q 536 313 536 342 q 531 283 536 300 z "},"":{"ha":815,"x_min":0,"x_max":815,"o":"m 815 328 q 806 297 815 318 q 756 203 796 275 q 672 67 703 107 q 565 -15 611 -15 q 515 15 532 -15 q 497 86 497 44 q 521 206 497 128 q 560 332 540 268 q 560 346 563 342 l 551 350 q 493 289 542 350 q 422 193 454 239 q 331 51 421 192 q 278 -3 296 -3 q 259 13 268 -3 q 250 50 250 29 q 257 88 250 67 q 304 213 282 150 q 338 310 333 299 q 353 374 353 357 q 336 390 353 390 q 314 376 329 390 q 292 353 306 369 q 188 218 244 301 q 85 42 118 118 q 67 8 74 18 q 32 -12 51 -12 q 10 1 21 -12 q 0 38 0 15 q 18 122 0 68 q 119 369 43 199 q 142 424 140 417 q 146 461 144 432 q 156 512 147 490 q 185 556 164 533 q 224 578 207 578 q 247 566 236 578 q 257 529 257 554 q 228 447 257 507 q 124 215 167 322 q 274 417 219 358 q 365 475 328 475 q 406 461 390 475 q 422 411 422 447 q 406 315 422 376 q 378 228 396 282 q 475 361 458 340 q 601 458 551 458 q 633 445 625 458 q 642 417 642 432 q 636 377 642 401 q 610 286 631 353 q 583 192 596 239 q 565 96 565 121 q 569 63 565 74 q 581 51 574 51 q 613 77 594 51 q 674 183 631 103 q 789 353 763 353 q 809 345 803 353 q 815 328 815 338 z "},"":{"ha":450,"x_min":-43,"x_max":421,"o":"m 421 381 q 413 342 421 365 q 396 296 406 319 q 318 -142 357 76 q 108 -371 254 -371 q -7 -294 35 -371 q -43 -136 -43 -229 q -31 -88 -43 -103 q -1 -74 -19 -74 q 35 -110 35 -74 q 17 -146 35 -129 q 14 -179 14 -157 q 43 -272 14 -233 q 108 -311 72 -311 q 242 -172 185 -311 q 300 126 300 -32 q 218 28 264 71 q 115 -28 158 -28 q 76 -8 94 -28 q 49 82 49 22 q 106 347 49 204 q 222 489 164 489 q 247 479 239 489 q 256 454 256 469 q 213 390 256 438 q 167 319 183 358 q 130 210 150 279 q 110 101 110 142 q 118 51 110 67 q 133 36 126 36 q 236 142 164 36 q 321 285 299 232 q 344 379 325 296 q 386 419 354 419 q 413 410 406 419 q 421 381 421 401 z "},"":{"ha":867,"x_min":32,"x_max":843,"o":"m 833 242 q 724 17 804 94 q 578 -49 656 -49 q 490 -22 533 -49 q 415 44 446 6 q 367 -100 388 -33 q 344 -179 346 -167 q 343 -202 343 -192 q 343 -218 343 -212 q 343 -247 343 -232 q 344 -278 343 -262 l 344 -329 q 331 -378 344 -365 q 303 -392 318 -392 q 271 -370 286 -392 q 256 -314 256 -349 q 277 -194 256 -271 q 388 136 299 -117 q 276 25 315 57 q 154 -31 208 -31 q 97 -10 126 -31 q 51 42 67 10 q 32 138 32 82 q 48 246 32 183 q 106 374 64 308 q 208 479 153 449 q 253 497 226 489 q 307 504 281 504 q 391 485 350 504 q 465 418 432 465 q 532 611 499 514 q 618 713 574 713 q 636 708 629 713 q 654 682 654 697 q 631 632 654 664 q 588 569 608 600 q 546 469 568 535 q 513 368 531 424 l 588 438 q 658 485 624 471 q 724 500 693 500 q 772 491 751 500 q 810 464 793 482 q 835 412 826 446 q 843 338 843 378 q 833 242 843 285 m 772 253 q 782 339 782 300 q 762 419 782 393 q 710 446 742 446 q 654 429 683 446 q 551 329 611 404 q 467 192 492 254 l 439 124 q 502 38 460 71 q 592 6 544 6 q 646 19 622 6 q 728 117 692 44 q 772 253 757 176 m 447 351 q 388 422 425 397 q 308 446 351 446 q 226 419 263 446 q 154 332 189 392 q 110 230 125 282 q 94 131 94 178 q 121 42 94 68 q 158 25 138 25 q 318 146 221 25 q 447 351 401 249 z "},"":{"ha":440,"x_min":18,"x_max":482,"o":"m 482 450 q 371 347 482 440 q 235 201 299 286 q 244 104 235 140 q 306 42 261 42 q 326 48 319 42 q 358 54 332 54 q 379 47 375 54 q 383 25 383 39 q 356 -7 383 4 q 303 -18 329 -18 q 221 18 257 -18 q 178 131 178 61 q 83 19 118 51 q 43 -4 58 -4 q 18 24 18 -4 q 47 74 18 40 q 172 228 149 192 q 165 333 172 288 q 146 379 158 379 q 140 376 143 378 q 130 367 136 375 q 119 356 124 360 q 99 346 108 346 q 68 376 68 346 q 97 429 68 400 q 154 458 126 458 q 219 400 200 458 q 233 290 233 358 q 453 476 431 476 q 482 450 482 476 z "},"":{"ha":533,"x_min":46,"x_max":513,"o":"m 513 149 q 438 -93 513 42 q 272 -239 356 -239 q 236 -200 236 -239 q 247 -169 236 -181 q 272 -157 258 -157 q 292 -162 285 -162 q 378 -76 325 -162 q 443 71 426 3 q 397 22 418 42 q 333 -14 357 -14 q 296 13 314 -14 q 278 85 278 40 q 279 103 279 96 q 175 -1 222 29 q 103 -25 138 -25 q 67 -1 83 -25 q 46 81 46 29 q 61 180 46 122 q 136 353 76 238 q 250 492 208 492 q 274 484 263 492 q 286 457 286 476 q 268 417 286 443 q 171 261 197 313 q 132 175 144 210 q 111 71 111 117 q 115 48 111 56 q 129 35 119 40 q 217 108 156 35 q 308 244 278 181 q 361 360 335 301 q 403 390 381 390 q 427 382 417 390 q 438 356 438 374 q 410 289 438 331 q 376 235 383 247 q 347 165 360 203 q 335 97 335 128 q 340 69 335 79 q 350 60 344 60 q 384 74 363 60 q 417 101 406 89 q 453 158 424 108 q 493 188 471 188 q 509 176 506 188 q 513 149 513 164 z "},"":{"ha":535,"x_min":0,"x_max":535,"o":"m 517 314 q 535 288 535 308 q 530 262 535 275 q 515 229 525 249 q 432 108 486 175 q 326 4 372 35 q 260 -19 289 -19 q 217 -6 235 -19 q 190 26 200 8 q 175 96 175 56 q 197 213 175 147 q 247 328 214 261 q 186 368 211 344 q 157 406 168 386 q 97 344 135 375 q 38 313 60 313 q 10 326 19 313 q 0 356 0 339 q 64 407 0 364 q 131 472 104 433 q 126 501 128 488 q 125 531 125 514 q 149 626 125 593 q 203 658 172 658 q 230 647 224 658 q 236 614 236 635 q 224 537 236 572 q 194 468 213 501 q 229 417 207 439 q 282 382 251 394 q 322 420 299 404 q 368 436 346 436 q 398 428 389 436 q 407 404 407 421 q 381 347 407 376 q 317 310 354 318 q 236 132 253 222 q 232 94 232 111 q 241 51 232 67 q 263 33 250 36 q 336 74 290 26 q 433 215 388 126 q 468 286 450 250 q 517 314 490 322 z "},"":{"ha":901,"x_min":47,"x_max":901,"o":"m 888 251 q 804 117 854 186 q 703 4 744 33 q 683 -8 696 -1 q 653 -14 669 -14 q 624 -4 638 -14 q 588 92 588 21 q 593 138 588 117 q 518 38 558 78 q 465 -6 492 11 q 414 -24 439 -24 q 357 8 379 -24 q 335 85 335 40 l 336 140 l 294 85 q 242 35 279 65 q 180 -10 206 4 q 132 -25 154 -25 q 70 15 93 -25 q 47 117 47 54 q 51 175 47 151 q 61 214 58 201 q 97 324 75 269 q 192 510 132 408 q 221 553 207 538 q 268 582 246 582 q 297 573 283 582 q 310 549 310 564 q 301 510 310 529 q 265 451 293 490 q 193 340 221 390 q 125 172 143 250 q 118 115 118 138 q 154 53 118 53 q 193 68 171 53 q 243 114 215 83 q 292 172 271 144 q 344 260 318 207 q 424 451 386 342 q 446 501 439 493 q 476 517 458 517 q 509 507 496 517 q 522 475 522 497 q 507 425 522 454 q 461 333 479 374 q 419 219 438 281 q 401 122 401 157 q 413 71 401 92 q 440 50 425 50 q 475 71 454 50 q 545 160 490 86 q 636 311 600 235 q 681 411 658 361 q 696 435 689 429 q 729 447 710 447 q 769 414 769 447 q 756 376 769 396 q 725 329 738 349 q 658 182 678 256 q 650 119 650 149 q 678 60 650 60 q 715 86 694 60 q 767 159 744 122 q 822 263 790 196 q 844 303 838 293 q 881 322 860 322 q 901 296 901 322 q 888 251 901 279 z "},"":{"ha":849,"x_min":47,"x_max":850,"o":"m 842 96 q 788 -64 825 13 q 685 -204 742 -157 q 644 -230 667 -219 q 608 -240 622 -240 q 572 -200 572 -240 q 584 -166 572 -176 q 608 -157 596 -156 q 631 -162 619 -160 q 661 -146 644 -162 q 721 -67 690 -119 q 765 29 751 -14 l 781 76 q 744 39 764 57 q 703 4 719 15 q 654 -14 676 -14 q 608 16 625 -14 q 590 94 590 46 l 593 138 q 540 63 569 97 q 513 32 525 44 q 459 -10 481 3 q 422 -24 438 -24 q 361 6 388 -24 q 335 92 335 36 l 336 135 q 265 54 301 89 q 182 -10 222 13 q 132 -25 154 -25 q 70 15 93 -25 q 47 117 47 54 q 51 175 47 151 q 61 214 58 201 q 97 324 75 269 q 192 510 132 408 q 221 553 207 538 q 268 582 246 582 q 298 572 286 582 q 310 542 310 561 q 299 503 310 524 q 210 369 243 421 q 125 172 147 272 q 118 113 118 140 q 129 66 118 79 q 154 53 140 53 q 203 76 174 53 q 244 115 225 93 q 331 235 293 167 q 424 451 379 321 q 446 501 439 493 q 476 517 458 517 q 509 507 496 517 q 522 475 522 497 q 507 425 522 454 q 460 333 474 364 q 421 226 439 288 q 403 124 403 165 q 414 70 403 89 q 439 51 425 51 q 546 161 464 51 q 636 313 597 231 q 681 411 658 361 q 696 435 689 429 q 729 447 710 447 q 769 414 769 447 q 756 376 769 396 q 711 307 733 342 q 658 182 675 244 q 649 118 649 149 q 682 57 649 57 q 723 78 700 57 q 760 113 746 99 q 790 155 779 133 q 801 178 800 176 q 829 188 810 188 q 850 154 850 188 q 847 125 850 143 q 842 96 844 107 z "},"":{"ha":439,"x_min":0,"x_max":411,"o":"m 400 178 q 326 56 378 110 q 228 -11 281 8 q 178 -21 203 -21 q 94 17 126 -21 q 61 121 61 56 q 94 274 61 186 q 172 432 126 363 q 90 422 136 422 q 26 433 53 422 q 0 469 0 444 q 9 498 0 489 q 32 507 18 507 q 60 501 46 507 q 83 492 75 496 q 103 488 90 489 q 131 486 115 486 q 178 492 158 486 q 251 522 219 501 q 310 557 294 550 q 342 564 325 564 q 365 555 358 564 q 372 532 372 546 q 356 503 372 514 q 320 486 346 496 q 267 447 294 476 q 186 332 228 406 q 135 218 151 269 q 119 126 119 167 q 144 51 119 74 q 164 38 151 44 q 193 32 176 32 q 242 47 215 32 q 301 102 275 67 q 340 175 328 138 q 348 206 344 189 q 351 238 351 224 q 338 287 351 269 q 304 304 325 304 q 279 297 293 304 q 265 288 276 296 q 244 276 253 281 q 226 271 236 271 q 206 289 206 271 q 222 319 206 304 q 257 343 238 333 q 322 358 288 358 q 387 327 363 358 q 411 246 411 296 q 400 178 411 215 z "},"":{"ha":643,"x_min":33,"x_max":643,"o":"m 251 158 q 233 156 240 156 q 194 172 211 156 q 178 211 178 189 q 194 253 178 235 q 243 271 211 271 q 276 263 260 271 q 304 232 293 254 q 355 237 333 232 q 400 254 376 242 q 433 336 414 300 q 465 382 451 372 q 494 392 479 392 q 531 349 531 392 q 513 298 531 326 q 471 250 496 269 q 440 178 453 218 q 426 106 426 138 q 433 66 426 76 q 449 56 440 56 q 462 63 453 56 q 489 94 471 71 q 547 186 524 139 q 578 254 551 196 q 592 282 585 272 q 618 300 604 300 q 643 274 643 300 q 639 250 643 265 q 581 138 624 200 q 503 42 546 88 q 450 0 474 11 q 421 -7 435 -7 q 390 13 404 -7 q 371 94 371 40 q 383 192 371 150 q 343 180 357 183 q 313 176 329 176 q 238 24 301 89 q 124 -35 179 -35 q 59 -1 85 -35 q 33 96 33 32 q 51 210 33 147 q 103 345 69 274 q 168 457 138 417 q 196 485 185 479 q 225 490 207 490 q 254 463 254 490 q 240 425 254 444 q 199 367 215 392 q 110 203 138 278 q 88 90 88 143 q 99 38 88 58 q 136 18 111 18 q 207 63 172 18 q 251 158 242 107 z "},"":{"ha":435,"x_min":33,"x_max":407,"o":"m 399 186 q 340 83 381 131 q 214 -6 288 22 q 144 -19 178 -19 q 64 11 94 -19 q 33 97 33 42 q 90 279 33 167 q 139 367 110 318 q 160 417 158 399 q 166 454 163 435 q 192 486 169 474 q 211 495 200 492 q 231 499 222 499 q 263 469 263 499 q 249 433 263 456 q 228 401 243 424 q 168 297 204 365 q 108 169 126 218 q 98 129 103 153 q 93 93 93 106 q 149 31 93 31 q 217 51 181 31 q 310 136 268 79 q 351 243 351 193 q 340 281 351 268 q 310 294 328 294 q 283 286 296 294 q 264 269 281 285 q 248 259 257 264 q 229 254 239 254 q 206 263 214 254 q 197 283 197 271 q 210 311 197 296 q 301 344 240 344 q 358 331 335 344 q 407 238 407 304 q 399 186 407 214 z "},"":{"ha":492,"x_min":32,"x_max":464,"o":"m 464 253 q 444 228 460 228 l 433 228 l 419 179 q 364 64 401 117 q 250 -28 315 -3 q 185 -40 214 -40 q 136 -33 158 -40 q 97 -11 114 -25 q 49 55 65 13 q 32 147 32 97 q 46 222 32 183 q 69 258 56 247 q 96 269 83 269 q 124 262 117 269 q 132 239 132 254 q 125 209 132 226 q 113 181 118 192 q 94 111 94 146 q 103 65 94 85 q 126 32 111 46 q 186 11 150 11 q 224 18 208 11 q 310 97 272 36 q 347 185 335 139 l 357 221 q 315 219 331 221 q 271 209 299 217 q 232 201 243 201 q 214 222 214 201 q 264 267 214 254 q 369 281 314 281 q 376 322 372 293 q 381 369 381 350 q 360 460 381 424 q 303 496 339 496 q 259 479 279 496 q 229 431 239 463 q 206 386 219 399 q 176 374 192 374 q 147 389 158 374 q 142 411 142 400 q 158 463 142 432 q 199 514 175 494 q 249 542 222 533 q 303 551 275 551 q 374 533 342 551 q 428 475 407 515 q 442 428 436 460 q 449 357 449 397 q 444 282 449 326 q 464 271 460 285 l 464 253 z "},"":{"ha":761,"x_min":13,"x_max":732,"o":"m 715 449 q 728 399 724 428 q 732 344 732 369 q 706 199 732 267 q 638 82 679 131 q 532 0 592 28 q 431 -24 483 -24 q 332 6 374 -24 q 271 92 290 35 q 261 134 264 111 q 258 181 258 157 q 261 232 258 213 q 272 282 264 251 q 161 161 203 221 q 119 89 142 133 q 92 38 96 44 q 67 6 79 15 q 42 -3 54 -3 q 19 7 29 -3 q 13 32 13 17 q 29 114 13 61 q 60 197 38 139 q 114 325 67 217 q 135 403 135 374 q 138 444 135 436 q 181 490 146 471 q 208 499 194 499 q 228 472 228 499 q 218 432 228 453 q 186 354 197 382 q 160 283 165 301 l 139 211 q 200 285 168 253 q 256 336 203 288 l 297 374 q 360 494 338 461 q 399 528 382 528 q 422 515 407 528 q 483 558 449 543 q 544 574 518 574 q 647 541 600 574 q 715 449 693 508 m 649 228 q 667 343 667 281 q 653 429 667 392 q 613 489 640 467 q 551 511 586 511 q 486 494 517 511 q 406 417 444 472 q 319 175 319 294 q 351 67 319 106 q 388 38 365 50 q 438 26 411 26 q 503 43 467 26 q 590 119 550 67 q 649 228 631 171 z "},"":{"ha":633,"x_min":14,"x_max":633,"o":"m 633 268 q 629 245 633 258 q 613 204 625 232 q 558 113 593 163 q 486 29 524 64 q 440 -5 467 11 q 390 -21 413 -21 q 357 -11 372 -21 q 333 20 342 -1 q 325 71 325 42 q 332 116 325 85 q 346 168 339 147 l 364 217 l 299 200 l 271 154 q 194 35 215 63 q 125 -31 160 -11 q 85 -42 103 -42 q 49 -29 67 -42 q 23 8 32 -17 q 14 61 14 32 q 19 105 14 82 q 37 138 24 128 q 64 149 50 149 q 93 107 93 149 q 88 78 93 93 q 76 42 76 49 q 82 26 76 32 q 96 19 88 19 q 106 22 100 19 q 115 28 111 25 q 163 78 138 43 q 210 154 188 114 l 235 197 q 214 196 221 196 q 142 213 169 196 q 103 257 115 229 q 97 279 99 267 q 96 293 96 292 q 99 316 96 304 q 104 338 101 328 q 176 449 124 396 q 276 518 228 503 q 318 525 301 525 q 353 517 336 525 q 383 493 371 510 q 394 444 394 476 q 386 396 394 429 q 363 330 378 363 q 329 263 349 297 l 376 274 q 395 279 381 275 q 417 283 410 283 q 434 278 428 283 q 440 256 440 272 q 435 226 440 239 q 390 107 413 167 q 386 78 386 90 q 396 47 386 56 q 415 39 406 39 q 451 60 429 39 q 488 104 472 82 q 524 164 504 126 q 561 250 543 201 q 581 285 571 275 q 607 294 592 294 q 633 268 633 294 m 336 432 q 304 471 336 471 q 275 463 292 471 q 217 414 247 447 q 174 352 186 381 q 163 308 163 324 q 196 258 163 272 q 240 250 213 250 q 265 251 260 251 l 293 306 q 321 372 306 329 q 336 432 336 414 z "},"":{"ha":1749,"x_min":-54,"x_max":1735,"o":"m 1718 324 q 1735 240 1735 282 q 1615 44 1735 124 q 1446 -19 1549 1 q 1269 -36 1363 -36 q 1203 -34 1236 -36 q 1154 -31 1169 -32 q 1017 13 1064 -21 q 971 106 971 46 q 979 158 971 129 l 989 190 q 807 199 901 199 q 628 190 711 199 l 596 101 q 586 66 589 82 q 582 43 583 50 q 586 26 582 36 q 590 6 590 17 q 572 -26 590 -12 q 532 -40 554 -40 q 506 -31 517 -40 q 490 11 490 -17 q 500 58 490 31 q 542 186 524 121 l 497 186 q 465 197 475 186 q 454 221 454 207 q 467 251 454 244 q 501 257 481 257 l 568 257 q 660 489 644 443 q 708 725 708 631 q 668 864 708 821 q 576 900 635 900 q 531 895 553 900 q 482 881 510 890 q 251 726 368 840 q 82 504 143 621 q 46 418 60 461 q 32 336 32 375 q 57 261 32 289 q 169 222 92 222 q 270 236 214 222 q 367 272 326 250 q 403 288 386 282 q 433 294 419 294 q 445 288 438 294 q 453 268 453 282 q 418 224 453 246 q 347 191 394 208 q 249 165 300 174 q 151 156 199 156 q -1 202 53 156 q -54 331 -54 249 q -35 431 -54 375 q 174 746 22 590 q 471 951 325 901 q 576 971 529 971 q 724 910 669 971 q 779 739 779 850 q 757 571 779 663 q 704 403 742 506 l 650 254 q 735 260 683 258 q 793 261 788 261 q 901 260 847 261 q 1010 257 956 258 q 1072 432 1038 343 l 1111 532 q 1089 529 1094 529 q 1057 550 1057 529 q 1074 582 1057 572 q 1133 592 1092 592 l 1161 658 l 1211 775 l 1250 871 q 1278 911 1263 899 q 1315 924 1293 924 q 1353 886 1353 924 q 1331 847 1353 872 q 1285 767 1308 822 q 1253 693 1275 742 q 1211 593 1238 660 q 1342 579 1278 593 q 1474 539 1407 565 q 1633 442 1568 503 q 1718 324 1692 389 m 1646 307 q 1533 438 1618 381 q 1303 522 1440 500 q 1244 529 1282 525 q 1186 533 1206 533 q 1149 449 1167 490 q 1107 340 1132 408 q 1049 178 1060 213 q 1039 119 1039 143 q 1060 67 1039 90 q 1131 34 1081 44 q 1244 24 1181 24 q 1350 29 1303 24 q 1431 43 1397 35 q 1596 125 1535 69 q 1657 250 1657 181 q 1646 307 1657 276 z "},"":{"ha":681,"x_min":10,"x_max":653,"o":"m 644 186 q 586 83 626 131 q 460 -6 533 22 q 386 -21 421 -21 q 306 14 333 -21 q 279 97 279 49 q 286 159 279 129 q 306 219 293 189 q 238 197 267 204 q 118 185 185 185 q 95 123 107 158 q 81 64 83 88 q 75 18 78 40 q 42 -4 68 -4 q 17 6 25 -4 q 10 33 10 17 q 17 84 10 51 q 47 185 24 117 q 28 219 28 192 q 37 248 28 236 q 67 256 46 260 q 160 486 121 419 q 217 536 189 536 q 242 529 231 536 q 253 506 253 522 q 242 468 253 490 q 218 429 232 446 q 186 378 199 407 q 136 253 165 331 q 227 260 182 253 q 328 289 272 267 q 432 471 397 471 q 469 440 469 471 q 432 356 469 426 q 390 263 410 313 q 355 170 369 214 q 340 93 340 126 q 393 29 340 29 q 463 51 422 29 q 556 136 514 79 q 597 243 597 193 q 585 281 597 268 q 556 294 574 294 q 529 286 542 294 q 510 269 526 285 q 494 259 503 264 q 475 254 485 254 q 451 263 460 254 q 443 283 443 271 q 456 311 443 296 q 547 344 486 344 q 604 331 581 344 q 653 238 653 304 q 644 186 653 214 z "},"":{"ha":1410,"x_min":28,"x_max":1396,"o":"m 1379 326 q 1396 243 1396 286 q 1369 146 1396 192 q 1274 53 1339 94 q 1124 -7 1210 13 q 935 -26 1038 -26 q 865 -26 900 -26 q 822 -21 836 -22 q 676 31 719 -10 q 640 118 640 64 q 644 151 640 136 q 654 192 647 167 q 693 311 675 257 q 740 442 718 386 l 778 533 l 760 533 q 734 537 743 533 q 725 553 725 540 q 742 585 725 575 q 801 594 760 594 q 833 700 822 651 q 850 788 835 708 q 854 825 854 811 q 846 856 854 847 q 822 864 838 864 q 790 842 810 864 q 724 738 765 813 q 522 318 700 696 q 415 125 461 189 q 319 29 368 61 q 186 -10 260 -10 q 74 26 115 -10 q 28 146 28 67 q 42 213 28 186 q 88 240 57 240 q 106 232 97 240 q 114 203 114 224 q 105 171 114 192 q 96 142 96 150 q 115 79 96 101 q 176 57 135 57 q 349 146 275 57 q 472 364 399 206 q 565 560 517 460 q 650 728 613 661 q 738 864 694 807 q 786 914 761 894 q 856 942 822 942 q 914 901 899 942 q 924 828 924 876 q 914 725 924 778 q 879 596 904 672 q 994 584 931 596 q 1135 542 1057 572 q 1306 433 1238 501 q 1379 326 1356 383 m 1307 300 q 1181 438 1275 381 q 971 515 1088 496 q 850 526 911 526 q 811 428 825 461 q 776 344 782 358 q 738 243 754 288 q 708 126 708 163 q 728 74 708 94 q 799 42 747 53 q 914 32 850 32 q 1010 38 960 32 q 1092 50 1060 43 q 1247 121 1186 74 q 1318 246 1318 176 q 1307 300 1318 269 z "},"":{"ha":725,"x_min":0,"x_max":697,"o":"m 689 186 q 631 83 671 131 q 504 -6 578 22 q 435 -19 468 -19 q 354 11 385 -19 q 324 97 324 42 q 343 194 324 142 q 381 279 349 211 q 397 322 392 306 q 408 368 408 356 l 403 378 l 393 378 q 338 314 374 371 q 256 173 307 267 q 179 44 204 79 q 78 -25 128 -25 q 23 10 46 -25 q 0 108 0 44 q 19 189 0 158 q 65 219 39 219 q 85 214 78 219 q 99 179 99 203 q 90 147 99 163 q 65 118 81 132 q 61 100 63 111 q 60 83 60 89 q 68 45 60 60 q 86 31 76 31 q 135 82 103 31 q 289 343 219 232 q 357 438 326 403 q 456 497 411 497 q 483 485 472 497 q 493 444 493 472 q 461 313 493 385 q 399 169 429 240 q 383 94 383 124 q 439 29 383 29 q 507 51 468 29 q 600 136 558 79 q 642 243 642 193 q 630 281 642 268 q 600 294 618 294 q 574 286 586 294 q 554 269 571 285 q 538 259 547 264 q 519 254 529 254 q 496 263 504 254 q 488 283 488 271 q 500 311 488 296 q 592 344 531 344 q 649 331 625 344 q 697 238 697 304 q 689 186 697 214 z "},"":{"ha":557,"x_min":13,"x_max":557,"o":"m 550 242 q 476 113 524 182 q 386 10 428 44 q 360 -8 372 -3 q 338 -14 349 -14 q 301 8 319 -14 q 286 44 292 21 q 281 86 281 67 l 281 103 q 210 23 240 50 q 156 -15 181 -4 q 118 -26 132 -26 q 69 0 90 -26 q 54 38 60 14 q 49 82 49 61 q 51 129 49 111 q 61 174 54 147 q 122 329 79 243 q 208 468 164 415 q 229 487 219 482 q 251 492 239 492 q 276 483 265 492 q 288 458 288 475 q 268 415 288 440 q 197 308 229 363 q 139 190 160 243 q 120 131 128 164 q 113 71 113 97 q 118 43 113 51 q 131 35 124 35 q 163 51 143 35 q 214 101 183 67 q 299 221 267 163 q 347 331 313 246 q 367 368 357 356 q 404 390 383 390 q 428 382 417 390 q 439 356 439 374 q 414 294 439 333 q 366 212 382 247 q 343 144 350 176 q 336 93 336 113 q 341 66 336 74 q 356 58 346 58 q 372 66 363 58 q 393 88 381 74 q 451 171 425 122 q 492 254 458 183 q 512 286 503 278 q 533 294 521 294 q 557 269 557 294 q 550 242 557 256 m 274 -94 q 250 -132 274 -110 q 218 -157 240 -142 l 147 -242 q 120 -281 138 -253 q 95 -322 103 -308 q 83 -346 88 -335 q 42 -367 71 -367 q 19 -360 26 -367 q 13 -346 13 -353 q 26 -314 13 -339 q 125 -158 85 -212 q 240 -64 196 -64 q 259 -69 244 -64 q 274 -94 274 -74 z "},"":{"ha":481,"x_min":28,"x_max":467,"o":"m 438 731 q 382 678 422 711 q 324 635 350 651 q 281 618 299 618 q 256 627 265 618 q 247 649 247 636 q 258 676 247 668 q 288 692 268 685 q 354 733 325 706 q 399 782 367 744 q 408 793 407 792 q 422 799 415 799 q 443 787 435 799 q 451 765 451 775 q 438 731 451 750 m 467 329 q 364 122 467 257 q 154 -26 250 -26 q 78 7 107 -26 q 50 85 50 40 q 100 197 50 135 q 164 268 108 207 q 258 381 232 340 q 285 451 285 422 q 258 482 285 482 q 184 449 228 482 q 114 368 140 415 q 86 331 99 342 q 60 321 74 321 q 38 331 47 321 q 28 354 28 340 q 100 456 28 392 q 200 529 165 514 q 274 544 235 544 q 328 521 304 544 q 351 454 351 497 q 314 350 351 407 q 246 267 294 321 q 160 172 165 179 q 124 90 124 126 q 135 47 124 60 q 165 33 147 33 q 282 111 208 33 q 375 264 356 189 q 390 325 382 294 q 432 361 404 361 q 467 329 467 361 z "},"":{"ha":925,"x_min":482,"x_max":813,"o":"m 813 622 q 803 601 813 610 q 783 593 793 593 q 760 608 775 593 q 719 650 739 629 q 642 714 689 681 q 568 651 604 688 q 529 608 549 629 q 507 599 518 599 q 488 608 494 599 q 482 628 482 617 q 521 688 482 649 q 583 742 546 713 q 621 767 608 761 q 640 774 633 774 q 669 765 651 774 q 732 717 688 756 q 794 656 776 678 q 813 622 813 633 z "},"":{"ha":804,"x_min":347,"x_max":714,"o":"m 714 672 q 694 640 714 651 q 644 629 674 629 q 590 640 621 629 q 538 664 575 646 q 456 690 478 690 q 420 681 435 690 q 394 657 406 671 q 381 646 389 651 q 367 640 374 640 q 347 668 347 640 q 359 702 347 683 q 396 735 371 721 q 457 749 421 749 q 510 739 482 749 q 582 707 538 729 q 635 690 614 690 q 664 695 649 690 q 688 700 679 700 q 708 692 701 700 q 714 672 714 685 z "},"":{"ha":626,"x_min":72,"x_max":506,"o":"m 493 233 q 456 224 482 224 q 401 226 440 224 q 350 228 363 228 l 142 217 q 99 219 108 217 q 72 257 72 228 l 76 274 q 100 290 83 290 l 183 285 l 269 285 l 299 285 q 385 290 340 285 l 458 297 q 494 287 482 297 q 506 261 506 276 q 493 233 506 244 z "},"":{"ha":1054,"x_min":58,"x_max":964,"o":"m 957 282 q 964 261 964 272 q 953 235 964 246 q 921 224 942 224 q 900 226 914 224 q 783 247 840 242 q 669 251 725 251 q 321 235 488 251 q 265 230 318 235 q 183 225 211 225 q 92 238 126 225 q 58 283 58 250 q 72 315 58 304 q 108 325 86 325 q 149 320 124 325 q 196 311 174 315 q 300 313 258 311 q 383 315 342 314 q 502 318 415 315 q 617 321 589 321 q 844 313 750 321 q 957 282 939 304 z "},"":{"ha":408,"x_min":175,"x_max":451,"o":"m 447 993 q 426 968 442 982 q 396 942 410 954 q 327 861 364 913 q 258 750 290 810 q 243 725 247 731 q 223 706 233 711 q 204 700 213 700 q 183 709 192 700 q 175 732 175 718 q 179 756 175 746 q 194 785 183 765 q 276 913 242 864 q 319 968 294 938 q 368 1019 344 999 q 399 1044 392 1040 l 419 1049 q 442 1037 433 1049 q 451 1011 451 1025 q 447 993 451 1001 z "},"":{"ha":425,"x_min":211,"x_max":378,"o":"m 375 979 q 378 964 378 968 q 367 915 378 950 q 343 833 350 865 q 304 658 313 708 q 296 565 296 607 q 286 510 296 525 q 254 496 276 496 q 226 506 238 496 q 211 544 211 519 q 218 590 211 561 q 236 665 235 660 q 258 790 249 726 q 267 850 263 819 q 288 957 279 935 q 336 1004 304 1004 q 362 997 353 1004 q 375 979 371 989 z "},"":{"ha":329,"x_min":-54,"x_max":207,"o":"m 207 64 q 183 26 207 49 q 151 1 174 17 l 81 -83 q 53 -122 71 -94 q 28 -163 36 -150 q 17 -187 21 -176 q -25 -208 4 -208 q -47 -201 -40 -208 q -54 -187 -54 -194 q -40 -156 -54 -181 q 58 0 18 -54 q 174 94 129 94 q 192 90 178 94 q 207 64 207 85 z "},"":{"ha":436,"x_min":103,"x_max":436,"o":"m 425 1079 q 436 1053 436 1069 q 420 994 436 1032 q 400 942 404 956 q 359 781 372 850 q 346 661 346 711 q 336 603 346 625 q 296 582 326 582 q 260 622 260 582 q 261 642 260 633 q 272 688 268 668 q 347 1032 310 860 q 367 1072 356 1057 q 404 1086 379 1086 q 425 1079 415 1086 m 253 932 q 224 808 250 919 q 186 636 197 696 q 182 588 182 608 q 182 561 182 574 q 183 538 182 549 q 172 502 183 514 q 143 490 161 490 q 114 506 125 490 q 103 546 103 522 q 107 581 103 561 q 113 611 111 601 q 156 878 119 644 q 193 988 169 969 q 218 997 206 997 q 248 988 239 997 q 257 958 257 979 q 253 932 257 949 z "},"":{"ha":475,"x_min":101,"x_max":607,"o":"m 596 1072 q 607 1050 607 1063 q 586 1010 607 1035 q 544 963 558 979 q 406 774 483 892 q 299 594 329 657 q 276 563 288 572 q 254 553 265 553 q 228 565 240 553 q 217 593 217 576 q 224 620 217 607 q 243 651 231 633 q 288 714 274 693 q 492 1015 439 946 q 553 1076 532 1068 l 572 1079 q 596 1072 588 1079 m 376 1031 q 385 1010 385 1022 q 371 976 385 996 q 233 757 272 822 q 185 668 206 710 q 160 633 172 642 q 135 624 149 624 q 124 626 129 624 q 113 632 118 628 q 101 656 101 642 q 117 696 101 672 q 148 742 133 719 q 200 831 163 764 q 253 928 243 908 q 282 986 274 969 q 317 1033 301 1022 q 350 1043 332 1043 q 376 1031 364 1043 z "},"":{"ha":467,"x_min":13,"x_max":346,"o":"m 346 261 q 336 222 346 247 q 310 150 318 176 q 276 15 290 86 q 256 -131 263 -56 q 242 -194 256 -178 q 206 -210 229 -210 q 169 -169 169 -210 q 171 -150 169 -158 q 182 -104 178 -124 q 257 240 219 68 q 274 278 265 267 q 313 294 288 294 q 338 284 331 294 q 346 261 346 274 m 163 140 q 121 -32 142 57 q 90 -199 90 -165 q 92 -230 90 -215 q 94 -258 93 -244 q 83 -289 94 -276 q 53 -301 71 -301 q 24 -285 35 -301 q 13 -246 13 -269 q 17 -210 13 -231 q 22 -181 21 -190 q 63 61 46 -61 q 81 160 74 135 q 99 195 88 185 q 128 206 111 206 q 157 196 147 206 q 167 168 167 186 q 165 154 167 161 q 163 140 164 147 z "},"":{"ha":800,"x_min":79,"x_max":800,"o":"m 800 689 q 790 663 800 669 q 758 656 779 656 q 649 671 704 664 q 554 678 594 678 q 478 674 519 678 q 376 439 444 607 q 253 113 299 246 q 179 -144 192 -65 q 172 -212 176 -162 q 158 -278 168 -262 q 117 -304 140 -304 q 90 -292 101 -304 q 79 -253 79 -279 q 81 -223 79 -233 q 92 -181 83 -212 q 131 -47 111 -114 q 232 254 179 108 q 400 668 307 461 l 325 660 q 258 653 268 654 q 215 653 247 653 q 125 663 154 653 q 96 703 96 674 q 106 727 96 721 q 135 733 115 733 q 174 730 164 733 q 213 726 185 726 l 272 726 l 429 733 l 475 829 q 541 985 538 960 q 548 1034 544 1010 q 563 1070 551 1058 q 596 1082 575 1082 q 625 1065 614 1082 q 636 1024 636 1049 q 576 886 636 997 q 507 739 536 810 q 746 729 692 739 q 800 689 800 719 z "},"":{"ha":942,"x_min":79,"x_max":942,"o":"m 942 689 q 931 663 942 669 q 900 656 921 656 q 791 671 846 664 q 696 678 736 678 q 619 674 661 678 q 528 469 567 567 q 479 332 500 400 l 554 340 q 668 347 614 347 q 753 336 722 347 q 783 297 783 325 q 775 275 783 283 q 744 267 767 267 q 706 270 715 267 q 667 274 696 274 l 607 274 l 450 267 q 375 51 410 161 q 321 -144 331 -87 q 314 -212 318 -162 q 300 -278 310 -262 q 258 -304 282 -304 q 232 -292 243 -304 q 221 -253 221 -279 q 223 -223 221 -233 q 233 -181 225 -212 q 278 -22 267 -58 q 376 261 306 69 q 137 272 194 261 q 79 311 79 282 q 90 338 79 331 q 121 344 100 344 q 230 329 175 336 q 325 322 285 322 q 400 326 360 322 q 471 504 438 425 q 542 668 496 564 l 467 660 q 399 653 410 654 q 357 653 389 653 q 267 663 296 653 q 238 703 238 674 q 247 727 238 721 q 276 733 257 733 q 316 730 306 733 q 354 726 326 726 l 414 726 l 571 733 l 617 829 q 683 985 679 960 q 690 1034 686 1010 q 705 1070 693 1058 q 738 1082 717 1082 q 767 1065 756 1082 q 778 1024 778 1049 q 718 886 778 997 q 649 739 678 810 q 888 729 833 739 q 942 689 942 719 z "},"":{"ha":575,"x_min":278,"x_max":436,"o":"m 436 294 q 422 235 436 267 q 386 190 408 203 q 344 182 371 182 q 294 198 310 182 q 278 251 278 214 q 288 309 278 281 q 318 351 299 338 q 367 365 338 365 q 436 294 436 365 z "},"":{"ha":589,"x_min":42,"x_max":547,"o":"m 547 31 q 532 -8 547 10 q 488 -25 517 -25 q 433 19 433 -25 q 449 52 433 36 q 499 68 465 68 q 533 60 519 68 q 547 31 547 53 m 367 31 q 348 -10 367 8 q 301 -29 329 -29 q 260 -13 276 -29 q 244 24 244 3 q 253 47 249 40 q 303 72 268 72 q 354 57 338 72 q 367 31 367 46 m 164 25 q 144 -19 164 0 q 97 -37 124 -37 q 56 -22 69 -37 q 42 13 42 -7 q 61 53 42 36 q 110 69 81 69 q 150 56 136 69 q 164 25 164 42 z "},"":{"ha":1336,"x_min":40,"x_max":1260,"o":"m 1260 233 q 1180 20 1260 117 q 999 -76 1100 -76 q 900 -44 942 -76 q 843 90 843 -1 q 954 311 843 211 q 1132 400 1053 400 q 1228 356 1196 400 q 1260 233 1260 311 m 776 733 q 739 678 776 717 q 624 551 664 601 q 401 281 478 376 q 283 122 339 196 q 239 28 268 103 q 185 -18 221 -18 q 160 -6 169 -18 q 151 25 151 6 q 173 74 151 43 q 207 122 194 104 q 320 272 246 176 q 454 442 394 368 q 593 613 524 526 q 546 596 568 603 q 500 583 524 589 q 369 423 451 486 q 200 360 286 360 q 85 408 129 360 q 40 529 40 457 q 65 636 40 583 q 144 722 89 689 q 247 851 172 801 q 394 900 322 900 q 503 850 467 900 q 535 733 535 806 q 522 647 535 689 q 633 692 588 663 q 694 736 649 701 q 749 761 728 761 q 771 751 765 761 q 776 733 776 740 m 803 233 q 723 20 803 117 q 542 -76 643 -76 q 443 -44 485 -76 q 386 90 386 -1 q 497 311 386 211 q 675 400 596 400 q 771 356 739 400 q 803 233 803 311 m 1200 247 q 1183 319 1200 297 q 1133 340 1165 340 q 1071 319 1108 340 q 1010 278 1042 303 q 925 178 954 232 q 901 96 901 133 q 927 13 901 43 q 994 -17 953 -17 q 1135 62 1069 -17 q 1200 247 1200 140 m 474 735 q 444 828 474 799 q 392 850 422 850 q 327 834 361 850 q 269 794 293 818 q 230 742 244 769 q 215 685 215 714 q 247 629 215 646 q 326 613 279 613 q 392 616 364 613 q 449 631 419 619 q 467 681 461 653 q 474 735 474 708 m 417 568 q 319 553 371 553 q 215 574 260 553 q 147 640 169 594 q 111 585 121 615 q 101 526 101 556 q 133 443 101 474 q 213 413 165 413 q 240 416 226 413 q 263 422 254 419 q 351 478 311 439 q 417 568 392 518 m 743 247 q 726 319 743 297 q 676 340 708 340 q 528 256 613 340 q 444 96 444 172 q 470 13 444 43 q 538 -17 496 -17 q 678 62 613 -17 q 743 247 743 140 z "},"":{"ha":361,"x_min":76,"x_max":299,"o":"m 299 365 q 266 315 299 349 q 203 250 233 282 q 151 189 174 218 q 185 129 165 157 q 225 81 197 111 q 242 61 239 65 q 251 36 251 49 q 244 17 251 25 q 218 1 233 1 q 198 7 207 1 q 178 24 189 13 q 121 93 150 50 q 81 167 92 136 q 76 185 76 178 q 90 214 76 194 q 144 283 122 257 q 225 368 175 319 q 248 386 235 378 q 274 394 261 394 q 299 365 299 394 z "},"":{"ha":328,"x_min":25,"x_max":247,"o":"m 243 229 q 247 213 247 218 q 240 193 247 207 q 189 124 224 165 q 99 28 154 83 q 76 10 89 18 q 50 1 63 1 q 31 12 36 1 q 25 29 25 22 q 32 50 25 39 q 41 63 35 54 q 74 97 47 71 q 117 142 108 132 l 172 207 q 140 264 158 236 q 99 315 122 292 q 82 335 83 332 q 72 358 72 347 q 81 383 72 371 q 106 394 90 394 q 122 391 114 394 q 146 372 129 388 q 202 304 174 346 q 243 229 231 263 z "},"":{"ha":1222,"x_min":42,"x_max":1208,"o":"m 1208 508 q 1180 448 1208 479 q 1113 417 1151 417 q 1029 481 1063 417 q 988 610 1007 525 q 928 547 954 569 q 853 510 885 510 q 817 532 835 510 q 795 588 799 554 q 791 638 792 621 q 786 656 790 656 q 779 640 782 646 q 786 655 785 650 q 789 661 788 660 q 768 626 776 640 q 670 492 717 544 q 593 417 624 439 q 494 378 542 378 q 433 404 457 378 q 410 476 410 431 q 424 518 410 504 q 453 532 438 532 q 485 497 485 532 q 482 479 485 489 q 476 461 479 469 q 476 446 474 450 l 483 439 q 524 447 507 439 q 624 536 567 468 q 799 804 703 631 q 840 949 817 901 q 881 988 860 988 q 906 974 897 988 q 915 939 915 961 q 858 786 915 908 q 849 654 849 740 q 854 603 849 629 q 868 576 860 576 q 928 639 878 576 q 988 717 971 692 q 1026 857 988 788 q 1104 926 1064 926 q 1126 917 1118 926 q 1133 893 1133 908 q 1064 729 1133 878 q 1060 701 1061 718 q 1058 668 1058 685 q 1077 539 1058 600 q 1119 478 1096 478 q 1147 507 1136 478 q 1171 532 1154 525 q 1192 532 1181 536 q 1208 508 1208 525 m 710 935 q 699 913 710 924 q 667 903 689 903 q 631 915 642 903 q 607 926 621 926 l 518 926 q 473 841 496 890 q 424 726 450 792 l 376 610 q 350 542 371 597 q 326 461 329 488 q 319 428 322 435 q 286 404 310 404 q 259 413 271 404 q 247 443 247 422 q 311 629 247 482 q 433 921 410 857 l 342 915 l 169 907 q 61 925 90 907 q 42 957 42 938 q 65 985 42 972 q 110 997 89 997 q 156 971 133 997 l 181 971 q 232 972 213 971 q 354 979 329 979 q 436 981 408 979 q 581 988 578 988 q 664 982 642 988 q 710 935 710 971 z "}}}
